<?xml version='1.0' encoding='utf-8'?>
<!DOCTYPE svg PUBLIC '-//W3C//DTD SVG 1.1//EN' 'http://www.w3.org/Graphics/SVG/1.1/DTD/svg11.dtd'>
<!-- Generator: Adobe Illustrator 16.0.3, SVG Export Plug-In . SVG Version: 6.00 Build 0)  -->
<svg xmlns="http://www.w3.org/2000/svg" id="Capa_1" height="480px" width="640px" x="0px" viewBox="0 0 640 480" y="0px" xmlns:xlink="http://www.w3.org/1999/xlink" enable-background="new 0 0 640 480" xml:space="preserve" version="1.1">
 <circle cy="241.37" r="226.243" cx="322.74"/>
 <path d="M323.398,15.237v452.377c124.631-0.329,225.477-101.503,225.477-226.134S448.029,15.565,323.398,15.237z"/>
 <g id="K5VIhc_1_">
  <g>
   <path d="M-423.95,398.557c0-59.302,0-118.603,0-178.014c3.509-10.742,10.634-17.318,22.251-18.307&#xd;&#xa;&#x9;&#x9;&#x9;c0.221-3.727,0.438-6.904,0.55-10.521c17.866,0,35.404,0,53.382,0c0.329,3.946,0.548,7.673,0.768,11.181&#xd;&#xa;&#x9;&#x9;&#x9;c6.905,2.192,11.399,0.877,13.812-6.356c1.645-4.823,4.385-9.317,6.687-13.921c5.371-10.305,13.702-15.896,25.432-15.896&#xd;&#xa;&#x9;&#x9;&#x9;c24.006-0.109,48.011-0.109,71.906,0c11.729,0,20.061,5.7,25.432,16.004c2.959,5.59,5.371,11.51,8.55,16.99&#xd;&#xa;&#x9;&#x9;&#x9;c1.096,1.863,3.617,3.836,5.479,3.836c10.305,0.329,20.607,0.22,31.132,0.22c0.327-8.11,4.821-10.522,11.838-9.975&#xd;&#xa;&#x9;&#x9;&#x9;c2.302,0.219,4.713,0,7.016,0c6.138-0.11,12.715-0.877,13.921,8.001c0.109,0.658,1.205,1.426,1.973,1.645&#xd;&#xa;&#x9;&#x9;&#x9;c9.646,1.975,14.359,8.771,17.648,17.319c0,59.301,0,118.602,0,178.013c-4.934,14.141-14.799,18.963-29.815,18.854&#xd;&#xa;&#x9;&#x9;&#x9;c-86.047-0.549-172.203-0.549-258.251,0C-409.153,417.52-419.018,412.697-423.95,398.557z M-178.196,310.098&#xd;&#xa;&#x9;&#x9;&#x9;c0.219-48.12-38.476-87.253-86.486-87.691c-47.243-0.438-86.924,38.805-87.252,86.376c-0.329,48.449,38.803,88.021,86.813,88.021&#xd;&#xa;&#x9;&#x9;&#x9;C-217.547,396.803-178.415,357.781-178.196,310.098z M-264.682,186.453c-11.509,0-23.02,0.22-34.528-0.109&#xd;&#xa;&#x9;&#x9;&#x9;c-5.479-0.109-6.138,2.85-5.919,7.125c0.22,3.946-0.768,8.221,5.591,8.111c23.02-0.109,46.037-0.109,68.947,0&#xd;&#xa;&#x9;&#x9;&#x9;c6.467,0,5.371-4.275,5.59-8.222c0.22-4.274-0.438-7.234-5.919-7.016C-242.21,186.673-253.501,186.453-264.682,186.453z&#xd;&#xa;&#x9;&#x9;&#x9; M-374.406,237.204c-0.109-8.001-7.016-14.907-14.907-14.799c-7.894,0.11-14.798,7.017-14.798,15.019&#xd;&#xa;&#x9;&#x9;&#x9;c0,8.331,7.233,15.346,15.346,15.018C-380.654,252.113-374.186,245.317-374.406,237.204z M-371.116,265.814&#xd;&#xa;&#x9;&#x9;&#x9;c1.097,0,2.192,0,3.288,0.11c1.974-2.852,5.592-5.811,5.48-8.55c-0.109-2.412-3.946-6.14-6.796-6.797&#xd;&#xa;&#x9;&#x9;&#x9;c-4.713-1.097-7.894,2.631-7.344,7.016C-376.159,260.443-372.98,263.073-371.116,265.814z" fill="#FFFFFF"/>
   <path d="M-265.01,379.045c-38.256,0-69.495-31.24-69.386-69.495c0.108-38.365,31.35-69.386,69.714-69.276&#xd;&#xa;&#x9;&#x9;&#x9;c37.927,0.11,68.838,31.021,69.058,69.167C-195.515,347.586-226.755,378.936-265.01,379.045z M-264.901,346.819&#xd;&#xa;&#x9;&#x9;&#x9;c20.606-0.108,37.158-16.661,37.158-37.159c0-20.496-16.552-37.158-37.158-37.269c-20.827-0.109-37.707,16.771-37.599,37.598&#xd;&#xa;&#x9;&#x9;&#x9;C-302.28,330.376-285.508,346.928-264.901,346.819z" fill="#FFFFFF"/>
  </g>
 </g>
 <g id="s6L0TT.tif">
  <g>
   <path d="M-396.876,721.809c0-39.681,0-79.251,0-118.932c0.109-0.769,0.329-1.426,0.329-2.192&#xd;&#xa;&#x9;&#x9;&#x9;c0-38.146,0-76.291,0-114.438c0-4.166,0.438-8.331,2.302-12.058c4.934-9.976,13.044-15.236,24.226-15.236&#xd;&#xa;&#x9;&#x9;&#x9;c48.669,0,97.447,0,146.116,0c21.265,0,42.529-0.109,63.795,0c8.11,0,14.798,3.617,19.84,9.976&#xd;&#xa;&#x9;&#x9;&#x9;c4.056,5.042,5.48,10.852,5.48,17.318c0,39.352,0.109,78.702,0.22,118.163c0,38.585,0,77.278,0,115.862&#xd;&#xa;&#x9;&#x9;&#x9;c0,10.194-4.386,18.087-13.265,23.458c-4.384,2.63-9.315,3.507-14.358,3.507c-68.947,0-137.896,0-206.843,0&#xd;&#xa;&#x9;&#x9;&#x9;c-0.438,0-0.767,0-1.204,0c-12.936,0.11-23.238-8.987-25.761-20.277C-396.328,725.097-396.547,723.451-396.876,721.809z&#xd;&#xa;&#x9;&#x9;&#x9; M-291.865,641.461c22.031-13.264,43.734-26.309,65.769-39.461c-22.033-13.265-43.846-26.309-65.769-39.462&#xd;&#xa;&#x9;&#x9;&#x9;C-291.865,589.066-291.865,615.154-291.865,641.461z M-383.722,498.086c0,2.191,0,4.385,0,6.576c0,3.397,2.411,6.248,5.699,6.468&#xd;&#xa;&#x9;&#x9;&#x9;c4.714,0.22,9.537,0.329,14.25,0.108c3.945-0.219,6.139-2.411,6.356-6.356c0.221-4.604,0.329-9.207,0-13.813&#xd;&#xa;&#x9;&#x9;&#x9;c-0.219-4.165-2.959-6.248-7.233-6.248c-4.165,0-8.33,0-12.387,0c-3.945,0-6.687,2.852-6.687,6.796&#xd;&#xa;&#x9;&#x9;&#x9;C-383.722,493.7-383.722,495.894-383.722,498.086z M-147.614,498.086c0-2.303,0-4.494,0-6.797&#xd;&#xa;&#x9;&#x9;&#x9;c-0.109-3.508-2.851-6.468-6.469-6.468c-4.494,0-8.987,0-13.481,0c-3.288,0-6.139,2.412-6.357,5.7&#xd;&#xa;&#x9;&#x9;&#x9;c-0.219,4.714-0.329,9.536-0.108,14.25c0.219,3.946,2.521,6.248,6.467,6.467c4.494,0.221,9.099,0.221,13.593,0&#xd;&#xa;&#x9;&#x9;&#x9;c4.165-0.219,6.357-2.959,6.357-7.125C-147.504,502.031-147.614,500.059-147.614,498.086z M-370.569,524.174&#xd;&#xa;&#x9;&#x9;&#x9;c-2.192,0-4.386,0-6.577,0c-3.728,0-6.576,2.851-6.576,6.687c0,4.385,0,8.771,0,13.153c0,3.397,2.411,6.248,5.699,6.468&#xd;&#xa;&#x9;&#x9;&#x9;c4.714,0.219,9.537,0.329,14.25,0.109c3.945-0.22,6.139-2.411,6.356-6.357c0.221-4.604,0.329-9.208,0-13.812&#xd;&#xa;&#x9;&#x9;&#x9;c-0.219-4.165-2.959-6.248-7.233-6.248C-366.622,524.174-368.596,524.174-370.569,524.174z M-160.767,524.174&#xd;&#xa;&#x9;&#x9;&#x9;c-2.192,0-4.275,0-6.468,0c-0.109,0-0.22,0-0.329,0c-3.288,0.108-6.139,2.412-6.357,5.699c-0.219,4.714-0.329,9.536-0.108,14.25&#xd;&#xa;&#x9;&#x9;&#x9;c0.219,3.946,2.521,6.248,6.467,6.468c4.604,0.22,9.208,0.22,13.812,0c4.057-0.22,6.248-2.959,6.248-7.125&#xd;&#xa;&#x9;&#x9;&#x9;c0-4.057,0-8.111,0-12.167c0-4.386-2.74-7.125-7.016-7.125C-156.602,524.174-158.685,524.174-160.767,524.174z M-383.722,576.679&#xd;&#xa;&#x9;&#x9;&#x9;c0,2.303,0,4.494,0,6.797c0,3.288,2.411,6.138,5.699,6.356c4.822,0.22,9.646,0.329,14.358,0.109&#xd;&#xa;&#x9;&#x9;&#x9;c3.837-0.22,6.14-2.521,6.358-6.356c0.219-4.494,0.328-9.099,0-13.594c-0.329-4.273-2.96-6.356-7.235-6.356&#xd;&#xa;&#x9;&#x9;&#x9;c-4.165,0-8.33,0-12.386,0c-3.837,0-6.577,2.851-6.687,6.687C-383.722,572.295-383.722,574.488-383.722,576.679z&#xd;&#xa;&#x9;&#x9;&#x9; M-160.656,563.416c-2.303,0-4.494,0-6.797,0c-3.397,0-6.248,2.41-6.468,5.81c-0.219,4.713-0.329,9.536-0.108,14.25&#xd;&#xa;&#x9;&#x9;&#x9;c0.219,3.836,2.41,6.138,6.356,6.356c4.494,0.22,9.098,0.329,13.592,0c4.275-0.22,6.469-2.96,6.469-7.233c0-4.166,0-8.44,0-12.606&#xd;&#xa;&#x9;&#x9;&#x9;c0-3.617-2.851-6.467-6.469-6.576C-156.273,563.416-158.465,563.416-160.656,563.416z M-357.415,615.921c0-2.192,0-4.274,0-6.468&#xd;&#xa;&#x9;&#x9;&#x9;c-0.108-3.837-2.739-6.576-6.576-6.687c-4.385-0.109-8.659-0.109-13.044,0c-3.728,0.109-6.576,2.74-6.687,6.467&#xd;&#xa;&#x9;&#x9;&#x9;c-0.11,4.385-0.11,8.771,0,13.154c0.109,3.507,3.288,6.576,6.796,6.576c4.274,0,8.44,0,12.715,0c3.617,0,6.688-3.069,6.796-6.796&#xd;&#xa;&#x9;&#x9;&#x9;C-357.415,620.197-357.415,618.114-357.415,615.921z M-160.767,629.073L-160.767,629.073c2.082,0,4.165,0,6.247,0&#xd;&#xa;&#x9;&#x9;&#x9;c3.508,0,6.797-2.959,6.906-6.576c0.108-4.493,0.108-8.879,0-13.372c-0.109-3.617-2.851-6.357-6.357-6.357&#xd;&#xa;&#x9;&#x9;&#x9;c-4.494-0.109-8.988-0.109-13.482,0c-3.616,0.109-6.357,2.85-6.357,6.576c0,4.385-0.109,8.77,0,13.153&#xd;&#xa;&#x9;&#x9;&#x9;c0,3.397,3.179,6.468,6.468,6.576C-165.152,629.185-162.959,629.073-160.767,629.073z M-357.415,655.162c0-2.083,0-4.056,0-6.139&#xd;&#xa;&#x9;&#x9;&#x9;c0-4.056-2.631-6.796-6.687-6.796c-4.274-0.109-8.55-0.109-12.935,0c-3.837,0.109-6.576,2.74-6.687,6.577&#xd;&#xa;&#x9;&#x9;&#x9;c-0.11,4.384-0.11,8.659,0,13.044c0.109,3.508,3.288,6.576,6.796,6.687c4.274,0,8.44,0,12.715,0c3.728,0,6.688-3.068,6.796-6.905&#xd;&#xa;&#x9;&#x9;&#x9;C-357.415,659.438-357.415,657.244-357.415,655.162z M-160.877,668.426L-160.877,668.426c2.192,0,4.275,0,6.468,0&#xd;&#xa;&#x9;&#x9;&#x9;c3.509-0.109,6.688-3.068,6.797-6.576c0.108-4.385,0.108-8.771,0-13.154c-0.109-3.617-2.74-6.356-6.357-6.467&#xd;&#xa;&#x9;&#x9;&#x9;c-4.494-0.109-9.099-0.109-13.702,0c-3.617,0.109-6.248,2.85-6.248,6.467c0,4.494-0.108,8.879,0,13.373&#xd;&#xa;&#x9;&#x9;&#x9;c0,3.289,3.18,6.357,6.468,6.468C-165.262,668.535-163.07,668.426-160.877,668.426z M-357.415,694.623c0-2.082,0-4.164,0-6.247&#xd;&#xa;&#x9;&#x9;&#x9;c0-4.165-2.631-6.797-6.796-6.905c-4.165,0-8.439,0-12.604,0c-4.057,0-6.796,2.74-6.905,6.796c0,4.165,0,8.44,0,12.604&#xd;&#xa;&#x9;&#x9;&#x9;c0,3.728,3.179,6.797,6.905,6.905c4.165,0,8.439,0,12.604,0c3.728,0,6.796-3.068,6.796-6.796&#xd;&#xa;&#x9;&#x9;&#x9;C-357.415,698.899-357.415,696.817-357.415,694.623z M-160.767,707.778c2.19,0,4.273,0,6.467,0&#xd;&#xa;&#x9;&#x9;&#x9;c3.398-0.108,6.688-3.068,6.688-6.467c0.108-4.494,0.108-8.879,0-13.373c-0.109-3.617-2.74-6.248-6.357-6.357&#xd;&#xa;&#x9;&#x9;&#x9;c-4.494-0.108-8.988-0.108-13.482,0c-3.728,0.109-6.357,2.851-6.357,6.468c0,4.385-0.109,8.77,0,13.153&#xd;&#xa;&#x9;&#x9;&#x9;c0,3.508,3.179,6.468,6.577,6.576C-165.152,707.778-162.959,707.778-160.767,707.778z" fill="#FFFFFF"/>
  </g>
 </g>
 <rect height="310.851" width="252" x="197.399" fill="#FFFFFF" y="77.925"/>
 <rect height="21" width="99.5" x="220.5" y="110.5"/>
 <rect height="21" width="99.5" x="320.25" y="110.5"/>
 <rect height="123.859" width="99.5" x="220.5" y="145.641"/>
 <rect height="123.859" width="17.25" x="320.25" y="145.641"/>
 <rect height="10.5" width="69.403" x="349.72" y="145.641"/>
 <rect height="10.5" width="69.403" x="349.72" y="164.534"/>
 <rect height="10.5" width="69.403" x="349.72" y="183.427"/>
 <rect height="10.5" width="69.403" x="349.72" y="202.321"/>
 <rect height="10.5" width="69.403" x="349.72" y="221.214"/>
 <rect height="10.5" width="69.403" x="349.72" y="240.107"/>
 <rect height="10.5" width="69.403" x="349.72" y="259"/>
 <rect height="10.5" width="99.5" x="220.375" y="280.834"/>
 <rect height="10.5" width="99.5" x="320.125" y="280.834"/>
 <rect height="10.5" width="99.5" x="220.25" y="302.334"/>
 <rect height="10.5" width="99.5" x="320" y="302.334"/>
 <rect height="10.5" width="99.5" x="220.124" y="323.334"/>
 <rect height="10.5" width="99.5" x="319.874" y="323.334"/>
 <rect height="10.5" width="99.5" x="219.999" y="342.168"/>
 <rect height="10.5" width="99.5" x="319.749" y="342.168"/>
 <rect height="10.5" width="99.5" x="219.874" y="360.834"/>
 <rect height="10.5" width="99.5" x="319.624" y="360.834"/>
</svg>
