<svg xmlns="http://www.w3.org/2000/svg" viewBox="0 0 168.91 135.28">
 <defs>
  <style>.cls-1,.cls-3{fill:#fff;}.cls-1{opacity:0.8;}.cls-2{fill:#273a53;}</style>
 </defs>
 <g id="Capa_2" data-name="Capa 2">
  <g id="Capa_1-2" data-name="Capa 1">
   <circle cy="67.78" class="cls-1" r="67.5" cx="84.27"/>
   <path d="M92.39,13.36a6.68,6.68,0,0,0-4.73-6.62,14.27,14.27,0,0,0-3.2-.58c-4.08-.09-7.93,2.66-8,6.86,0,4.8,3.47,7.32,8,7.33C88.79,20.35,92.26,18,92.39,13.36Zm-7.93,5.46C80.84,18.82,78,16.9,78,13s2.88-5,6.08-5.51a8.14,8.14,0,0,1,1.57.06c2.87.43,5,1.85,5.21,5.11C91.09,16.69,88.21,18.82,84.46,18.82Z" class="cls-2"/>
   <path d="M168.51,80.72h0c-1.19-2.89-3.36-5.42-5.16-8a83,83,0,0,0-5.27-7.2,81,81,0,0,0,5.27-7.2c1.8-2.53,4-5.06,5.16-7.95h0a.42.42,0,0,0,0-.84c-7.19-.51-14.51-.24-21.71-.24H132a.61.61,0,0,0-.27,0H104.8c-5.77,0-11.92-.58-17.66.25A49.32,49.32,0,0,0,87,42.49c6.91,0,14.32.92,21.17-.24.42,2.19,3.3,3.06,5.25,2.58A5.06,5.06,0,0,0,117,40.22,5,5,0,0,0,113.51,35a4.71,4.71,0,0,0-5.27,2.52h0c-7,.14-14.15-.22-21.1.67a53.86,53.86,0,0,0,.1-6.23,39.49,39.49,0,0,0,0-6.34c3.22-1,5.9-2.13,7.79-5.14a14.61,14.61,0,0,0,2.11-9.94C96.21,3.91,91,0,84.46,0S72.75,3.92,71.79,10.54A14.36,14.36,0,0,0,74,20.41c2,3.1,4.55,3.73,7.74,4.85a34.88,34.88,0,0,0,0,6.7,53.9,53.9,0,0,0,.1,6.23c-7-.89-14.12-.53-21.1-.67h0A4.71,4.71,0,0,0,55.4,35a5,5,0,0,0-3.51,5.22,5,5,0,0,0,3.58,4.61c1.94.47,4.82-.39,5.24-2.58,6.86,1.16,14.26.24,21.18.24a47.91,47.91,0,0,0-.12,7.09c-5.56-.8-11.51-.25-17.1-.25h-42c-7.39,0-14.91-.29-22.28.24a.42.42,0,0,0,0,.84h0c1.2,2.89,3.36,5.42,5.16,7.95a83,83,0,0,0,5.27,7.2,81,81,0,0,0-5.27,7.2c-1.8,2.53-4,5.06-5.16,8h0a.42.42,0,0,0,0,.84c7.18.51,14.5.23,21.71.24h42c5.75,0,11.89.57,17.62-.25,0,1.3,0,2.58,0,3.85-.15,5.65.25,11.65-1,17.19-.79,3.5-2.2,7.17-4.76,9.77-3.2,3.26-7.55,2.36-11.48,1.11A32.62,32.62,0,0,1,46.25,98.07a19.87,19.87,0,0,0,6.78.22.49.49,0,0,0,0-1h-.18a72,72,0,0,1-14.49-10,.57.57,0,0,0-.22-.11.55.55,0,0,0-.78.59,71.38,71.38,0,0,1,.72,17.58l-.1.18c-.23.46.39,1,.77.59a29.27,29.27,0,0,0,2.16-3.3,15.56,15.56,0,0,0,1.26-2.43c.56,1.82,1.91,3.26,3,4.8a64.08,64.08,0,0,0,3.93,5.18,34,34,0,0,0,11.13,7.74c8.9,4.17,20.4,4.85,23.41,15.85a.6.6,0,0,0,.8.4.6.6,0,0,0,.79-.4c3-11,14.51-11.68,23.41-15.85a33.85,33.85,0,0,0,11.13-7.74,64.08,64.08,0,0,0,3.93-5.18c1.11-1.54,2.47-3,3-4.8a15.56,15.56,0,0,0,1.26,2.43,29.34,29.34,0,0,0,2.17,3.3c.36.46,1-.12.76-.59a1.62,1.62,0,0,0-.1-.18,71.87,71.87,0,0,1,.72-17.58.55.55,0,0,0-.78-.59.53.53,0,0,0-.21.11,72.71,72.71,0,0,1-14.5,10h-.18a.49.49,0,0,0,0,1,19.87,19.87,0,0,0,6.78-.22,32.66,32.66,0,0,1-18.21,15.41c-3.72,1.19-8.08,2.17-11.2-.84-2.72-2.62-4.23-6.42-5-10-1.24-5.55-.85-11.54-1-17.19,0-1.27,0-2.55,0-3.84,5.55.78,11.48.24,17.06.24h42c7.4,0,14.91.28,22.29-.24A.42.42,0,0,0,168.51,80.72ZM98.68,63.29A.73.73,0,0,0,99,63c.13-.17.23-.34.35-.52a.42.42,0,0,0,.09.14c-.26.33-.51.67-.75,1A.55.55,0,0,0,98.68,63.29Zm.58,13a.61.61,0,0,0,.23.15.82.82,0,0,0,.23.44c0,.09-.09.17-.13.25a.83.83,0,0,0-.47-.61C99.17,76.45,99.21,76.37,99.26,76.29Zm.28-6.43a.45.45,0,0,0-.21-.1l.37-.57c.19-.22.36-.45.54-.68l-.19.33a.59.59,0,0,0-.09.24Zm-5.72-.68c-.37.72-.72,1.44-1,2.18h0a.87.87,0,0,0-.14-.27c.27-.5.53-1,.78-1.52l0,0a.57.57,0,0,0,.23-.16ZM91.31,50.93a.51.51,0,0,0-.24,0s0-.07,0-.1l.48,0ZM87.42,54.1l-.11.16a.38.38,0,0,0,.15.58l0,0-.23.3c0-.5,0-1,0-1.51l.13,0A.53.53,0,0,0,87.42,54.1Zm0,3.68-.21.49c0-.13,0-.26,0-.39A.5.5,0,0,0,87.39,57.78Zm.77,2.34Zm.89.07c.28-.34.55-.68.81-1a.82.82,0,0,0,.06.27c-.08.15-.16.31-.23.48a3.13,3.13,0,0,0-.47.75,4.25,4.25,0,0,0-.46-.27A.59.59,0,0,0,89.05,60.19Zm2.3,4.72a.65.65,0,0,0,.51-.17h.06c-.23.21-.44.42-.65.63C91.3,65.22,91.33,65.06,91.35,64.91ZM87.16,75.82c0-.14,0-.29,0-.43a.52.52,0,0,0,.21,0,2.67,2.67,0,0,1-.09.26A1.39,1.39,0,0,0,87.16,75.82ZM87,72.4c0-.11,0-.21,0-.32l.08,0C87.07,72.2,87.06,72.3,87,72.4Zm-.26-3c0-.07,0-.15,0-.22l.15,0ZM94,79.45c0,.07-.07.14-.12.22a.66.66,0,0,0-.07.6h-.57C93.49,80,93.75,79.71,94,79.45Zm13.94.84a.46.46,0,0,0,.16-.07.44.44,0,0,0,0,.25h-.38Zm-1.11-11.06.74-1.27.15.07Zm3.22,3,.44-.85a.71.71,0,0,0,.58-.34l.16-.24-.62,1.12a.64.64,0,0,0-.29.19,2.09,2.09,0,0,0-.14.17Zm3,3.74c-.15.29-.29.58-.42.89a.65.65,0,0,0-.06.26l-.39.7a.25.25,0,0,0-.12,0,.55.55,0,0,0-.27-.12l.24-.38C112.38,76.87,112.72,76.42,113.05,76Zm-.59-20.89c.15-.19.3-.38.47-.57l0,0a.76.76,0,0,0,.09.18l-.53.54v0A1,1,0,0,0,112.46,55.08Zm5.34.2c.31-.18.6-.36.89-.55-.22.3-.43.61-.64.91a.66.66,0,0,0-.24-.23A.53.53,0,0,0,117.8,55.28Zm2.72,17.88-1.42,2.13A.62.62,0,0,0,119,75l0-.08C119.54,74.34,120,73.74,120.52,73.16Zm-1.22-.45.07-.11a.78.78,0,0,0,.57.24l-.32.28A.69.69,0,0,0,119.3,72.71Zm3.19-5.78a15.59,15.59,0,0,0,1.28-2.18l.08,0-.09.14a21.91,21.91,0,0,0-1,1.94A.62.62,0,0,0,122.49,66.93Zm1.69-13.54a.82.82,0,0,0-.27-.22l.52-.4a.44.44,0,0,0,.13.14C124.43,53.06,124.31,53.23,124.18,53.39Zm32,3.58,0,0a.71.71,0,0,0-.18.27q-.56.77-1.08,1.56l-.05,0a27.3,27.3,0,0,0,1.61-3.08,1.08,1.08,0,0,0,.51.29C156.67,56.33,156.41,56.65,156.17,57Zm-9.43,20.56a1.31,1.31,0,0,0-.29.34.53.53,0,0,0-.11-.21l.51-1a3.75,3.75,0,0,0-.14.6A.41.41,0,0,0,146.74,77.53Zm-.3-22.06c.18-.36.36-.72.55-1.08a1,1,0,0,0,.15.2C146.9,54.87,146.66,55.17,146.44,55.47ZM147.5,59l.24-.3c-.25.49-.5,1-.74,1.47l-.08-.08C147.12,59.69,147.31,59.33,147.5,59ZM143.35,74.2l0,0a.44.44,0,0,0,.3,0c-.55.9-1.08,1.81-1.6,2.74l-.37.64a.63.63,0,0,0-.28.08C142.12,76.49,142.75,75.35,143.35,74.2Zm-2.11-9.43,0,0c.16-.34.33-.67.49-1l.15.07C141.63,64.17,141.44,64.47,141.24,64.77Zm-2-4-.61.92a.51.51,0,0,0-.24-.17c.28-.42.55-.85.8-1.29l.26-.3c-.07.17-.14.34-.2.52A.58.58,0,0,0,139.22,60.74Zm.41,12.42a.89.89,0,0,0,.32,0l-.1.07c-.16.17-.31.35-.45.53l-.05,0C139.44,73.52,139.53,73.34,139.63,73.16Zm-2.51-4.71s0,0,0,0a.6.6,0,0,0,.25.35c-.22.32-.44.63-.68.94C136.86,69.33,137,68.89,137.12,68.45Zm-1.62-7.14a.71.71,0,0,0-.13.28l0,0a.51.51,0,0,0-.3.06c.1-.21.22-.41.32-.62a27.71,27.71,0,0,0,1.88-2.18C136.66,59.71,136.09,60.51,135.5,61.31Zm-1.61-6.07-.57.89-.09,0,.49-.89Zm-4.29-.43a.8.8,0,0,0,.34-.05l-.83,1C129.28,55.47,129.44,55.14,129.6,54.81Zm4.91-4.15h.13l-.1.05Zm.17,29.79s0,0,0,0h0Zm3-29.79h.09l-.06,0Zm5.05,29.73a.67.67,0,0,0,.14.09h-.23Zm12.69,0h0Zm9.06,0a.8.8,0,0,0,.16.08h-.24Zm-77.21-30a.52.52,0,0,0-.11.1v-.12ZM81.7,57.65a1.09,1.09,0,0,1,0,.18h0l0,0Zm.07-5.08s0,0,0,0l0,0Zm-1-2-.1.09a.88.88,0,0,0-.28,0,.14.14,0,0,1,0-.06l.46-.05ZM70.9,56.81l-.47.6a3,3,0,0,0-.35.58H70a2.3,2.3,0,0,0,.14-.63ZM68.12,67.58,67.6,68c.31-.29.6-.59.9-.89l.13.06Zm.3,7.61-.35.49a.59.59,0,0,0-.17-.41l0,0,.22-.24a.27.27,0,0,0,.21.09ZM57,62.59a2.08,2.08,0,0,0-.11.41l-.44.45a2.19,2.19,0,0,0,.14-.77,1.93,1.93,0,0,0,.38-.19ZM55,78l-.24.25a.72.72,0,0,0-.11-.34l.21-.23A.71.71,0,0,0,55,78Zm-6.68,0c-.1.14-.2.29-.31.43a.54.54,0,0,0-.59-.3h-.12l.13-.14a.8.8,0,0,0,.13-.21.55.55,0,0,0,.18,0l.29-.09A.82.82,0,0,0,48.35,77.94Zm-5.18-5.31-.47.48a.62.62,0,0,0-.65-.33l.17-.25a2.56,2.56,0,0,0,.62,0A2,2,0,0,0,43.17,72.63Zm-5.45-6.47-.26.37a2.6,2.6,0,0,0-.67-1l.27-.32A2.28,2.28,0,0,0,37.72,66.16Zm-7.57,5.38a2,2,0,0,0,.37.28q-.66.92-1.38,1.8l0,0A11,11,0,0,1,30.15,71.54Zm-.24-11.82a5.49,5.49,0,0,0,.35-1l.16.12a2.42,2.42,0,0,0-.1.45v0l-.36.42Zm-6.43-.25c-.14.21-.27.42-.4.63L23,60.05c.06-.31.12-.61.16-.92A2.61,2.61,0,0,0,23.48,59.47Zm-11.8,10a.76.76,0,0,0-.2-.06c.51-.63,1-1.27,1.52-1.92.06.06.11.13.18.19h0a0,0,0,0,0,0,0c-.38.43-.74.87-1.09,1.32A3.1,3.1,0,0,0,11.68,69.44Zm-6.33-16a3.93,3.93,0,0,0-.15.68c0-.08-.09-.16-.14-.24v-.07a.86.86,0,0,0,0-.15ZM3.87,50.61Zm.64,0H4.6l0,0h0A.1.1,0,0,0,4.51,50.63ZM8,59.3s0,.06,0,.09l-.07-.12A.24.24,0,0,0,8,59.3ZM9,60.92a.72.72,0,0,0,.42.4.47.47,0,0,0-.06.15c-.14-.18-.27-.37-.4-.56ZM10.79,77c0,.06,0,.12-.07.17a.64.64,0,0,0-.26.18c-.17.21-.34.4-.51.58a1,1,0,0,0-.16-.25c.22-.32.44-.63.67-.94A2.91,2.91,0,0,0,10.79,77Zm-.95-3.23a4.53,4.53,0,0,0,0,.52,1,1,0,0,0-.05.24H9.17C9.4,74.33,9.62,74.07,9.84,73.81Zm2.43,6.55,0,0h-.1Zm2.07,0v0h0Zm13.57,0,.05.06h-.13Zm1.64-.3a.58.58,0,0,0-.14.36h-.27Zm2.13.34v0h0Zm3.23-.12a.61.61,0,0,0,0,.13H34.7Zm9.15,0h.11l.07.09h-.53Zm7.1.08v0h0Zm9.28-.11h0l.17-.09a.57.57,0,0,0,.07.22h-.43Zm2,0a.35.35,0,0,0-.06.14h-.18A1.88,1.88,0,0,1,62.41,80.33Zm19.12-3,.21-.51v.78A.64.64,0,0,0,81.53,77.36Zm.21,3.31v0h0ZM79.12,68V68l0,.05Zm2.67-17.58,0,0h0Zm-80,.06a.5.5,0,0,0-.08.2l-.2-.22ZM1.5,80.64h0Zm87.59,28.21c1.38,2.76,3.51,5.81,6.62,6.7,3.32,1,7-.13,10.17-1.21a28.74,28.74,0,0,0,10-5.86c3-2.66,6.94-6.58,8.12-10.52a.59.59,0,0,0-.72-.71c-1.2-.06-2.4,0-3.61,0-.62,0-1.25,0-1.87,0,.33-.19.66-.41,1-.64,1.43-.9,3-1.53,4.42-2.4a40.05,40.05,0,0,0,6.92-5.14,39.23,39.23,0,0,0-.62,9c.08,1.52.34,3,.33,4.54,0,.44,0,.84,0,1.22-.34-.51-.7-1-1-1.54-.67-1.06-1.24-2.19-2-3.21a.26.26,0,0,0-.48.2h0a.24.24,0,0,0-.08.11c-1,2.48-3.2,4.72-4.86,6.84a32.35,32.35,0,0,1-6.11,6.15,51.83,51.83,0,0,1-14.19,7.09c-4,1.35-8,2.22-11.37,4.84-2.2,1.72-4.46,4.08-5.37,6.82a15.67,15.67,0,0,0-5.38-6.82c-3.35-2.62-7.43-3.49-11.37-4.84a52,52,0,0,1-14.19-7.09,32,32,0,0,1-6.1-6.15c-1.67-2.12-3.81-4.36-4.87-6.84a.23.23,0,0,0-.07-.11h0a.27.27,0,0,0-.49-.2c-.74,1-1.31,2.15-2,3.21-.32.51-.67,1-1,1.52,0-.25,0-.51,0-.8,0-1.67.23-3.28.32-4.94a37.64,37.64,0,0,0-.62-9,39.92,39.92,0,0,0,6.92,5.14c1.44.87,3,1.5,4.42,2.4.37.23.71.45,1,.64-.63,0-1.26,0-1.88,0-1.21,0-2.42-.11-3.62,0a.59.59,0,0,0-.71.71c1.15,3.81,4.89,7.61,7.78,10.22a28.68,28.68,0,0,0,10,6c3.15,1.09,6.84,2.25,10.19,1.43s5.52-3.92,7-6.8c3-6,3-12.71,3.13-19.29.18-6.74.79-14,0-20.69a.49.49,0,0,0-.24-.73,6.67,6.67,0,0,1-2.6-1.07,3.5,3.5,0,0,1-1.18-3.19c.38-2.13,2.3-2.43,3.82-3.49a.33.33,0,0,0,.13-.33.5.5,0,0,0,.1-.22c.68-2.78.15-6.21.09-9a64.79,64.79,0,0,0-.43-8.59.6.6,0,0,0-.48-.84c-3.81-.5-7.76.09-11.6.11-3.27,0-6.73-.35-10,.16a.56.56,0,0,0-.73,0C58.74,43,57.35,44,55.53,43.41a3.8,3.8,0,0,1-2.28-3.51,3.7,3.7,0,0,1,2.83-3.73,4.36,4.36,0,0,1,4,1.78.69.69,0,0,0,0,.61.68.68,0,0,0,.6.34c3.23.07,6.47.07,9.7.1,4,0,8.3.67,12.18-.21a.24.24,0,0,0,.16-.13.61.61,0,0,0,.18-.26c.59-2,.35-4.37.27-6.44a45.29,45.29,0,0,0-.4-6.48,1.24,1.24,0,0,0-.74-.93c-2.35-1.46-4.86-1.92-6.61-4.46a13,13,0,0,1-2.23-8.19c.49-6.53,5.26-10.43,11.66-10.25,6.24.18,10.68,4.32,10.84,10.7a13.12,13.12,0,0,1-2.58,8.06c-1.87,2.52-4.15,2.41-6.44,4.19-.39.31-.34.66-.35,1.09,0,1.78-.5,4.22-.58,6.27s-.32,4.44.28,6.44a.52.52,0,0,0,.17.26.24.24,0,0,0,.16.13c3.89.88,8.2.25,12.18.21,3.23,0,6.47,0,9.7-.1a.67.67,0,0,0,.63-.95,4.37,4.37,0,0,1,4-1.78,3.7,3.7,0,0,1,2.83,3.73,3.8,3.8,0,0,1-2.28,3.51c-1.82.63-3.2-.41-4.27-1.73a.56.56,0,0,0-.73,0c-3.24-.51-6.71-.15-10-.16-3.84,0-7.79-.61-11.6-.11a.6.6,0,0,0-.48.84,66.53,66.53,0,0,0-.43,8.59c0,2.84-.58,6.25.09,9a.64.64,0,0,0,.1.22.33.33,0,0,0,.13.33c1.5,1,3.49,1.36,3.83,3.49a3.46,3.46,0,0,1-1,3c-.84.85-1.72.87-2.76,1.24a.49.49,0,0,0-.24.73c-.82,6.59-.23,13.7-.06,20.32S86,102.71,89.09,108.85Zm36.23-28.38.69-.7a2.6,2.6,0,0,1-.25.33.58.58,0,0,0-.1.37h-.34Z" class="cls-2"/>
   <rect height="26" width="144" x="12.09" class="cls-2" y="52.36"/>
   <path d="M22.58,56.38h4.71V73.2h8.25v3.94h-13Z" class="cls-3"/>
   <path d="M50.66,68.36H43v4.93h8.53v3.85H38.32V56.38h12.8v3.85H43v4.31h7.63Z" class="cls-3"/>
   <path d="M70,76.55a13.36,13.36,0,0,1-5.33.9C57.5,77.45,53.8,73,53.8,67.07c0-7.08,5.05-11,11.34-11a12.26,12.26,0,0,1,5.11.93l-1,3.72a10.13,10.13,0,0,0-3.94-.77c-3.72,0-6.62,2.25-6.62,6.87,0,4.16,2.46,6.78,6.65,6.78a11.67,11.67,0,0,0,3.91-.68Z" class="cls-3"/>
   <path d="M77.51,60.32H71.94V56.38h16v3.94H82.23V77.14H77.51Z" class="cls-3"/>
   <path d="M95.07,56.38V68.33c0,3.57,1.35,5.39,3.75,5.39s3.82-1.73,3.82-5.39V56.38h4.68V68c0,6.41-3.23,9.46-8.65,9.46-5.24,0-8.32-2.9-8.32-9.52V56.38Z" class="cls-3"/>
   <path d="M111.39,56.66a40.63,40.63,0,0,1,6.25-.43c3.08,0,5.23.46,6.71,1.63a5.28,5.28,0,0,1,1.91,4.34,5.5,5.5,0,0,1-3.67,5.11v.1c1.45.58,2.25,2,2.77,3.88.65,2.34,1.3,5,1.7,5.85h-4.81a26.56,26.56,0,0,1-1.44-4.84c-.56-2.58-1.45-3.29-3.36-3.32H116v8.16h-4.64ZM116,65.59h1.85c2.34,0,3.73-1.17,3.73-3s-1.29-2.86-3.45-2.89a12.1,12.1,0,0,0-2.13.15Z" class="cls-3"/>
   <path d="M134.76,71.81l-1.48,5.33h-4.87l6.35-20.76h6.15l6.44,20.76h-5l-1.6-5.33ZM140,68.3l-1.29-4.4c-.37-1.24-.74-2.77-1-4h-.06c-.31,1.24-.62,2.81-1,4l-1.23,4.4Z" class="cls-3"/>
  </g>
 </g>
</svg>
