<?xml version='1.0' encoding='utf-8'?>
<!-- Generator: Adobe Illustrator 23.0.1, SVG Export Plug-In . SVG Version: 6.00 Build 0)  -->
<svg xmlns="http://www.w3.org/2000/svg" id="Capa_1" x="0px" viewBox="0 0 164.2 163.1" style="enable-background:new 0 0 164.2 163.1;" y="0px" xmlns:xlink="http://www.w3.org/1999/xlink" xml:space="preserve" version="1.1">
 <style type="text/css">
	.st0{opacity:0.4;fill:#273A53;}
	.st1{opacity:0.9;fill:#273A53;}
	.st2{fill:#273A53;}
	.st3{fill:#273A53;stroke:#273A53;stroke-width:0.63;stroke-miterlimit:10;}
	.st4{fill:none;stroke:#273A53;stroke-width:0.63;stroke-miterlimit:10;}
	.st5{fill:#FFFFFF;}
</style>
 <g>
  <g id="Capa_1-2">
   <circle cy="81.4" class="st0" r="37.5" cx="82.4"/>
   <path d="M40.6,82c-0.2,2.3-0.1,4.6,0.1,6.8c0.3,2.2,0.8,4.3,1.5,6.4c1.4,4.2,3.4,8.1,6,11.6&#xa;&#x9;&#x9;&#x9;c5.1,7,12.3,12.2,20.5,14.8c17.1,5.4,36.5-1.3,47.4-15.3c5.6-7.1,8.7-15.8,8.9-24.8c0-7.7-2.3-15.2-6.6-21.6&#xa;&#x9;&#x9;&#x9;c-4.5-7-10.8-12.7-18.3-16.3c-8.4-3.9-17.7-5-26.8-3.1c-8.5,1.7-16.3,5.9-22.3,12.2C45.2,59,41.5,67,40.4,75.6&#xa;&#x9;&#x9;&#x9;c-0.3,2.1-0.4,4.3-0.3,6.5c0.1,0.7,0.7,1.2,1.3,1.1c0.6-0.1,1.1-0.5,1.1-1.1c0-8.2,2.4-16.1,6.9-22.9c4.6-6.6,11.1-11.6,18.6-14.4&#xa;&#x9;&#x9;&#x9;c16.1-6.1,34.3-1.2,45.1,12.2c4.7,5.4,7.8,12,9,19.1c1.1,8.2-0.5,16.4-4.6,23.6c-8.2,14.5-25.3,23.4-41.9,21.1&#xa;&#x9;&#x9;&#x9;c-8.2-1.2-15.7-5.1-21.5-11c-5.7-6-9.5-13.4-11.1-21.5c-0.5-2-0.8-4.1-1.1-6.2c0-0.4-0.4-0.7-0.8-0.6C40.9,81.4,40.6,81.7,40.6,82&#xa;&#x9;&#x9;&#x9;z" class="st1"/>
   <path d="M35.8,82.1c-0.2,2.5-0.1,5,0.2,7.5c0.3,2.5,0.9,4.9,1.7,7.2c1.5,4.6,3.8,9,6.7,12.9&#xa;&#x9;&#x9;&#x9;c5.7,7.8,13.7,13.6,22.9,16.5c19,5.9,40.5-1.6,52.7-17.2c6.2-7.9,9.7-17.5,9.8-27.5c0-8.5-2.5-16.8-7.2-23.9&#xa;&#x9;&#x9;&#x9;c-5-7.9-12.1-14.2-20.5-18.3c-9.3-4.3-19.7-5.5-29.7-3.5c-9.5,1.8-18.2,6.6-24.8,13.6c-6.5,7-10.7,15.8-11.9,25.3&#xa;&#x9;&#x9;&#x9;c-0.3,2.4-0.4,4.9-0.4,7.3c0.1,0.7,0.7,1.2,1.3,1.1c0.6-0.1,1.1-0.5,1.1-1.1c0-9.2,2.7-18.1,7.8-25.8c5.2-7.4,12.5-13,21-16.1&#xa;&#x9;&#x9;&#x9;c9.1-3.3,19.1-3.7,28.4-1c8.6,2.7,16.2,7.8,21.9,14.8c5.2,6.1,8.7,13.6,10,21.5c1.2,9.2-0.6,18.5-5.2,26.5&#xa;&#x9;&#x9;&#x9;c-9.1,16.2-28.2,26-46.7,23.5c-9.2-1.3-17.7-5.6-24.2-12.3C44.4,106.5,40,98.1,38.3,89c-0.5-2.3-0.9-4.6-1.2-6.9&#xa;&#x9;&#x9;&#x9;c0-0.4-0.4-0.7-0.8-0.6C36.1,81.5,35.9,81.7,35.8,82.1z" class="st2"/>
   <path d="M32.2,82.1c-0.2,2.7-0.1,5.5,0.3,8.2c0.4,2.6,1,5.1,1.8,7.6c1.6,5,4,9.6,7.1,13.8&#xa;&#x9;&#x9;&#x9;c6.1,8.4,14.7,14.7,24.7,17.9c20.4,6.4,43.5-1.6,56.6-18.3c6.7-8.4,10.5-18.9,10.7-29.7c0-9.2-2.7-18.2-7.8-25.9&#xa;&#x9;&#x9;&#x9;c-5.3-8.4-12.9-15.2-21.8-19.6c-10-4.7-21.2-6-32.1-3.8c-10.3,2-19.6,7.1-26.8,14.7c-7,7.5-11.5,17-12.8,27.2&#xa;&#x9;&#x9;&#x9;c-0.3,2.6-0.5,5.2-0.4,7.8c0.1,0.7,0.7,1.2,1.3,1.1c0.6-0.1,1.1-0.5,1.1-1.1c-0.1-9.9,2.9-19.7,8.5-27.9&#xa;&#x9;&#x9;&#x9;c5.6-7.9,13.4-13.9,22.5-17.2c9.9-3.7,20.7-4,30.8-1.1c9.2,2.9,17.4,8.4,23.6,15.9c5.7,6.6,9.4,14.7,10.8,23.3&#xa;&#x9;&#x9;&#x9;c1.3,9.9-0.7,19.9-5.7,28.6c-9.9,17.4-30.6,28.1-50.5,25.2c-9.9-1.5-19-6.1-26-13.3c-6.9-7.2-11.5-16.2-13.4-25.9&#xa;&#x9;&#x9;&#x9;c-0.6-2.5-1-5-1.2-7.6c0-0.4-0.3-0.7-0.7-0.7S32.2,81.7,32.2,82.1L32.2,82.1z" class="st2"/>
   <path d="M81.5,35.5c-1.4,0-2.6,1-3,2.3c-0.2,0.7-0.1,1.5,0.2,2.1c0.3,0.6,0.9,1,1.5,1.3c1.2,0.5,2.6,0.3,3.5-0.7&#xa;&#x9;&#x9;&#x9;c0.9-1,1.1-2.5,0.5-3.7c-0.6-1.2-2.1-1.3-3.3-1.3c-0.5-0.2-1.1,0.1-1.2,0.7c-0.2,0.5,0.1,1.1,0.7,1.2c0.2,0.1,0.4,0.1,0.6,0h0.6&#xa;&#x9;&#x9;&#x9;h0.2h0.1c-0.3,0-0.1,0,0,0c0.2,0,0.3,0.1,0.5,0.1c-0.3-0.1-0.1,0,0,0s0.1,0.1-0.1-0.1c0,0,0.1,0.1,0.1,0.1l0.1,0.1&#xa;&#x9;&#x9;&#x9;c0.1,0.1-0.1-0.2,0-0.1l0.1,0.1c0,0.1,0,0.2,0-0.1c0,0.1,0.1,0.2,0.1,0.3v0.1c0,0.2,0-0.2,0,0v0.3c0,0.1-0.1,0.2,0,0&#xa;&#x9;&#x9;&#x9;c0,0,0,0.1,0,0.1c0,0.1,0,0.2-0.1,0.3c0,0.1-0.1,0.2,0,0c0,0.1-0.1,0.1-0.1,0.2s-0.1,0.1-0.1,0.2c0.1-0.2,0.1-0.1,0,0l-0.1,0.1&#xa;&#x9;&#x9;&#x9;c-0.1,0.1-0.2,0.1,0,0c0,0-0.1,0.1-0.1,0.1l-0.1,0c-0.2,0.1,0.2,0,0,0c-0.1,0-0.2,0-0.3,0.1c0.2-0.1,0.2,0,0,0h-0.4&#xa;&#x9;&#x9;&#x9;c-0.1,0-0.2-0.1,0,0H81l-0.2-0.1l-0.2-0.1c0.2,0.1,0.1,0.1,0,0c-0.1,0-0.2-0.1-0.3-0.2c-0.1-0.1,0.1,0,0.1,0s-0.1-0.1-0.2-0.1&#xa;&#x9;&#x9;&#x9;s0-0.1,0,0c0,0-0.1-0.1-0.1-0.1c-0.1-0.1,0-0.2,0,0v-0.1c0,0,0-0.1,0-0.1c0-0.2,0,0.2,0,0v-0.4c0-0.2,0,0.2,0,0c0-0.1,0-0.1,0-0.2&#xa;&#x9;&#x9;&#x9;c0,0,0-0.1,0-0.2c0,0,0-0.1,0-0.1c-0.1,0.2-0.1,0.2,0,0.1c0.1-0.1,0.1-0.2,0.2-0.3c0-0.1,0.1,0-0.1,0.1c0.1,0,0.1-0.1,0.1-0.2&#xa;&#x9;&#x9;&#x9;l0.1-0.1l0.1-0.1l-0.1,0l0.3-0.2c0.2-0.1-0.2,0.1,0,0l0.2-0.1c0.1,0,0.1,0,0.2,0c-0.2,0-0.2,0-0.1,0h0.1c0.6,0,1-0.4,1-1&#xa;&#x9;&#x9;&#x9;s-0.4-1-1-1L81.5,35.5z" class="st2"/>
   <path d="M81.5,121.6c-1.4,0-2.6,1-3,2.3c-0.2,0.7-0.1,1.5,0.2,2.1c0.3,0.6,0.9,1,1.5,1.3c1.2,0.5,2.6,0.3,3.5-0.7&#xa;&#x9;&#x9;&#x9;c0.9-1,1.1-2.5,0.5-3.7c-0.6-1.2-2.1-1.3-3.3-1.3c-0.5,0.1-0.8,0.7-0.7,1.2c0.1,0.3,0.4,0.6,0.7,0.7h0.8h0.1c-0.3,0-0.1,0,0,0&#xa;&#x9;&#x9;&#x9;c0.2,0,0.3,0.1,0.5,0.1c-0.3-0.1-0.1,0,0,0s0.1,0.1-0.1,0l0.1,0.1l0.1,0.1c0.1,0.1-0.1-0.2,0-0.1l0.1,0.1c0,0.1,0,0.2,0-0.1&#xa;&#x9;&#x9;&#x9;c0,0.1,0.1,0.2,0.1,0.3v0.1c0,0.2,0-0.2,0,0v0.3c0,0.1-0.1,0.2,0,0c0,0,0,0.1,0,0.1c0,0.1,0,0.2-0.1,0.3c0,0.1-0.1,0.2,0,0&#xa;&#x9;&#x9;&#x9;c0,0.1-0.1,0.1-0.1,0.2s-0.1,0.1-0.1,0.2c0.1-0.2,0.1-0.1,0,0l-0.1,0.1c-0.1,0.1-0.2,0.1,0,0c0,0-0.1,0.1-0.1,0.1l-0.1,0.1&#xa;&#x9;&#x9;&#x9;c-0.2,0.1,0.2,0,0,0c-0.1,0-0.2,0-0.3,0.1c0.2-0.1,0.2,0,0,0h-0.4c-0.1,0-0.2-0.1,0,0H81l-0.2-0.1l-0.2-0.1c0.2,0.1,0.1,0.1,0,0&#xa;&#x9;&#x9;&#x9;l-0.3-0.2c-0.1-0.1,0.1,0,0.1,0.1c0-0.1-0.1-0.1-0.2-0.1c-0.1-0.1,0-0.1,0,0l-0.1-0.1c-0.1-0.1,0-0.2,0,0v-0.1c0,0,0-0.1,0-0.1&#xa;&#x9;&#x9;&#x9;c0-0.2,0,0.2,0,0v-0.4c0-0.2,0,0.2,0,0c0-0.1,0.1-0.2,0.1-0.3c0,0,0-0.1,0-0.1c-0.1,0.1-0.1,0.2,0,0.1c0.1-0.1,0.1-0.2,0.2-0.3&#xa;&#x9;&#x9;&#x9;c0-0.1,0.1,0-0.1,0.1c0.1,0,0.1-0.1,0.1-0.2l0.1-0.1l0.1-0.1c-0.1,0.1-0.1,0.1-0.1,0.1l0.3-0.2c0.2-0.1-0.2,0.1,0,0l0.2-0.1&#xa;&#x9;&#x9;&#x9;c0.1,0,0.1,0,0.2,0c-0.2,0-0.2,0-0.1,0h0.1c0.5-0.1,0.8-0.7,0.7-1.2c-0.1-0.3-0.4-0.6-0.7-0.7L81.5,121.6z" class="st2"/>
   <path d="M48.9,49c-0.8,0.8-1.1,2.1-0.7,3.2c0.4,1.2,1.6,2.1,2.8,2c1.4-0.1,2.5-1.1,2.9-2.4c0.2-1.4-0.4-2.7-1.6-3.4&#xa;&#x9;&#x9;&#x9;c-0.7-0.4-1.5-0.5-2.3-0.2c-0.6,0.3-1.2,0.7-1.7,1.3c-0.3,0.5-0.1,1.1,0.4,1.4c0.3,0.2,0.7,0.2,1,0c0.2-0.2,0.3-0.3,0.5-0.5&#xa;&#x9;&#x9;&#x9;l0.1-0.1c0.1-0.1,0.2-0.1,0,0c0.1,0,0.2-0.1,0.3-0.2l0.1-0.1c0.1,0,0.2,0,0,0l0.3-0.1c-0.2,0.1-0.2,0-0.1,0h0.2&#xa;&#x9;&#x9;&#x9;c0.1,0,0.1,0.1-0.1,0h0.2c0.2,0-0.2-0.1,0,0l0.2,0.1l0.1,0.1c0.2,0.1-0.1-0.1,0,0c0.1,0.1,0.2,0.1,0.2,0.2c0,0,0.1,0.1,0.1,0.1&#xa;&#x9;&#x9;&#x9;c-0.1-0.1-0.1-0.2-0.1-0.1l0.1,0.1l0.1,0.2c0,0.1,0.1,0.2,0,0c0,0,0,0.1,0,0.1l0.1,0.3c0,0.2,0-0.2,0,0v0.3c0,0.2,0-0.2,0-0.1&#xa;&#x9;&#x9;&#x9;s-0.1,0.2-0.1,0.3l0-0.1c0,0,0,0.1,0,0.1l-0.1,0.1c0,0-0.1,0.1-0.1,0.1c0.1-0.1,0.1-0.1,0-0.1L52,51.6l-0.2,0.2l0,0l0.1,0&#xa;&#x9;&#x9;&#x9;c0,0-0.1,0-0.1,0.1c-0.1,0-0.2,0.1-0.3,0.2s-0.1,0-0.2,0.1h0.1h-0.1h-0.2c-0.1,0-0.2,0,0,0h-0.3h-0.2l0,0h0.1c0,0-0.1-0.1-0.2-0.1&#xa;&#x9;&#x9;&#x9;L50.5,52c-0.2-0.1,0.2,0.2,0,0l-0.2-0.2c0-0.1-0.1-0.2,0,0c0,0-0.1-0.1-0.1-0.1c0-0.1-0.1-0.2-0.1-0.2s0-0.2,0,0.1&#xa;&#x9;&#x9;&#x9;c0,0,0-0.1-0.1-0.2c0-0.1-0.1-0.2-0.1-0.3c0-0.2,0,0.1,0,0.1s0-0.2,0-0.2s0-0.2,0-0.3c0,0.3,0,0.2,0,0.1c0-0.1,0-0.1,0-0.2&#xa;&#x9;&#x9;&#x9;c0,0,0-0.1,0-0.1c0-0.1,0.1-0.2,0,0c0-0.1,0.1-0.2,0.2-0.3s0.1-0.1,0,0l0.1-0.1c0.1-0.5-0.3-1.1-0.8-1.2&#xa;&#x9;&#x9;&#x9;C49.2,48.9,49.1,49,48.9,49z" class="st2"/>
   <path d="M109.8,109.9c-0.8,0.8-1.1,2.1-0.7,3.2c0.4,1.2,1.6,2.1,2.8,2c1.4-0.1,2.5-1.1,2.9-2.5&#xa;&#x9;&#x9;&#x9;c0.2-1.4-0.4-2.7-1.6-3.4c-0.7-0.4-1.5-0.5-2.2-0.2c-0.6,0.3-1.2,0.7-1.7,1.3c-0.3,0.5-0.1,1.1,0.4,1.4c0.3,0.2,0.7,0.2,1,0&#xa;&#x9;&#x9;&#x9;c0.2-0.2,0.3-0.3,0.5-0.5c0,0,0.1-0.1,0.1-0.1c0.1-0.1,0.2-0.1,0,0c0.1,0,0.2-0.1,0.3-0.2l0.1-0.1c0.1,0,0.2,0,0,0l0.3-0.1&#xa;&#x9;&#x9;&#x9;c-0.2,0.1-0.2,0-0.1,0h0c0.1,0,0.1,0.1,0,0h0.2c0.2,0-0.2-0.1,0,0l0.2,0.1l0.1,0.1c0.2,0.1-0.1-0.1,0,0c0.1,0.1,0.2,0.1,0.2,0.2&#xa;&#x9;&#x9;&#x9;c0,0,0.1,0.1,0.1,0.1c-0.1-0.1-0.1-0.2-0.1-0.1l0.1,0.1l0.1,0.2c0,0.1,0.1,0.2,0,0c0,0,0,0.1,0,0.1s0.1,0.2,0.1,0.3s0-0.2,0-0.1&#xa;&#x9;&#x9;&#x9;v0.3c0,0.2,0-0.2,0-0.1s-0.1,0.2-0.1,0.3l0.1-0.1c0,0,0,0.1-0.1,0.1l-0.1,0.1c0,0-0.1,0.1-0.1,0.1l0.1-0.1c0,0,0,0-0.1,0.1&#xa;&#x9;&#x9;&#x9;c-0.1,0.1-0.1,0.2-0.2,0.2l0,0l0.1-0.1l-0.1,0.1c-0.1,0.1-0.2,0.1-0.3,0.2l-0.2,0.1c0.2-0.1,0.2-0.1,0.1,0h-0.1h-0.2&#xa;&#x9;&#x9;&#x9;c-0.1,0-0.2,0,0,0h-0.2h-0.2l0,0h0.1c0,0-0.1-0.1-0.2-0.1h-0.1c-0.2-0.1,0.2,0.2,0,0l-0.2-0.2c-0.1-0.1-0.1-0.2,0,0.1&#xa;&#x9;&#x9;&#x9;c0,0-0.1-0.1-0.1-0.1c0-0.1-0.1-0.2-0.1-0.2s0-0.2,0,0.1c0-0.1,0-0.1-0.1-0.2c0-0.1-0.1-0.2-0.1-0.3c0-0.2,0,0.1,0,0.1&#xa;&#x9;&#x9;&#x9;s0-0.1,0-0.2s0-0.2,0-0.3c0,0.3,0,0.2,0,0.1c0-0.1,0-0.1,0-0.2c0,0,0-0.1,0-0.1s0.1-0.2,0,0c0-0.1,0.1-0.2,0.2-0.3s0.1-0.1,0,0.1&#xa;&#x9;&#x9;&#x9;l0.1-0.1c0.3-0.5,0.1-1.1-0.4-1.4c-0.3-0.2-0.7-0.2-1,0L109.8,109.9z" class="st2"/>
   <path d="M112.8,50.3L112.8,50.3C113,50.5,112.7,50.2,112.8,50.3c0.2,0.2,0.2,0.2,0.2,0.3s0.1,0.2,0-0.1&#xa;&#x9;&#x9;&#x9;c0,0,0,0.1,0,0.1s0.1,0.2,0.1,0.3s0,0.2,0-0.1c0,0,0,0.1,0,0.1v0.3c0,0,0,0.1,0,0.1c0-0.3,0-0.2,0-0.1s0,0.2-0.1,0.3&#xa;&#x9;&#x9;&#x9;c0,0,0,0.1,0,0.1c0.1-0.3,0.1-0.1,0-0.1c0,0.1-0.1,0.1-0.1,0.2c0,0,0,0.1-0.1,0.1c-0.1,0.2,0.2-0.2,0,0s-0.2,0.2-0.2,0.2&#xa;&#x9;&#x9;&#x9;s0.2-0.1,0.1,0l-0.1,0.1l-0.1,0.1c-0.2,0.1,0.2-0.1,0,0h-0.2c-0.2,0.1,0.2,0,0,0H112c0.3,0,0.1,0,0,0h-0.2l-0.2,0l0.1,0h-0.1&#xa;&#x9;&#x9;&#x9;l-0.3-0.2l-0.1-0.1c-0.1-0.1-0.1,0,0.1,0l-0.1-0.1c-0.1-0.1-0.2-0.1-0.2-0.2l-0.1-0.1c0.1,0.1,0.1,0.1,0,0s-0.1-0.2-0.1-0.3&#xa;&#x9;&#x9;&#x9;c0.1,0.2,0.1,0.2,0,0s0-0.1-0.1-0.2s0,0.2,0,0.1s0-0.1,0-0.2c0,0,0-0.1,0-0.1c0-0.1,0-0.2,0,0c0-0.1,0-0.2,0.1-0.3&#xa;&#x9;&#x9;&#x9;c0,0,0-0.1,0-0.2c0.1-0.2-0.1,0.2,0,0l0.1-0.2c0,0,0.1-0.1,0.1-0.1c-0.1,0.2-0.1,0.1,0,0c0.1-0.1,0.1-0.2,0.2-0.2l0,0l0,0&#xa;&#x9;&#x9;&#x9;c0,0,0.1-0.1,0.2-0.1l0.2-0.1c0.1,0,0.1,0-0.1,0h0.1c0,0,0.1,0,0.2,0h0.2c0.2,0-0.3,0,0,0h0.1c0.2,0-0.2-0.1,0,0l0.3,0.2l0.1,0.1&#xa;&#x9;&#x9;&#x9;c-0.2-0.2,0,0,0,0c0.2,0.2,0.4,0.4,0.6,0.6c0.5,0.3,1.1,0.1,1.4-0.4c0.2-0.3,0.2-0.7,0-1c-0.4-0.4-0.9-0.8-1.4-1.1&#xa;&#x9;&#x9;&#x9;c-0.6-0.3-1.3-0.4-2-0.2c-1.3,0.5-2.1,1.8-2.1,3.2c0.1,1.4,1.1,2.5,2.4,2.9c0.7,0.2,1.4,0.1,2.1-0.2c0.5-0.3,0.9-0.7,1.2-1.2&#xa;&#x9;&#x9;&#x9;c0.6-1.2,0.4-2.7-0.5-3.7c-0.5-0.3-1.1-0.1-1.4,0.4C112.6,49.7,112.6,50,112.8,50.3L112.8,50.3z" class="st2"/>
   <path d="M51.8,111.2L51.8,111.2C52,111.5,51.8,111.1,51.8,111.2c0.2,0.3,0.2,0.2,0.2,0.3s0.1,0.2,0-0.1&#xa;&#x9;&#x9;&#x9;c0,0,0,0.1,0,0.1s0,0.2,0.1,0.3s0,0.2,0-0.1c0,0,0,0.1,0,0.1v0.3c0,0,0,0.1,0,0.1c0-0.3,0-0.2,0-0.1s0,0.2-0.1,0.3&#xa;&#x9;&#x9;&#x9;c0,0,0,0.1,0,0.1c0.1-0.3,0.1-0.1,0-0.1c0,0.1-0.1,0.1-0.1,0.2c0,0,0,0.1-0.1,0.1c-0.1,0.2,0.2-0.2,0-0.1s-0.2,0.2-0.2,0.2&#xa;&#x9;&#x9;&#x9;s0.2-0.1,0.1,0l-0.1,0.1l-0.1,0.1c-0.2,0.1,0.2-0.1,0,0h-0.2c-0.2,0.1,0.2,0,0,0H51c0.3,0,0.1,0,0,0h-0.2l-0.2-0.1l0.1,0.1h-0.1&#xa;&#x9;&#x9;&#x9;l-0.3-0.2l-0.1-0.1c-0.1-0.1-0.1,0,0.1,0.1c0,0-0.1,0-0.1-0.1c-0.1-0.1-0.2-0.1-0.2-0.2l-0.1-0.1c0.1,0.1,0.1,0.1,0,0&#xa;&#x9;&#x9;&#x9;s-0.1-0.2-0.1-0.3c0.1,0.2,0.1,0.2,0,0s0-0.1,0-0.2s0,0.2,0,0.1s0-0.1,0-0.2V112c0-0.1,0.1-0.2,0,0c0-0.1,0-0.2,0.1-0.3&#xa;&#x9;&#x9;&#x9;c0,0,0-0.1,0-0.2c0-0.2-0.1,0.2,0,0l0.1-0.2c0,0,0.1-0.1,0.1-0.1c-0.1,0.2-0.1,0.1,0,0c0.1-0.1,0.1-0.2,0.2-0.2l0,0l0,0&#xa;&#x9;&#x9;&#x9;c0.1,0,0.1-0.1,0.2-0.1l0.2-0.1h-0.1h0.1c0,0,0.1,0,0.2,0h0.1c0.2,0-0.3-0.1,0,0h0.1c0.2,0-0.2-0.1,0,0l0.3,0.2l0.1,0.1&#xa;&#x9;&#x9;&#x9;c-0.2-0.2,0,0,0,0c0.2,0.2,0.4,0.4,0.6,0.6c0.5,0.3,1.1,0.1,1.4-0.4c0.2-0.3,0.2-0.7,0-1c-0.4-0.4-0.9-0.8-1.4-1.1&#xa;&#x9;&#x9;&#x9;c-0.6-0.4-1.3-0.4-2-0.2c-1.3,0.5-2.2,1.7-2.2,3.1c0.1,1.4,1.1,2.5,2.4,2.9c0.7,0.2,1.4,0.1,2.1-0.2c0.5-0.3,0.9-0.7,1.2-1.2&#xa;&#x9;&#x9;&#x9;c0.6-1.2,0.4-2.7-0.5-3.7c-0.5-0.3-1.1-0.1-1.4,0.4c-0.2,0.3-0.2,0.7,0,1L51.8,111.2z" class="st2"/>
   <path d="M36,81.6c0,1.4,1,2.6,2.3,3c0.7,0.2,1.5,0.1,2.1-0.2c0.6-0.3,1-0.9,1.3-1.5c0.5-1.2,0.3-2.6-0.6-3.5&#xa;&#x9;&#x9;&#x9;c-1-0.9-2.5-1.1-3.8-0.5C36.1,79.6,36,81,36,82.2c0.1,0.5,0.7,0.8,1.2,0.7c0.3-0.1,0.6-0.4,0.7-0.7c0-0.2,0-0.4,0-0.6s0-0.2,0-0.2&#xa;&#x9;&#x9;&#x9;c0,0,0-0.1,0-0.1c0,0.3,0,0.1,0,0c0-0.2,0.1-0.3,0.1-0.5c-0.1,0.3,0,0.1,0,0s0.1-0.2,0,0.1l0.1-0.1l0.1-0.1c0.1-0.1-0.2,0.1-0.1,0&#xa;&#x9;&#x9;&#x9;l0.1-0.1c0.1-0.1,0.2,0-0.1,0c0.1,0,0.2-0.1,0.3-0.1h0.1c0.2,0-0.2,0,0,0c0.1,0,0.2,0,0.3,0c0.1,0,0.2,0.1,0,0h0.1&#xa;&#x9;&#x9;&#x9;c0.1,0,0.2,0.1,0.3,0.1c0.1,0,0.2,0.1,0,0l0.2,0.1c0.1,0,0.1,0.1,0.2,0.1c-0.2-0.1-0.1-0.1,0,0l0.1,0.1c0.1,0.1,0.1,0.2,0,0L40,81&#xa;&#x9;&#x9;&#x9;v0c0.1,0.2,0-0.2,0,0s0,0.2,0.1,0.3c-0.1-0.2,0-0.2,0-0.1v0.1c0,0.1,0,0.2,0,0.3s-0.1,0.2,0,0c0,0.1,0,0.1,0,0.2&#xa;&#x9;&#x9;&#x9;c0,0.1,0,0.2-0.1,0.3c0,0,0,0.1,0,0.1c0.1-0.2,0-0.1,0,0c0,0.1-0.1,0.2-0.2,0.3c-0.1,0.1,0-0.1,0.1-0.1c-0.1,0-0.1,0.1-0.1,0.2&#xa;&#x9;&#x9;&#x9;c-0.1,0.1-0.1,0,0,0l-0.1,0.1c-0.1,0.1-0.2,0,0,0h-0.1h-0.1c-0.2,0,0.2,0,0,0H39c-0.2,0,0.2,0,0,0h-0.2l-0.2-0.1h-0.1h0.1&#xa;&#x9;&#x9;&#x9;l-0.3-0.2c-0.1-0.1,0-0.1,0.1,0c0,0-0.1-0.1-0.2-0.1l-0.1-0.1l-0.1-0.1c0.1,0.1,0.1,0.2,0.1,0.1L38,81.9c-0.1-0.2,0.1,0.2,0,0&#xa;&#x9;&#x9;&#x9;c0-0.1,0-0.1-0.1-0.2c0-0.1,0-0.1,0-0.2c0,0.2,0,0.2,0,0.1v-0.1c-0.1-0.5-0.7-0.8-1.2-0.7C36.4,80.9,36.1,81.2,36,81.6L36,81.6z" class="st2"/>
   <path d="M122.7,81.6c0,1.4,1,2.6,2.3,3c0.7,0.2,1.5,0.1,2.1-0.2c0.6-0.3,1-0.9,1.3-1.5c0.5-1.2,0.3-2.6-0.6-3.5&#xa;&#x9;&#x9;&#x9;c-1-0.9-2.5-1.1-3.8-0.5c-1.2,0.7-1.3,2.1-1.3,3.3c0.1,0.5,0.7,0.8,1.2,0.7c0.3-0.1,0.6-0.4,0.7-0.7c0-0.2,0-0.4,0-0.6&#xa;&#x9;&#x9;&#x9;s0-0.2,0-0.2c0,0,0-0.1,0-0.1c0,0.3,0,0.1,0,0c0-0.2,0.1-0.3,0.1-0.5c-0.1,0.3,0,0.1,0,0s0.1-0.2,0,0.1l0.1-0.1l0.1-0.1&#xa;&#x9;&#x9;&#x9;c0.1-0.1-0.2,0.1-0.1,0l0.1-0.1c0.1-0.1,0.2,0-0.1,0c0.1,0,0.2-0.1,0.3-0.1h0.1c0.2,0-0.2,0,0,0c0.1,0,0.2,0,0.3,0&#xa;&#x9;&#x9;&#x9;c0.1,0,0.2,0.1,0,0h0.1c0.1,0,0.2,0,0.3,0.1c0.1,0,0.2,0.1,0,0l0.2,0.1c0.1,0,0.1,0.1,0.2,0.1c-0.2-0.1-0.1-0.1,0,0&#xa;&#x9;&#x9;&#x9;c0,0,0.1,0.1,0.1,0.1c0.1,0.1,0.1,0.2,0,0l0.1,0.1l0.1,0.1c0.1,0.2,0-0.2,0,0c0,0.1,0,0.2,0.1,0.3c-0.1-0.2,0-0.2,0-0.1&#xa;&#x9;&#x9;&#x9;c0,0,0,0.1,0,0.1c0,0.1,0,0.2,0,0.3s-0.1,0.2,0,0c0,0.1,0,0.1,0,0.2c0,0.1,0,0.2-0.1,0.3l-0.1,0.1c0.1-0.2,0.1-0.1,0,0&#xa;&#x9;&#x9;&#x9;s-0.1,0.2-0.2,0.3s0-0.1,0.1-0.1c-0.1,0-0.1,0.1-0.1,0.2c-0.1,0.1-0.1,0,0,0l-0.1,0.1c-0.1,0.1-0.2,0,0,0h-0.1h-0.1&#xa;&#x9;&#x9;&#x9;c-0.2,0,0.2,0,0,0h-0.4c-0.2,0,0.2,0,0,0h-0.2l-0.2-0.1h-0.1h0.1l-0.3-0.2c-0.1-0.1,0-0.1,0.1,0c0,0-0.1-0.1-0.2-0.1l-0.1-0.1&#xa;&#x9;&#x9;&#x9;l-0.1-0.1c0.1,0.1,0.1,0.2,0.1,0.1l-0.2-0.3c-0.1-0.2,0.1,0.2,0,0c0-0.1,0-0.1-0.1-0.2c0-0.1,0-0.1,0-0.2c0,0.2,0,0.2,0,0.1v-0.1&#xa;&#x9;&#x9;&#x9;c-0.1-0.5-0.7-0.8-1.2-0.7C123,81,122.7,81.3,122.7,81.6L122.7,81.6z" class="st2"/>
   <path d="M84.9,26.6c0.7-0.1,1.3-0.6,1.6-1.2c0.3-0.5,0.2-1.1-0.2-1.5c0.6-0.2,1-0.8,1.1-1.4c0.1-1.5-1.5-1.5-3-1.3&#xa;&#x9;&#x9;&#x9;c-1-2.7,0.7-5.8,1.6-8.4c0.9-2,1.3-4.3,1.1-6.5c-0.4-2.6-2.3-5.9-5.3-5.9s-5.1,3.5-5.3,6.2c-0.4,4.8,4.1,9.7,2.7,14.4&#xa;&#x9;&#x9;&#x9;c-1.6-0.2-3.3-0.2-3.3,1.4c0,0.7,0.5,1.4,1.2,1.6c-0.4,0.4-0.4,0.9-0.2,1.4c0.2,0.7,0.9,1.2,1.6,1.3c-1.9,1.1-2.6,3.9-2.3,6.1&#xa;&#x9;&#x9;&#x9;c0,0.3,0.6,0.3,0.7,0c0.1-1.2,0.2-2.4,0.6-3.6c0.4-1.1,1.3-1.9,2.4-2.4c1.3-0.3,2.6-0.3,3.9,0c1.1,0.4,1.9,1.3,2.3,2.4&#xa;&#x9;&#x9;&#x9;c0.3,1.2,0.6,2.3,0.6,3.5c0,0.3,0.6,0.3,0.7,0C87.4,30.4,86.7,27.7,84.9,26.6z M79,13.7c-0.8-2.2-1.7-4.5-1.6-6.8s1.6-5.5,4.3-5.5&#xa;&#x9;&#x9;&#x9;s4.2,3.1,4.4,5.5s-0.8,4.7-1.6,6.8s-2.1,5.2-0.8,7.4c-0.6,0.2-1.2,0.3-1.9,0.3c-0.7,0-1.4-0.1-2-0.4C81.2,18.9,79.8,15.9,79,13.7z&#xa;&#x9;&#x9;&#x9; M77.1,21.6c0.6-0.5,3.6,0.4,4.9,0.4s3.5-0.8,4.1-0.5c1.1,0.6,0.2,1.5-0.9,1.7c-0.3,0-0.9,0.1-1.3,0.1c-0.8,0-1.6,0-2.4,0&#xa;&#x9;&#x9;&#x9;c-0.8,0-2.9-0.1-3.1-0.1C77.4,23.5,75.8,22.7,77.1,21.6L77.1,21.6z M79.2,25.8c-0.6,0-1.5,0-1.8-0.6c-0.2-0.4-0.1-0.8,0.2-1.1&#xa;&#x9;&#x9;&#x9;c1.3,0.2,2.6,0.3,3.9,0.2c1.3,0.1,2.5,0,3.8-0.1c0.9,0.6-0.2,1.5-1.2,1.6c-0.8,0-1.7,0-2.5-0.1C80.8,25.7,80,25.8,79.2,25.8&#xa;&#x9;&#x9;&#x9;L79.2,25.8z" class="st3"/>
   <path d="M78.2,136.5c-0.7,0.1-1.3,0.6-1.6,1.2c-0.3,0.5-0.2,1.1,0.2,1.5c-0.6,0.2-1,0.8-1.1,1.4c0,1.5,1.5,1.5,3,1.3&#xa;&#x9;&#x9;&#x9;c1,2.7-0.7,5.8-1.6,8.4c-0.9,2-1.2,4.3-1.1,6.5c0.3,2.6,2.3,5.9,5.3,5.9s5-3.5,5.3-6.2c0.4-4.8-4.1-9.7-2.7-14.4&#xa;&#x9;&#x9;&#x9;c1.6,0.2,3.3,0.2,3.3-1.4c0-0.7-0.5-1.4-1.2-1.6c0.4-0.3,0.5-0.9,0.2-1.3c-0.3-0.7-0.9-1.2-1.6-1.3c1.9-1.1,2.6-3.9,2.3-6.1&#xa;&#x9;&#x9;&#x9;c0-0.2-0.2-0.3-0.4-0.2c-0.1,0-0.2,0.1-0.2,0.2c-0.1,1.2-0.3,2.4-0.6,3.5c-0.4,1.1-1.3,1.9-2.4,2.4c-1.3,0.3-2.6,0.3-3.8,0&#xa;&#x9;&#x9;&#x9;c-1.1-0.4-1.9-1.3-2.3-2.4c-0.3-1.2-0.5-2.3-0.6-3.5c0-0.2-0.2-0.3-0.4-0.2c-0.1,0-0.2,0.1-0.2,0.2&#xa;&#x9;&#x9;&#x9;C75.7,132.6,76.4,135.3,78.2,136.5z M84,149.4c0.8,2.2,1.7,4.5,1.6,6.8s-1.6,5.5-4.3,5.5s-4.2-3.1-4.4-5.5s0.8-4.7,1.6-6.9&#xa;&#x9;&#x9;&#x9;s2.1-5.2,0.8-7.4c0.6-0.2,1.2-0.3,1.9-0.3c0.7,0,1.4,0.1,2,0.4C81.9,144.2,83.3,147.2,84,149.4z M86,141.4&#xa;&#x9;&#x9;&#x9;c-0.6,0.5-3.6-0.4-4.9-0.4s-3.5,0.8-4.1,0.5c-1.1-0.6-0.2-1.5,0.9-1.7c0.3-0.1,0.9-0.1,1.2-0.1c0.8-0.1,1.5,0,2.4,0&#xa;&#x9;&#x9;&#x9;s2.9,0.1,3.1,0.1C85.7,139.6,87.2,140.4,86,141.4z M83.9,137.3c0.6,0,1.5,0,1.8,0.6c0.2,0.3,0.1,0.8-0.2,1.1c0,0,0,0,0,0&#xa;&#x9;&#x9;&#x9;c-1.3-0.2-2.6-0.3-3.9-0.2c-1.3-0.1-2.5,0-3.8,0.1c-0.9-0.7,0.2-1.5,1.2-1.6s1.7,0.1,2.6,0.1S83.1,137.3,83.9,137.3L83.9,137.3z" class="st3"/>
   <path d="M26.6,78.2c-0.1-0.7-0.6-1.3-1.2-1.6c-0.5-0.3-1.1-0.2-1.5,0.2c-0.2-0.6-0.8-1-1.4-1.1c-1.5,0-1.5,1.5-1.3,3&#xa;&#x9;&#x9;&#x9;c-2.7,1-5.8-0.7-8.4-1.6c-2-0.9-4.3-1.2-6.5-1.1c-2.6,0.4-5.9,2.3-5.9,5.3s3.5,5,6.2,5.3c4.8,0.4,9.7-4.1,14.4-2.7&#xa;&#x9;&#x9;&#x9;c-0.2,1.6-0.2,3.3,1.4,3.3c0.7,0,1.4-0.5,1.6-1.2c0.4,0.4,0.9,0.5,1.4,0.2c0.7-0.2,1.2-0.9,1.3-1.6c1.1,1.9,3.9,2.6,6.1,2.3&#xa;&#x9;&#x9;&#x9;c0.2-0.1,0.3-0.3,0.2-0.4c0-0.1-0.1-0.2-0.2-0.2c-1.2-0.1-2.4-0.3-3.6-0.6c-1.1-0.4-1.9-1.3-2.4-2.4c-0.3-1.3-0.3-2.6,0-3.8&#xa;&#x9;&#x9;&#x9;c0.4-1.1,1.3-1.9,2.4-2.3c1.2-0.3,2.3-0.5,3.5-0.6c0.2-0.1,0.3-0.3,0.2-0.4c0-0.1-0.1-0.2-0.2-0.2C30.4,75.7,27.7,76.4,26.6,78.2z&#xa;&#x9;&#x9;&#x9; M13.7,84c-2.2,0.8-4.5,1.7-6.8,1.6S1.4,84,1.4,81.3s3.1-4.2,5.5-4.3s4.7,0.8,6.8,1.6s5.2,2.1,7.4,0.8c0.2,0.6,0.3,1.2,0.3,1.9&#xa;&#x9;&#x9;&#x9;c0,0.7-0.1,1.4-0.4,2C18.9,81.9,15.9,83.3,13.7,84z M21.6,86c-0.5-0.6,0.4-3.6,0.4-4.9s-0.8-3.5-0.5-4.1c0.6-1.1,1.5-0.2,1.7,0.9&#xa;&#x9;&#x9;&#x9;c0,0.3,0.1,0.9,0.1,1.2c0,0.8,0,1.6,0,2.4c0,0.8-0.1,2.9-0.1,3.1C23.5,85.7,22.7,87.2,21.6,86z M25.8,83.9c0,0.6,0,1.5-0.6,1.8&#xa;&#x9;&#x9;&#x9;c-0.4,0.2-0.8,0.1-1.1-0.2c0,0,0,0,0,0c0.2-1.3,0.3-2.6,0.2-3.9c0.1-1.3,0-2.5-0.1-3.8c0.6-0.9,1.5,0.2,1.6,1.2&#xa;&#x9;&#x9;&#x9;c0,0.9,0,1.7-0.1,2.6C25.7,82.3,25.8,83.1,25.8,83.9L25.8,83.9z" class="st2"/>
   <path d="M137.6,84.9c0.1,0.7,0.6,1.3,1.2,1.6c0.5,0.3,1.1,0.2,1.5-0.2c0.2,0.6,0.8,1,1.4,1.1c1.5,0.1,1.5-1.5,1.3-3&#xa;&#x9;&#x9;&#x9;c2.7-1,5.8,0.7,8.4,1.6c2,0.9,4.3,1.3,6.5,1.1c2.6-0.3,5.9-2.3,5.9-5.3s-3.5-5.1-6.2-5.3c-4.8-0.4-9.7,4.1-14.4,2.7&#xa;&#x9;&#x9;&#x9;c0.2-1.6,0.2-3.3-1.4-3.3c-0.7,0-1.4,0.5-1.6,1.2c-0.4-0.4-0.9-0.4-1.4-0.2c-0.7,0.2-1.2,0.9-1.3,1.6c-1.1-1.9-3.9-2.6-6.1-2.3&#xa;&#x9;&#x9;&#x9;c-0.3,0-0.3,0.6,0,0.7c1.2,0.1,2.4,0.3,3.6,0.6c1.1,0.4,1.9,1.3,2.4,2.4c0.3,1.3,0.3,2.6,0,3.9c-0.4,1.1-1.2,1.9-2.3,2.3&#xa;&#x9;&#x9;&#x9;c-1.2,0.3-2.3,0.6-3.6,0.6c-0.3,0-0.3,0.6,0,0.7C133.8,87.4,136.5,86.7,137.6,84.9z M150.5,79c2.2-0.8,4.5-1.7,6.8-1.6&#xa;&#x9;&#x9;&#x9;s5.5,1.6,5.5,4.3s-3.1,4.2-5.5,4.4s-4.6-0.8-6.8-1.6s-5.2-2.1-7.4-0.8c-0.2-0.6-0.3-1.2-0.3-1.9c0-0.7,0.1-1.4,0.4-2&#xa;&#x9;&#x9;&#x9;C145.3,81.2,148.3,79.8,150.5,79z M142.6,77.1c0.5,0.6-0.4,3.6-0.4,4.9s0.8,3.5,0.5,4.1c-0.6,1.1-1.5,0.2-1.7-0.9&#xa;&#x9;&#x9;&#x9;c-0.1-0.4-0.1-0.8-0.1-1.3c0-0.8,0-1.6,0-2.4c0-0.8,0.1-2.9,0.1-3.1C140.7,77.4,141.5,75.8,142.6,77.1L142.6,77.1z M138.4,79.2&#xa;&#x9;&#x9;&#x9;c0-0.6,0-1.5,0.6-1.8c0.4-0.2,0.8-0.1,1.1,0.2c-0.2,1.3-0.3,2.6-0.2,3.9c-0.1,1.3,0,2.5,0.1,3.8c-0.6,0.9-1.5-0.2-1.6-1.2&#xa;&#x9;&#x9;&#x9;c0-0.8,0-1.7,0.1-2.5C138.5,80.8,138.4,80,138.4,79.2L138.4,79.2z" class="st2"/>
   <path d="M26.6,78.2c-0.1-0.7-0.6-1.3-1.2-1.6c-0.5-0.3-1.1-0.2-1.5,0.2c-0.2-0.6-0.8-1-1.4-1.1c-1.5,0-1.5,1.5-1.3,3&#xa;&#x9;&#x9;&#x9;c-2.7,1-5.8-0.7-8.4-1.6c-2-0.9-4.3-1.2-6.5-1.1c-2.6,0.4-5.9,2.3-5.9,5.3s3.5,5,6.2,5.3c4.8,0.4,9.7-4.1,14.4-2.7&#xa;&#x9;&#x9;&#x9;c-0.2,1.6-0.2,3.3,1.4,3.3c0.7,0,1.4-0.5,1.6-1.2c0.4,0.4,0.9,0.5,1.4,0.2c0.7-0.2,1.2-0.9,1.3-1.6c1.1,1.9,3.9,2.6,6.1,2.3&#xa;&#x9;&#x9;&#x9;c0.2-0.1,0.3-0.3,0.2-0.4c0-0.1-0.1-0.2-0.2-0.2c-1.2-0.1-2.4-0.3-3.6-0.6c-1.1-0.4-1.9-1.3-2.4-2.4c-0.3-1.3-0.3-2.6,0-3.8&#xa;&#x9;&#x9;&#x9;c0.4-1.1,1.3-1.9,2.4-2.3c1.2-0.3,2.3-0.5,3.5-0.6c0.2-0.1,0.3-0.3,0.2-0.4c0-0.1-0.1-0.2-0.2-0.2C30.4,75.7,27.7,76.4,26.6,78.2z&#xa;&#x9;&#x9;&#x9; M13.7,84c-2.2,0.8-4.5,1.7-6.8,1.6S1.4,84,1.4,81.3s3.1-4.2,5.5-4.3s4.7,0.8,6.8,1.6s5.2,2.1,7.4,0.8c0.2,0.6,0.3,1.2,0.3,1.9&#xa;&#x9;&#x9;&#x9;c0,0.7-0.1,1.4-0.4,2C18.9,81.9,15.9,83.3,13.7,84z M21.6,86c-0.5-0.6,0.4-3.6,0.4-4.9s-0.8-3.5-0.5-4.1c0.6-1.1,1.5-0.2,1.7,0.9&#xa;&#x9;&#x9;&#x9;c0,0.3,0.1,0.9,0.1,1.2c0,0.8,0,1.6,0,2.4c0,0.8-0.1,2.9-0.1,3.1C23.5,85.7,22.7,87.2,21.6,86z M25.8,83.9c0,0.6,0,1.5-0.6,1.8&#xa;&#x9;&#x9;&#x9;c-0.4,0.2-0.8,0.1-1.1-0.2c0,0,0,0,0,0c0.2-1.3,0.3-2.6,0.2-3.9c0.1-1.3,0-2.5-0.1-3.8c0.6-0.9,1.5,0.2,1.6,1.2&#xa;&#x9;&#x9;&#x9;c0,0.9,0,1.7-0.1,2.6C25.7,82.3,25.8,83.1,25.8,83.9L25.8,83.9z" class="st2"/>
   <path d="M137.6,84.9c0.1,0.7,0.6,1.3,1.2,1.6c0.5,0.3,1.1,0.2,1.5-0.2c0.2,0.6,0.8,1,1.4,1.1c1.5,0.1,1.5-1.5,1.3-3&#xa;&#x9;&#x9;&#x9;c2.7-1,5.8,0.7,8.4,1.6c2,0.9,4.3,1.3,6.5,1.1c2.6-0.3,5.9-2.3,5.9-5.3s-3.5-5.1-6.2-5.3c-4.8-0.4-9.7,4.1-14.4,2.7&#xa;&#x9;&#x9;&#x9;c0.2-1.6,0.2-3.3-1.4-3.3c-0.7,0-1.4,0.5-1.6,1.2c-0.4-0.4-0.9-0.4-1.4-0.2c-0.7,0.2-1.2,0.9-1.3,1.6c-1.1-1.9-3.9-2.6-6.1-2.3&#xa;&#x9;&#x9;&#x9;c-0.3,0-0.3,0.6,0,0.7c1.2,0.1,2.4,0.3,3.6,0.6c1.1,0.4,1.9,1.3,2.4,2.4c0.3,1.3,0.3,2.6,0,3.9c-0.4,1.1-1.2,1.9-2.3,2.3&#xa;&#x9;&#x9;&#x9;c-1.2,0.3-2.3,0.6-3.6,0.6c-0.3,0-0.3,0.6,0,0.7C133.8,87.4,136.5,86.7,137.6,84.9z M150.5,79c2.2-0.8,4.5-1.7,6.8-1.6&#xa;&#x9;&#x9;&#x9;s5.5,1.6,5.5,4.3s-3.1,4.2-5.5,4.4s-4.6-0.8-6.8-1.6s-5.2-2.1-7.4-0.8c-0.2-0.6-0.3-1.2-0.3-1.9c0-0.7,0.1-1.4,0.4-2&#xa;&#x9;&#x9;&#x9;C145.3,81.2,148.3,79.8,150.5,79z M142.6,77.1c0.5,0.6-0.4,3.6-0.4,4.9s0.8,3.5,0.5,4.1c-0.6,1.1-1.5,0.2-1.7-0.9&#xa;&#x9;&#x9;&#x9;c-0.1-0.4-0.1-0.8-0.1-1.3c0-0.8,0-1.6,0-2.4c0-0.8,0.1-2.9,0.1-3.1C140.7,77.4,141.5,75.8,142.6,77.1L142.6,77.1z M138.4,79.2&#xa;&#x9;&#x9;&#x9;c0-0.6,0-1.5,0.6-1.8c0.4-0.2,0.8-0.1,1.1,0.2c-0.2,1.3-0.3,2.6-0.2,3.9c-0.1,1.3,0,2.5,0.1,3.8c-0.6,0.9-1.5-0.2-1.6-1.2&#xa;&#x9;&#x9;&#x9;c0-0.8,0-1.7,0.1-2.5C138.5,80.8,138.4,80,138.4,79.2L138.4,79.2z" class="st2"/>
   <path d="M26.6,78.2c-0.1-0.7-0.6-1.3-1.2-1.6c-0.5-0.3-1.1-0.2-1.5,0.2c-0.2-0.6-0.8-1-1.4-1.1c-1.5,0-1.5,1.5-1.3,3&#xa;&#x9;&#x9;&#x9;c-2.7,1-5.8-0.7-8.4-1.6c-2-0.9-4.3-1.2-6.5-1.1c-2.6,0.4-5.9,2.3-5.9,5.3s3.5,5,6.2,5.3c4.8,0.4,9.7-4.1,14.4-2.7&#xa;&#x9;&#x9;&#x9;c-0.2,1.6-0.2,3.3,1.4,3.3c0.7,0,1.4-0.5,1.6-1.2c0.4,0.4,0.9,0.5,1.4,0.2c0.7-0.2,1.2-0.9,1.3-1.6c1.1,1.9,3.9,2.6,6.1,2.3&#xa;&#x9;&#x9;&#x9;c0.2-0.1,0.3-0.3,0.2-0.4c0-0.1-0.1-0.2-0.2-0.2c-1.2-0.1-2.4-0.3-3.6-0.6c-1.1-0.4-1.9-1.3-2.4-2.4c-0.3-1.3-0.3-2.6,0-3.8&#xa;&#x9;&#x9;&#x9;c0.4-1.1,1.3-1.9,2.4-2.3c1.2-0.3,2.3-0.5,3.5-0.6c0.2-0.1,0.3-0.3,0.2-0.4c0-0.1-0.1-0.2-0.2-0.2C30.4,75.7,27.7,76.4,26.6,78.2z&#xa;&#x9;&#x9;&#x9; M13.7,84c-2.2,0.8-4.5,1.7-6.8,1.6S1.4,84,1.4,81.3s3.1-4.2,5.5-4.3s4.7,0.8,6.8,1.6s5.2,2.1,7.4,0.8c0.2,0.6,0.3,1.2,0.3,1.9&#xa;&#x9;&#x9;&#x9;c0,0.7-0.1,1.4-0.4,2C18.9,81.9,15.9,83.3,13.7,84z M21.6,86c-0.5-0.6,0.4-3.6,0.4-4.9s-0.8-3.5-0.5-4.1c0.6-1.1,1.5-0.2,1.7,0.9&#xa;&#x9;&#x9;&#x9;c0,0.3,0.1,0.9,0.1,1.2c0,0.8,0,1.6,0,2.4c0,0.8-0.1,2.9-0.1,3.1C23.5,85.7,22.7,87.2,21.6,86z M25.8,83.9c0,0.6,0,1.5-0.6,1.8&#xa;&#x9;&#x9;&#x9;c-0.4,0.2-0.8,0.1-1.1-0.2c0,0,0,0,0,0c0.2-1.3,0.3-2.6,0.2-3.9c0.1-1.3,0-2.5-0.1-3.8c0.6-0.9,1.5,0.2,1.6,1.2&#xa;&#x9;&#x9;&#x9;c0,0.9,0,1.7-0.1,2.6C25.7,82.3,25.8,83.1,25.8,83.9L25.8,83.9z" class="st4"/>
   <path d="M137.6,84.9c0.1,0.7,0.6,1.3,1.2,1.6c0.5,0.3,1.1,0.2,1.5-0.2c0.2,0.6,0.8,1,1.4,1.1c1.5,0.1,1.5-1.5,1.3-3&#xa;&#x9;&#x9;&#x9;c2.7-1,5.8,0.7,8.4,1.6c2,0.9,4.3,1.3,6.5,1.1c2.6-0.3,5.9-2.3,5.9-5.3s-3.5-5.1-6.2-5.3c-4.8-0.4-9.7,4.1-14.4,2.7&#xa;&#x9;&#x9;&#x9;c0.2-1.6,0.2-3.3-1.4-3.3c-0.7,0-1.4,0.5-1.6,1.2c-0.4-0.4-0.9-0.4-1.4-0.2c-0.7,0.2-1.2,0.9-1.3,1.6c-1.1-1.9-3.9-2.6-6.1-2.3&#xa;&#x9;&#x9;&#x9;c-0.3,0-0.3,0.6,0,0.7c1.2,0.1,2.4,0.3,3.6,0.6c1.1,0.4,1.9,1.3,2.4,2.4c0.3,1.3,0.3,2.6,0,3.9c-0.4,1.1-1.2,1.9-2.3,2.3&#xa;&#x9;&#x9;&#x9;c-1.2,0.3-2.3,0.6-3.6,0.6c-0.3,0-0.3,0.6,0,0.7C133.8,87.4,136.5,86.7,137.6,84.9z M150.5,79c2.2-0.8,4.5-1.7,6.8-1.6&#xa;&#x9;&#x9;&#x9;s5.5,1.6,5.5,4.3s-3.1,4.2-5.5,4.4s-4.6-0.8-6.8-1.6s-5.2-2.1-7.4-0.8c-0.2-0.6-0.3-1.2-0.3-1.9c0-0.7,0.1-1.4,0.4-2&#xa;&#x9;&#x9;&#x9;C145.3,81.2,148.3,79.8,150.5,79z M142.6,77.1c0.5,0.6-0.4,3.6-0.4,4.9s0.8,3.5,0.5,4.1c-0.6,1.1-1.5,0.2-1.7-0.9&#xa;&#x9;&#x9;&#x9;c-0.1-0.4-0.1-0.8-0.1-1.3c0-0.8,0-1.6,0-2.4c0-0.8,0.1-2.9,0.1-3.1C140.7,77.4,141.5,75.8,142.6,77.1L142.6,77.1z M138.4,79.2&#xa;&#x9;&#x9;&#x9;c0-0.6,0-1.5,0.6-1.8c0.4-0.2,0.8-0.1,1.1,0.2c-0.2,1.3-0.3,2.6-0.2,3.9c-0.1,1.3,0,2.5,0.1,3.8c-0.6,0.9-1.5-0.2-1.6-1.2&#xa;&#x9;&#x9;&#x9;c0-0.8,0-1.7,0.1-2.5C138.5,80.8,138.4,80,138.4,79.2L138.4,79.2z" class="st4"/>
   <path d="M122.9,44.6c0.6,0.4,1.3,0.5,2,0.2c0.5-0.2,0.9-0.7,0.9-1.2c0.6,0.3,1.3,0.2,1.8-0.3c1.1-1,0-2.1-1.2-3&#xa;&#x9;&#x9;&#x9;c1.2-2.7,4.6-3.7,7-4.8c2.1-0.8,3.9-2.1,5.4-3.8c1.6-2.1,2.6-5.8,0.4-7.9s-6.1-1.1-8.1,0.7c-3.7,3.1-4,9.8-8.2,12.1&#xa;&#x9;&#x9;&#x9;c-1-1.3-2.2-2.5-3.3-1.4c-0.5,0.5-0.6,1.3-0.2,2c-0.5,0-0.9,0.3-1.1,0.8c-0.3,0.7-0.2,1.4,0.2,2c-2.1-0.5-4.6,0.9-6,2.7&#xa;&#x9;&#x9;&#x9;c-0.2,0.3,0.2,0.7,0.5,0.5c0.9-0.8,1.9-1.5,3-2.1c1.1-0.5,2.3-0.5,3.3,0c1.1,0.7,2,1.6,2.7,2.8c0.5,1,0.5,2.2,0,3.3&#xa;&#x9;&#x9;&#x9;c-0.6,1.1-1.3,2.1-2.1,3c-0.2,0.3,0.2,0.7,0.5,0.5C122,49.2,123.4,46.7,122.9,44.6z M127.9,31.4c1-2.1,2-4.4,3.7-6s5-2.8,6.9-0.9&#xa;&#x9;&#x9;&#x9;s0.8,5.2-0.8,7s-3.9,2.7-6,3.7s-5.2,2.2-5.8,4.7c-0.6-0.3-1.1-0.7-1.5-1.1c-0.5-0.5-0.9-1-1.1-1.7&#xa;&#x9;&#x9;&#x9;C125.7,36.6,126.9,33.5,127.9,31.4z M120.9,35.7c0.8,0.1,2.3,2.8,3.1,3.8s3.1,1.9,3.2,2.5c0.3,1.2-0.9,1.2-1.8,0.6&#xa;&#x9;&#x9;&#x9;c-0.3-0.2-0.7-0.5-1-0.8c-0.6-0.5-1.1-1.1-1.7-1.7s-2-2.1-2.1-2.2C119.8,37.2,119.3,35.5,120.9,35.7L120.9,35.7z M119.4,40.1&#xa;&#x9;&#x9;&#x9;c-0.4-0.5-1-1-0.8-1.8c0.1-0.4,0.5-0.7,0.9-0.6c0.8,1.1,1.7,2,2.6,2.9c0.9,0.9,1.8,1.8,2.8,2.6c0.2,1.1-1.2,1-2,0.3&#xa;&#x9;&#x9;&#x9;s-1.1-1.2-1.8-1.8S120,40.7,119.4,40.1L119.4,40.1z" class="st3"/>
   <path d="M40.5,117.7c-0.6-0.4-1.3-0.5-2-0.2c-0.5,0.2-0.9,0.7-0.9,1.2c-0.6-0.3-1.3-0.2-1.8,0.3c-1.1,1,0,2.1,1.2,3&#xa;&#x9;&#x9;&#x9;c-1.2,2.6-4.6,3.7-7,4.8c-2.1,0.8-3.9,2.1-5.4,3.8c-1.6,2.1-2.6,5.8-0.4,7.9s6.1,1.1,8.1-0.6c3.7-3.1,4-9.8,8.2-12.1&#xa;&#x9;&#x9;&#x9;c1,1.3,2.2,2.5,3.3,1.4c0.5-0.5,0.6-1.4,0.2-2c0.5,0,0.9-0.3,1.1-0.8c0.3-0.7,0.2-1.4-0.2-2c2.2,0.6,4.6-0.9,6-2.7&#xa;&#x9;&#x9;&#x9;c0.2-0.3-0.2-0.7-0.5-0.5c-0.9,0.8-1.9,1.5-3,2.1c-1.1,0.5-2.3,0.5-3.3,0c-1.1-0.7-2-1.6-2.7-2.8c-0.5-1-0.5-2.2,0-3.3&#xa;&#x9;&#x9;&#x9;c0.6-1.1,1.3-2,2.1-2.9c0.2-0.3-0.2-0.7-0.5-0.5C41.4,113.1,40,115.5,40.5,117.7z M35.5,130.9c-1,2.1-2,4.4-3.7,6s-5,2.8-6.9,0.9&#xa;&#x9;&#x9;&#x9;s-0.8-5.2,0.8-7s3.9-2.7,6-3.7s5.2-2.2,5.8-4.7c0.6,0.3,1.1,0.7,1.5,1.1c0.5,0.5,0.9,1,1.1,1.7C37.7,125.7,36.5,128.8,35.5,130.9z&#xa;&#x9;&#x9;&#x9; M42.5,126.6c-0.8-0.1-2.3-2.8-3.1-3.8s-3.1-1.9-3.2-2.5c-0.3-1.2,0.9-1.3,1.8-0.6c0.3,0.2,0.7,0.5,1,0.8c0.6,0.5,1.2,1.1,1.7,1.7&#xa;&#x9;&#x9;&#x9;c0.6,0.6,2,2.1,2.1,2.2C43.6,125.1,44.1,126.8,42.5,126.6z M43.9,122.2c0.4,0.4,1,1,0.8,1.7c-0.1,0.4-0.5,0.7-0.9,0.6c0,0,0,0,0,0&#xa;&#x9;&#x9;&#x9;c-0.8-1-1.7-2-2.6-2.9c-0.8-0.9-1.8-1.8-2.8-2.6c-0.2-1.1,1.2-1,2-0.3c0.6,0.6,1.2,1.2,1.8,1.8C42.7,121.2,43.4,121.6,43.9,122.2z&#xa;&#x9;&#x9;&#x9;" class="st3"/>
   <path d="M45.2,39.9c0.4-0.6,0.5-1.3,0.2-2c-0.2-0.5-0.7-0.9-1.2-0.9c0.3-0.6,0.2-1.3-0.3-1.8c-1-1.1-2.1,0-3,1.2&#xa;&#x9;&#x9;&#x9;c-2.7-1.2-3.7-4.6-4.8-7c-0.8-2.1-2.2-3.9-3.9-5.4c-2.1-1.6-5.8-2.6-7.9-0.4s-1.1,6,0.7,8.1c3.1,3.7,9.8,4,12.1,8.2&#xa;&#x9;&#x9;&#x9;c-1.3,1-2.5,2.2-1.4,3.3c0.5,0.5,1.4,0.6,2,0.2c0,0.5,0.3,0.9,0.8,1.1c0.7,0.3,1.4,0.2,2-0.2c-0.5,2.1,0.9,4.6,2.7,6&#xa;&#x9;&#x9;&#x9;c0.3,0.2,0.7-0.2,0.5-0.5c-0.8-0.9-1.5-1.9-2.1-3c-0.5-1.1-0.5-2.3,0-3.3c0.7-1.1,1.6-2,2.8-2.7c1-0.5,2.2-0.5,3.3,0&#xa;&#x9;&#x9;&#x9;c1.1,0.6,2.1,1.3,3,2.1c0.3,0.2,0.7-0.2,0.5-0.5C49.7,40.8,47.3,39.4,45.2,39.9z M32,35c-2.1-1-4.4-2-6-3.7s-2.8-5-0.9-6.9&#xa;&#x9;&#x9;&#x9;s5.2-0.8,7,0.8s2.7,3.9,3.7,6s2.2,5.2,4.7,5.8c-0.3,0.6-0.7,1.1-1.1,1.5c-0.5,0.5-1,0.9-1.7,1.1C37.2,37.1,34,36,32,35z M36.2,42&#xa;&#x9;&#x9;&#x9;c0.1-0.7,2.8-2.3,3.8-3.1s1.9-3.1,2.5-3.2c1.2-0.3,1.3,0.9,0.6,1.8c-0.2,0.3-0.5,0.7-0.8,1c-0.5,0.6-1.1,1.1-1.7,1.7&#xa;&#x9;&#x9;&#x9;s-2.1,2-2.2,2.1C37.7,43,36.1,43.6,36.2,42L36.2,42z M40.7,43.4c-0.5,0.4-1,1-1.7,0.8c-0.4-0.1-0.7-0.5-0.6-0.9&#xa;&#x9;&#x9;&#x9;c1.1-0.8,2-1.6,2.9-2.6c0.9-0.8,1.8-1.8,2.5-2.8c1.1-0.2,1,1.2,0.3,2c-0.6,0.6-1.2,1.2-1.8,1.8C41.7,42.2,41.2,42.8,40.7,43.4&#xa;&#x9;&#x9;&#x9;L40.7,43.4z" class="st2"/>
   <path d="M119,123.2c-0.4,0.6-0.5,1.3-0.2,2c0.2,0.5,0.7,0.9,1.2,0.9c-0.3,0.6-0.2,1.3,0.3,1.8c1,1.1,2.1,0,3-1.2&#xa;&#x9;&#x9;&#x9;c2.7,1.2,3.7,4.6,4.8,7c0.8,2.1,2.1,3.9,3.8,5.4c2.1,1.6,5.8,2.6,7.9,0.4s1.1-6.1-0.7-8.1c-3.1-3.7-9.8-4-12.1-8.2&#xa;&#x9;&#x9;&#x9;c1.3-1,2.5-2.2,1.4-3.3c-0.5-0.5-1.3-0.6-1.9-0.2c0-0.5-0.3-0.9-0.8-1.1c-0.7-0.3-1.4-0.2-2,0.2c0.6-2.1-0.9-4.6-2.7-6&#xa;&#x9;&#x9;&#x9;c-0.3-0.2-0.7,0.2-0.5,0.5c0.8,0.9,1.5,1.9,2.1,3c0.5,1.1,0.5,2.3,0,3.3c-0.7,1.1-1.6,2-2.8,2.7c-1,0.5-2.2,0.5-3.3,0&#xa;&#x9;&#x9;&#x9;c-1.1-0.6-2-1.3-2.9-2.1c-0.3-0.2-0.7,0.2-0.5,0.5C114.5,122.2,116.9,123.6,119,123.2z M132.2,128.2c2.1,1,4.4,1.9,5.9,3.7&#xa;&#x9;&#x9;&#x9;s2.8,5,0.9,6.9s-5.2,0.8-7-0.8s-2.7-3.9-3.7-6s-2.2-5.2-4.7-5.8c0.3-0.6,0.7-1.1,1.1-1.5c0.5-0.5,1-0.9,1.7-1.1&#xa;&#x9;&#x9;&#x9;C127,126,130.1,127.1,132.2,128.2L132.2,128.2z M128,121.2c-0.1,0.8-2.8,2.3-3.8,3.1s-1.9,3.1-2.5,3.2c-1.2,0.3-1.3-0.9-0.6-1.8&#xa;&#x9;&#x9;&#x9;c0.2-0.3,0.5-0.7,0.8-1c0.5-0.6,1.1-1.1,1.7-1.7s2.1-2,2.2-2.1C126.5,120,128.1,119.5,128,121.2L128,121.2z M123.5,119.7&#xa;&#x9;&#x9;&#x9;c0.4-0.4,1-1,1.7-0.8c0.4,0.1,0.7,0.5,0.6,0.9c-1.1,0.8-2,1.7-2.9,2.6c-0.9,0.8-1.8,1.7-2.6,2.8c-1.1,0.2-1-1.2-0.3-2&#xa;&#x9;&#x9;&#x9;s1.2-1.1,1.8-1.8S123,120.3,123.5,119.7L123.5,119.7z" class="st2"/>
   <path d="M45.2,39.9c0.4-0.6,0.5-1.3,0.2-2c-0.2-0.5-0.7-0.9-1.2-0.9c0.3-0.6,0.2-1.3-0.3-1.8c-1-1.1-2.1,0-3,1.2&#xa;&#x9;&#x9;&#x9;c-2.7-1.2-3.7-4.6-4.8-7c-0.8-2.1-2.2-3.9-3.9-5.4c-2.1-1.6-5.8-2.6-7.9-0.4s-1.1,6,0.7,8.1c3.1,3.7,9.8,4,12.1,8.2&#xa;&#x9;&#x9;&#x9;c-1.3,1-2.5,2.2-1.4,3.3c0.5,0.5,1.4,0.6,2,0.2c0,0.5,0.3,0.9,0.8,1.1c0.7,0.3,1.4,0.2,2-0.2c-0.5,2.1,0.9,4.6,2.7,6&#xa;&#x9;&#x9;&#x9;c0.3,0.2,0.7-0.2,0.5-0.5c-0.8-0.9-1.5-1.9-2.1-3c-0.5-1.1-0.5-2.3,0-3.3c0.7-1.1,1.6-2,2.8-2.7c1-0.5,2.2-0.5,3.3,0&#xa;&#x9;&#x9;&#x9;c1.1,0.6,2.1,1.3,3,2.1c0.3,0.2,0.7-0.2,0.5-0.5C49.7,40.8,47.3,39.4,45.2,39.9z M32,35c-2.1-1-4.4-2-6-3.7s-2.8-5-0.9-6.9&#xa;&#x9;&#x9;&#x9;s5.2-0.8,7,0.8s2.7,3.9,3.7,6s2.2,5.2,4.7,5.8c-0.3,0.6-0.7,1.1-1.1,1.5c-0.5,0.5-1,0.9-1.7,1.1C37.2,37.1,34,36,32,35z M36.2,42&#xa;&#x9;&#x9;&#x9;c0.1-0.7,2.8-2.3,3.8-3.1s1.9-3.1,2.5-3.2c1.2-0.3,1.3,0.9,0.6,1.8c-0.2,0.3-0.5,0.7-0.8,1c-0.5,0.6-1.1,1.1-1.7,1.7&#xa;&#x9;&#x9;&#x9;s-2.1,2-2.2,2.1C37.7,43,36.1,43.6,36.2,42L36.2,42z M40.7,43.4c-0.5,0.4-1,1-1.7,0.8c-0.4-0.1-0.7-0.5-0.6-0.9&#xa;&#x9;&#x9;&#x9;c1.1-0.8,2-1.6,2.9-2.6c0.9-0.8,1.8-1.8,2.5-2.8c1.1-0.2,1,1.2,0.3,2c-0.6,0.6-1.2,1.2-1.8,1.8C41.7,42.2,41.2,42.8,40.7,43.4&#xa;&#x9;&#x9;&#x9;L40.7,43.4z" class="st2"/>
   <path d="M119,123.2c-0.4,0.6-0.5,1.3-0.2,2c0.2,0.5,0.7,0.9,1.2,0.9c-0.3,0.6-0.2,1.3,0.3,1.8c1,1.1,2.1,0,3-1.2&#xa;&#x9;&#x9;&#x9;c2.7,1.2,3.7,4.6,4.8,7c0.8,2.1,2.1,3.9,3.8,5.4c2.1,1.6,5.8,2.6,7.9,0.4s1.1-6.1-0.7-8.1c-3.1-3.7-9.8-4-12.1-8.2&#xa;&#x9;&#x9;&#x9;c1.3-1,2.5-2.2,1.4-3.3c-0.5-0.5-1.3-0.6-1.9-0.2c0-0.5-0.3-0.9-0.8-1.1c-0.7-0.3-1.4-0.2-2,0.2c0.6-2.1-0.9-4.6-2.7-6&#xa;&#x9;&#x9;&#x9;c-0.3-0.2-0.7,0.2-0.5,0.5c0.8,0.9,1.5,1.9,2.1,3c0.5,1.1,0.5,2.3,0,3.3c-0.7,1.1-1.6,2-2.8,2.7c-1,0.5-2.2,0.5-3.3,0&#xa;&#x9;&#x9;&#x9;c-1.1-0.6-2-1.3-2.9-2.1c-0.3-0.2-0.7,0.2-0.5,0.5C114.5,122.2,116.9,123.6,119,123.2z M132.2,128.2c2.1,1,4.4,1.9,5.9,3.7&#xa;&#x9;&#x9;&#x9;s2.8,5,0.9,6.9s-5.2,0.8-7-0.8s-2.7-3.9-3.7-6s-2.2-5.2-4.7-5.8c0.3-0.6,0.7-1.1,1.1-1.5c0.5-0.5,1-0.9,1.7-1.1&#xa;&#x9;&#x9;&#x9;C127,126,130.1,127.1,132.2,128.2L132.2,128.2z M128,121.2c-0.1,0.8-2.8,2.3-3.8,3.1s-1.9,3.1-2.5,3.2c-1.2,0.3-1.3-0.9-0.6-1.8&#xa;&#x9;&#x9;&#x9;c0.2-0.3,0.5-0.7,0.8-1c0.5-0.6,1.1-1.1,1.7-1.7s2.1-2,2.2-2.1C126.5,120,128.1,119.5,128,121.2L128,121.2z M123.5,119.7&#xa;&#x9;&#x9;&#x9;c0.4-0.4,1-1,1.7-0.8c0.4,0.1,0.7,0.5,0.6,0.9c-1.1,0.8-2,1.7-2.9,2.6c-0.9,0.8-1.8,1.7-2.6,2.8c-1.1,0.2-1-1.2-0.3-2&#xa;&#x9;&#x9;&#x9;s1.2-1.1,1.8-1.8S123,120.3,123.5,119.7L123.5,119.7z" class="st2"/>
   <path d="M45.2,39.9c0.4-0.6,0.5-1.3,0.2-2c-0.2-0.5-0.7-0.9-1.2-0.9c0.3-0.6,0.2-1.3-0.3-1.8c-1-1.1-2.1,0-3,1.2&#xa;&#x9;&#x9;&#x9;c-2.7-1.2-3.7-4.6-4.8-7c-0.8-2.1-2.2-3.9-3.9-5.4c-2.1-1.6-5.8-2.6-7.9-0.4s-1.1,6,0.7,8.1c3.1,3.7,9.8,4,12.1,8.2&#xa;&#x9;&#x9;&#x9;c-1.3,1-2.5,2.2-1.4,3.3c0.5,0.5,1.4,0.6,2,0.2c0,0.5,0.3,0.9,0.8,1.1c0.7,0.3,1.4,0.2,2-0.2c-0.5,2.1,0.9,4.6,2.7,6&#xa;&#x9;&#x9;&#x9;c0.3,0.2,0.7-0.2,0.5-0.5c-0.8-0.9-1.5-1.9-2.1-3c-0.5-1.1-0.5-2.3,0-3.3c0.7-1.1,1.6-2,2.8-2.7c1-0.5,2.2-0.5,3.3,0&#xa;&#x9;&#x9;&#x9;c1.1,0.6,2.1,1.3,3,2.1c0.3,0.2,0.7-0.2,0.5-0.5C49.7,40.8,47.3,39.4,45.2,39.9z M32,35c-2.1-1-4.4-2-6-3.7s-2.8-5-0.9-6.9&#xa;&#x9;&#x9;&#x9;s5.2-0.8,7,0.8s2.7,3.9,3.7,6s2.2,5.2,4.7,5.8c-0.3,0.6-0.7,1.1-1.1,1.5c-0.5,0.5-1,0.9-1.7,1.1C37.2,37.1,34,36,32,35z M36.2,42&#xa;&#x9;&#x9;&#x9;c0.1-0.7,2.8-2.3,3.8-3.1s1.9-3.1,2.5-3.2c1.2-0.3,1.3,0.9,0.6,1.8c-0.2,0.3-0.5,0.7-0.8,1c-0.5,0.6-1.1,1.1-1.7,1.7&#xa;&#x9;&#x9;&#x9;s-2.1,2-2.2,2.1C37.7,43,36.1,43.6,36.2,42L36.2,42z M40.7,43.4c-0.5,0.4-1,1-1.7,0.8c-0.4-0.1-0.7-0.5-0.6-0.9&#xa;&#x9;&#x9;&#x9;c1.1-0.8,2-1.6,2.9-2.6c0.9-0.8,1.8-1.8,2.5-2.8c1.1-0.2,1,1.2,0.3,2c-0.6,0.6-1.2,1.2-1.8,1.8C41.7,42.2,41.2,42.8,40.7,43.4&#xa;&#x9;&#x9;&#x9;L40.7,43.4z" class="st4"/>
   <path d="M119,123.2c-0.4,0.6-0.5,1.3-0.2,2c0.2,0.5,0.7,0.9,1.2,0.9c-0.3,0.6-0.2,1.3,0.3,1.8c1,1.1,2.1,0,3-1.2&#xa;&#x9;&#x9;&#x9;c2.7,1.2,3.7,4.6,4.8,7c0.8,2.1,2.1,3.9,3.8,5.4c2.1,1.6,5.8,2.6,7.9,0.4s1.1-6.1-0.7-8.1c-3.1-3.7-9.8-4-12.1-8.2&#xa;&#x9;&#x9;&#x9;c1.3-1,2.5-2.2,1.4-3.3c-0.5-0.5-1.3-0.6-1.9-0.2c0-0.5-0.3-0.9-0.8-1.1c-0.7-0.3-1.4-0.2-2,0.2c0.6-2.1-0.9-4.6-2.7-6&#xa;&#x9;&#x9;&#x9;c-0.3-0.2-0.7,0.2-0.5,0.5c0.8,0.9,1.5,1.9,2.1,3c0.5,1.1,0.5,2.3,0,3.3c-0.7,1.1-1.6,2-2.8,2.7c-1,0.5-2.2,0.5-3.3,0&#xa;&#x9;&#x9;&#x9;c-1.1-0.6-2-1.3-2.9-2.1c-0.3-0.2-0.7,0.2-0.5,0.5C114.5,122.2,116.9,123.6,119,123.2z M132.2,128.2c2.1,1,4.4,1.9,5.9,3.7&#xa;&#x9;&#x9;&#x9;s2.8,5,0.9,6.9s-5.2,0.8-7-0.8s-2.7-3.9-3.7-6s-2.2-5.2-4.7-5.8c0.3-0.6,0.7-1.1,1.1-1.5c0.5-0.5,1-0.9,1.7-1.1&#xa;&#x9;&#x9;&#x9;C127,126,130.1,127.1,132.2,128.2L132.2,128.2z M128,121.2c-0.1,0.8-2.8,2.3-3.8,3.1s-1.9,3.1-2.5,3.2c-1.2,0.3-1.3-0.9-0.6-1.8&#xa;&#x9;&#x9;&#x9;c0.2-0.3,0.5-0.7,0.8-1c0.5-0.6,1.1-1.1,1.7-1.7s2.1-2,2.2-2.1C126.5,120,128.1,119.5,128,121.2L128,121.2z M123.5,119.7&#xa;&#x9;&#x9;&#x9;c0.4-0.4,1-1,1.7-0.8c0.4,0.1,0.7,0.5,0.6,0.9c-1.1,0.8-2,1.7-2.9,2.6c-0.9,0.8-1.8,1.7-2.6,2.8c-1.1,0.2-1-1.2-0.3-2&#xa;&#x9;&#x9;&#x9;s1.2-1.1,1.8-1.8S123,120.3,123.5,119.7L123.5,119.7z" class="st4"/>
   <g id="HmINMv.tif">
    <path d="M62.3,82.1c-0.1,0.5-0.3,1-0.5,1.5c-0.1,0.2-0.4,0.3-0.6,0.4c-1.7,0.6-3.5,1-5.2,1.7&#xa;&#x9;&#x9;&#x9;&#x9;c-0.7,0.3-1.3,0.6-1.8,1.1c-1.2,1-1.2,2.1,0,3c0.8,0.6,1.6,1,2.5,1.4c2.7,1,5.5,1.7,8.3,2.1c4.4,0.7,8.8,1.1,13.2,1.1h0.5v-3.4&#xa;&#x9;&#x9;&#x9;&#x9;l0.2-0.1l6.6,5.5l-6.7,5.6v-4c-0.3,0-0.6,0-0.8,0c-7.3-0.1-14.5-1.1-21.5-3.1c-2.1-0.5-4-1.4-5.8-2.6c-2.6-1.9-2.6-4,0-5.8&#xa;&#x9;&#x9;&#x9;&#x9;c2.3-1.5,4.8-2.5,7.5-3.1C59.5,82.7,60.8,82.4,62.3,82.1z" class="st5"/>
    <path d="M101.8,83.6l0.5-1.5c2.2,0.6,4.4,1.1,6.5,1.9c1.6,0.6,3.2,1.3,4.6,2.2c2.7,1.7,2.7,4,0.1,5.8&#xa;&#x9;&#x9;&#x9;&#x9;c-2,1.4-4.3,2.4-6.7,2.9c-5,1.3-10.1,2.2-15.2,2.5c-1.3,0.1-2.6,0.2-3.9,0.2c-0.2,0-0.5,0-0.7,0v-3.5c1.6-0.1,3.1-0.2,4.7-0.3&#xa;&#x9;&#x9;&#x9;&#x9;c4.8-0.2,9.5-1,14.1-2.3c1.1-0.4,2.2-0.8,3.3-1.3c0.3-0.1,0.6-0.3,0.8-0.5c1.6-1.1,1.6-2.3,0-3.4c-1.7-1.1-3.5-1.8-5.4-2.2&#xa;&#x9;&#x9;&#x9;&#x9;C103.6,84,102.7,83.8,101.8,83.6z" class="st5"/>
    <path d="M101.1,77.4c0.1,2.1-0.3,4.1-1.2,6c-1.3,2.7-4.5,3.8-7.1,2.5c-0.4-0.2-0.8-0.5-1.2-0.8&#xa;&#x9;&#x9;&#x9;&#x9;c-1.1-1.1-1.9-2.5-2.2-4.1c-0.8-3-0.5-6.2,0.7-9c0.9-2.6,3.6-4,6.3-3.4c2.2,0.4,3.3,2,4,3.9C100.9,74.1,101.1,75.7,101.1,77.4z&#xa;&#x9;&#x9;&#x9;&#x9; M97.9,77.5L97.9,77.5c0-1.7-0.4-3.3-1-4.9c-0.4-1-1.6-1.5-2.6-1.1c-0.5,0.2-0.8,0.5-1.1,1c-0.3,0.5-0.5,1-0.7,1.6&#xa;&#x9;&#x9;&#x9;&#x9;c-0.4,1.8-0.6,3.6-0.3,5.5c0.1,1.1,0.4,2.2,1,3.2c0.5,1,1.8,1.3,2.7,0.7c0.3-0.2,0.6-0.4,0.7-0.7c0.3-0.6,0.6-1.2,0.7-1.8&#xa;&#x9;&#x9;&#x9;&#x9;C97.7,79.7,97.8,78.6,97.9,77.5z" class="st5"/>
    <path d="M86.6,68.5v2.8c-3-0.1-5.4,0.8-6.8,3.7c0.8-0.3,1.6-0.5,2.5-0.6c3-0.4,5.6,1.7,6,4.7c0.1,0.4,0.1,0.9,0,1.3&#xa;&#x9;&#x9;&#x9;&#x9;c0,2.8-1.9,5.2-4.6,5.8c-3.1,0.8-6.3-1-7.1-4.1c-1.3-3.8-0.4-8,2.3-10.9C80.9,69.1,83.6,68.5,86.6,68.5z M85.4,80.1&#xa;&#x9;&#x9;&#x9;&#x9;c0.1-1.7-1.2-3.3-2.9-3.4c-0.2,0-0.5,0-0.7,0c-1.5,0.4-2.5,1.7-2.5,3.2c-0.1,1.5,0.9,2.9,2.3,3.4c1.7,0.3,3.4-0.8,3.7-2.5&#xa;&#x9;&#x9;&#x9;&#x9;C85.4,80.6,85.4,80.3,85.4,80.1z" class="st5"/>
    <path d="M64.2,82.3c1.1,0.8,2.3,1.2,3.6,1.2c0.6,0,1.3-0.1,1.9-0.3c1-0.3,1.6-1.2,1.6-2.2c0.2-1-0.3-1.9-1.2-2.3&#xa;&#x9;&#x9;&#x9;&#x9;c-0.9-0.3-1.8-0.5-2.7-0.6c-0.5,0-1,0-1.4,0v-2.7c0.5,0,1,0,1.5,0c0.7-0.1,1.5-0.3,2.2-0.5c0.9-0.3,1.4-1.3,1.1-2.2&#xa;&#x9;&#x9;&#x9;&#x9;c-0.2-0.8-0.9-1.4-1.8-1.5c-1.2-0.1-2.3,0.2-3.3,0.8l-0.7,0.5c-0.3-0.8-0.6-1.6-0.8-2.3c0-0.2,0.1-0.4,0.2-0.5&#xa;&#x9;&#x9;&#x9;&#x9;c1.8-1.3,5.2-2,7.7-0.6c2,1.2,2.7,3.8,1.5,5.9c-0.3,0.4-0.6,0.8-1,1.1l-0.5,0.4c0.1,0.1,0.1,0.2,0.2,0.2c3.3,1.7,3.2,6.3,0.4,8.3&#xa;&#x9;&#x9;&#x9;&#x9;c-2.7,1.6-6.2,1.6-8.9,0c-0.1-0.1-0.3-0.3-0.2-0.4C63.5,84,63.8,83.2,64.2,82.3z" class="st5"/>
    <path d="M105.2,73.3c-1.9,0-3.5-1.5-3.5-3.4s1.5-3.5,3.4-3.5c1.9,0,3.5,1.5,3.5,3.4&#xa;&#x9;&#x9;&#x9;&#x9;C108.6,71.8,107.1,73.3,105.2,73.3C105.2,73.3,105.2,73.3,105.2,73.3z M106.9,69.9c0-0.9-0.7-1.7-1.7-1.7c-0.9,0-1.7,0.7-1.7,1.7&#xa;&#x9;&#x9;&#x9;&#x9;c0,0.9,0.7,1.7,1.7,1.7C106.1,71.6,106.9,70.9,106.9,69.9C106.9,69.9,106.9,69.9,106.9,69.9z" class="st5"/>
   </g>
  </g>
 </g>
</svg>
