<svg xmlns="http://www.w3.org/2000/svg" viewBox="0 0 164.18 163.06">
 <defs>
  <style>.cls-1,.cls-2{fill:#273a53;}.cls-2,.cls-3{stroke:#273a53;stroke-miterlimit:10;stroke-width:0.63px;}.cls-3{fill:none;}.cls-4{fill:#fff;}</style>
 </defs>
 <g id="Capa_2" data-name="Capa 2">
  <g id="Capa_1-2" data-name="Capa 1">
   <path d="M40.61,82a36.35,36.35,0,0,0,.14,6.84,35.94,35.94,0,0,0,1.49,6.41,41.56,41.56,0,0,0,6,11.6,41,41,0,0,0,20.47,14.81c17.12,5.39,36.46-1.34,47.42-15.34A41.19,41.19,0,0,0,125,81.48a39,39,0,0,0-6.56-21.56A45.21,45.21,0,0,0,100.18,43.6a42.79,42.79,0,0,0-26.76-3.12A42,42,0,0,0,51.07,52.7a41.19,41.19,0,0,0-10.7,22.85,37.69,37.69,0,0,0-.3,6.46,1.24,1.24,0,0,0,2.47,0A41,41,0,0,1,49.45,59.1a39,39,0,0,1,18.6-14.38,39.79,39.79,0,0,1,45.07,12.17,39.89,39.89,0,0,1,9,19.11,37.51,37.51,0,0,1-4.57,23.6C109.4,114.13,92.25,123,75.68,120.72a37.8,37.8,0,0,1-21.52-11A43,43,0,0,1,43.08,88.2,56.42,56.42,0,0,1,42,82,.7.7,0,0,0,40.61,82Z" class="cls-1"/>
   <path d="M35.81,82.07a42.17,42.17,0,0,0,.2,7.54,41.05,41.05,0,0,0,1.7,7.25,46.51,46.51,0,0,0,6.72,12.92,45.47,45.47,0,0,0,22.9,16.48c19,5.92,40.49-1.62,52.65-17.18a45.76,45.76,0,0,0,9.83-27.53,43.42,43.42,0,0,0-7.2-23.93,50.3,50.3,0,0,0-20.49-18.31,47.52,47.52,0,0,0-29.7-3.46A46.78,46.78,0,0,0,47.57,49.42,45.88,45.88,0,0,0,35.63,74.74a43.81,43.81,0,0,0-.36,7.33,1.24,1.24,0,0,0,2.47,0,45.77,45.77,0,0,1,7.79-25.75,43.59,43.59,0,0,1,21-16.1,45.64,45.64,0,0,1,28.39-1A46.06,46.06,0,0,1,116.82,54a44.53,44.53,0,0,1,10,21.49,42,42,0,0,1-5.21,26.49c-9.1,16.16-28.19,26-46.66,23.5a42.24,42.24,0,0,1-24.2-12.28A47.73,47.73,0,0,1,38.35,89a57.74,57.74,0,0,1-1.15-6.9A.7.7,0,0,0,35.81,82.07Z" class="cls-1"/>
   <path d="M32.23,82.12a46,46,0,0,0,.27,8.22,44.56,44.56,0,0,0,1.79,7.57,49.79,49.79,0,0,0,7.12,13.82,49,49,0,0,0,24.66,17.89c20.41,6.41,43.49-1.61,56.6-18.26A49.36,49.36,0,0,0,133.38,81.7a46.63,46.63,0,0,0-7.75-25.89,54,54,0,0,0-21.85-19.6,51.08,51.08,0,0,0-32.06-3.82A50.26,50.26,0,0,0,44.88,47.06a49.3,49.3,0,0,0-12.8,27.22,46.71,46.71,0,0,0-.39,7.84,1.24,1.24,0,0,0,2.47,0,49.24,49.24,0,0,1,8.48-27.91A47.07,47.07,0,0,1,65.17,37,49.28,49.28,0,0,1,96,35.9a49.73,49.73,0,0,1,23.59,15.88A48,48,0,0,1,130.41,75.1a45.44,45.44,0,0,1-5.7,28.58c-9.88,17.43-30.56,28.08-50.51,25.25a45.67,45.67,0,0,1-26-13.3A51.44,51.44,0,0,1,34.84,89.7a62.61,62.61,0,0,1-1.21-7.58A.7.7,0,0,0,32.23,82.12Z" class="cls-1"/>
   <path d="M81.47,35.48a3.21,3.21,0,0,0-3,2.35,3,3,0,0,0,.17,2.11,2.76,2.76,0,0,0,1.5,1.27,3.14,3.14,0,0,0,3.48-.65,3.36,3.36,0,0,0,.47-3.74c-.64-1.2-2.06-1.34-3.27-1.34a1,1,0,1,0,0,1.92l.61,0h.24l.14,0c-.32,0-.11,0,0,0a3.47,3.47,0,0,1,.46.13c-.31-.1-.06,0,0,0s.14.14-.06-.06a.94.94,0,0,0,.1.1l.08.08c.11.12-.14-.21,0-.06l.07.12c0,.09,0,.18,0-.06,0,.09.07.18.09.28l0,.14c0,.17,0-.23,0,0v.33c0,.09-.07.2,0,0,0,0,0,.07,0,.1a2.81,2.81,0,0,1-.08.31c0,.1-.12.17,0,0,0,.06-.06.13-.1.19s-.1.14-.14.22c.1-.21.09-.11,0,0l-.11.11c-.08.08-.17.08,0,0a.6.6,0,0,1-.13.09l-.09.05c-.22.12.15,0,0,0a3,3,0,0,0-.32.08c.17-.07.16,0,0,0h-.4c-.09,0-.21-.07,0,0l-.2,0-.25-.07-.15-.06c.24.06.12.06,0,0a2.2,2.2,0,0,1-.26-.15c-.13-.08.06,0,.07.05s-.11-.09-.15-.13,0-.14,0,0a1.48,1.48,0,0,0-.08-.13c-.06-.11,0-.15,0,0l0-.13s0-.09,0-.14c0-.2,0,.24,0,0v-.39c0-.21,0,.23,0,0a1.24,1.24,0,0,1,0-.16.88.88,0,0,1,0-.15.49.49,0,0,1,0-.11q-.1.23,0,.09a2.59,2.59,0,0,1,.19-.33c0-.08.08,0-.05.06a1.07,1.07,0,0,0,.14-.16l.12-.11.08-.07-.06.05.27-.16c.17-.09-.22.07,0,0l.21-.07a.9.9,0,0,0,.16,0c-.17,0-.2,0-.1,0h.11a1,1,0,0,0,1-1,1,1,0,0,0-1-1Z" class="cls-1"/>
   <path d="M81.47,121.62a3.21,3.21,0,0,0-3,2.35,3,3,0,0,0,.17,2.11,2.72,2.72,0,0,0,1.5,1.27,3.14,3.14,0,0,0,3.48-.65,3.36,3.36,0,0,0,.47-3.74c-.64-1.2-2.06-1.34-3.27-1.34a1,1,0,0,0,0,1.93h.85l.14,0c-.32,0-.11,0,0,0a3.47,3.47,0,0,1,.46.13c-.31-.1-.06,0,0,0s.14.14-.06,0l.1.09.08.08c.11.12-.14-.21,0-.06l.07.12c0,.09,0,.18,0-.06,0,.1.07.18.09.28l0,.14c0,.17,0-.23,0,0v.33c0,.1-.07.2,0,0,0,0,0,.07,0,.1a2.81,2.81,0,0,1-.08.31c0,.1-.12.17,0,0,0,.06-.06.13-.1.19s-.1.14-.14.22c.1-.21.09-.11,0,0l-.11.11c-.08.08-.17.08,0,0a1.48,1.48,0,0,1-.13.08l-.09.06c-.22.12.15,0,0,0a1.67,1.67,0,0,0-.32.08c.17-.08.16,0,0,0h-.4c-.09,0-.21-.07,0,0l-.2,0-.25-.07-.15-.06c.24.06.12.06,0,0l-.26-.16c-.13-.08.06,0,.07.06a1,1,0,0,0-.15-.14c-.08-.09,0-.14,0,0l-.08-.13c-.06-.11,0-.15,0,0l0-.13s0-.09,0-.13c0-.2,0,.23,0,0v-.39c0-.21,0,.23,0,0a2.87,2.87,0,0,1,.09-.32.3.3,0,0,1,0-.1c-.07.14-.08.17,0,.08a3.54,3.54,0,0,1,.19-.33c0-.08.08,0-.05.06a.73.73,0,0,0,.14-.16l.12-.11.08-.07c-.12.1-.14.11-.06.06l.27-.17c.17-.09-.22.07,0,0l.21-.07a.9.9,0,0,0,.16,0c-.17,0-.2,0-.1,0h.11a1,1,0,0,0,0-1.93Z" class="cls-1"/>
   <path d="M48.9,49a3.13,3.13,0,0,0-.68,3.17,2.84,2.84,0,0,0,2.85,2A3.41,3.41,0,0,0,54,51.72a3.31,3.31,0,0,0-1.59-3.41,2.48,2.48,0,0,0-2.26-.18,5.22,5.22,0,0,0-1.66,1.26,1,1,0,0,0,1.36,1.36c.17-.17.34-.34.51-.49l.13-.12c.08-.06.19-.09,0,0,.1,0,.18-.13.27-.18l.13-.08c.1,0,.19,0,0,0l.28-.08c-.18.07-.21,0-.12,0h.15c.13,0,.12.07-.06,0l.21,0c.19,0-.2-.11,0,0l.17.09.11.07c.19.11-.13-.12,0,0a2.39,2.39,0,0,1,.23.22s.07.09.11.12c-.1-.13-.12-.15-.06-.07l.06.08.13.23c0,.08.06.21,0,0,0,0,0,.09,0,.14l.08.29c0,.19,0-.24,0-.05v.3c0,.19.05-.24,0-.06s-.07.2-.08.3l.05-.14a1,1,0,0,0,0,.1l-.07.11a.67.67,0,0,0-.07.11c.09-.11.11-.14,0-.06l-.06.07-.23.22,0,0,.06-.05a.28.28,0,0,0-.11.08c-.09,0-.17.11-.26.15s-.11,0-.15.07l.08,0-.11,0-.15,0c-.11,0-.21,0,0,0H50.8l-.15,0h0l.08,0s-.14-.07-.18-.1l-.08-.06c-.16-.1.17.16,0,0l-.2-.2c0-.06-.11-.18,0,.05a.76.76,0,0,1-.08-.11c0-.08-.1-.16-.14-.24s0-.21,0,.06c0-.05,0-.11-.07-.17a2.82,2.82,0,0,1-.07-.31c0-.15,0,.13,0,.12s0-.15,0-.18,0-.21,0-.31c0,.28,0,.17,0,.07a1,1,0,0,1,0-.17.29.29,0,0,1,0-.09c0-.09.14-.24,0,0,0-.09.09-.18.15-.27s.14-.14,0,.05l.13-.14A1,1,0,0,0,48.9,49Z" class="cls-1"/>
   <path d="M109.81,109.87a3.13,3.13,0,0,0-.68,3.17,2.84,2.84,0,0,0,2.85,2,3.38,3.38,0,0,0,2.91-2.46,3.29,3.29,0,0,0-1.59-3.41,2.46,2.46,0,0,0-2.25-.18,5.58,5.58,0,0,0-1.67,1.26,1,1,0,0,0,1.36,1.36c.17-.17.34-.34.52-.49a.69.69,0,0,1,.13-.11c.07-.07.18-.09,0,0,.1,0,.18-.13.27-.18l.13-.08c.1,0,.19,0,0,0l.28-.08c-.18.07-.21,0-.11,0H112c.14,0,.12.07,0,0l.2,0c.19,0-.2-.11,0,0l.17.09.11.07c.19.12-.13-.11,0,0a2.39,2.39,0,0,1,.23.22s.07.09.11.12c-.1-.13-.12-.15-.06-.07l.06.08.13.23c0,.08.06.21,0,0,0,0,0,.09,0,.14s.06.2.08.29,0-.24,0-.05v.3c0,.19,0-.24,0-.06s-.07.2-.08.3l.06-.14s0,.07-.05.1l-.07.11a.75.75,0,0,0-.07.12l.05-.07a.46.46,0,0,0-.07.07,1.58,1.58,0,0,1-.23.22l0,0,.06-.05-.11.08a1.35,1.35,0,0,1-.26.15l-.15.08c.15-.06.17-.08.08,0l-.11,0-.15,0c-.11,0-.2,0,0,0h-.22l-.15,0h0l.08,0s-.14-.07-.18-.1l-.08,0c-.15-.1.18.15,0,0l-.19-.2c-.06-.06-.12-.18,0,.05a.44.44,0,0,1-.08-.11c0-.08-.1-.16-.14-.24s0-.2,0,.06a.85.85,0,0,1-.06-.17,1.57,1.57,0,0,1-.08-.31c0-.15,0,.13,0,.12s0-.14,0-.18,0-.21,0-.31c0,.29,0,.17,0,.07a1.36,1.36,0,0,1,0-.17s0-.06,0-.09.14-.23,0,0c0-.09.09-.18.15-.27s.14-.14,0,.05l.12-.14a1,1,0,0,0-1.36-1.36Z" class="cls-1"/>
   <path d="M112.75,50.32l.09.1c.12.13-.13-.2,0-.05s.1.15.14.23.06.21,0-.06c0,0,0,.08,0,.12s.05.18.07.26,0,.21,0-.07c0,0,0,.09,0,.13v.27s0,.06,0,.09c0-.29,0-.16,0-.07s0,.2-.08.3a1.12,1.12,0,0,0,0,.13c.08-.27.06-.14,0-.06a1.28,1.28,0,0,1-.11.2.83.83,0,0,1-.08.12c-.1.15.16-.19,0-.05s-.15.15-.23.23.17-.11.07,0l-.1.07-.13.08c-.17.1.21-.07,0,0l-.16,0c-.18.06.25,0,0,0H112c.29,0,.13,0,0,0l-.16,0-.15-.05.13.05-.1,0-.27-.15-.11-.08c-.08-.06-.06,0,.06.05l-.08-.07a2.39,2.39,0,0,1-.23-.22l-.1-.11c.14.11.09.12,0,0s-.08-.18-.14-.26c.13.18.06.15,0,0s0-.13-.05-.2,0,.25,0,.06,0-.1,0-.15a.31.31,0,0,1,0-.1c0-.09,0-.22,0,0,0-.09,0-.19.07-.29a.88.88,0,0,1,0-.15c.05-.15-.11.23,0,0l.13-.23a.6.6,0,0,0,.09-.13c-.11.22-.07.1,0,0a2.39,2.39,0,0,1,.22-.23l0,0,0,0s.13-.09.17-.11l.16-.09c.1-.05.07,0-.07,0l.11,0a.8.8,0,0,0,.15,0H112c.17,0-.26-.05,0,0l.14,0c.16.05-.23-.11,0,0l.31.19.09.07c-.25-.16,0,0,0,0a8.08,8.08,0,0,1,.6.57,1,1,0,0,0,1.36-1.36,5.88,5.88,0,0,0-1.39-1.14,2.47,2.47,0,0,0-2-.2A3.37,3.37,0,0,0,109,51.17a3.29,3.29,0,0,0,2.4,2.9,2.6,2.6,0,0,0,2.06-.21,3,3,0,0,0,1.16-1.25,3.19,3.19,0,0,0-.47-3.65,1,1,0,0,0-1.36,1.36Z" class="cls-1"/>
   <path d="M51.84,111.23l.09.1c.12.13-.14-.2,0,0s.1.15.14.23.06.21,0-.06c0,0,0,.08,0,.12s.05.18.07.26,0,.22,0-.07c0,0,0,.09,0,.13v.27a.28.28,0,0,0,0,.09c0-.29,0-.16,0-.07s0,.21-.08.31a.61.61,0,0,0,0,.12c.08-.26.06-.14,0-.06a1.28,1.28,0,0,1-.11.2.83.83,0,0,1-.08.12c-.1.15.16-.18,0-.05s-.15.15-.23.23.17-.11.07,0l-.1.07-.13.08c-.17.1.21-.06,0,0l-.16,0c-.18.06.24,0,0,0h-.32c.29,0,.13,0,0,0l-.16,0-.15-.06.12.06-.1,0-.26-.15-.11-.08c-.08-.06-.06,0,.06.05a.27.27,0,0,1-.08-.07,1.58,1.58,0,0,1-.23-.22l-.1-.11c.14.11.09.13,0,0s-.08-.18-.14-.26c.13.18.06.15,0,0s0-.13-.05-.2,0,.25,0,.06,0-.1,0-.15v-.1c0-.09.06-.21,0,0,0-.09,0-.19.07-.29a.88.88,0,0,1,0-.15c.05-.15-.11.23,0,0l.13-.23a.94.94,0,0,0,.09-.12c-.12.21-.07.1,0,0a2.39,2.39,0,0,1,.22-.23l0,0,0,0a.62.62,0,0,1,.17-.11l.16-.09-.07,0,.11,0a.8.8,0,0,0,.15,0h.09c.16,0-.26-.05,0,0l.14,0c.16,0-.23-.11,0,0l.31.19.09.07c-.25-.16,0,0,0,0a8.08,8.08,0,0,1,.6.57,1,1,0,0,0,1.36-1.36,5.6,5.6,0,0,0-1.39-1.13,2.43,2.43,0,0,0-2-.21,3.37,3.37,0,0,0-2.21,3.12,3.29,3.29,0,0,0,2.4,2.9,2.6,2.6,0,0,0,2.06-.21,3.11,3.11,0,0,0,1.16-1.25,3.21,3.21,0,0,0-.47-3.65,1,1,0,0,0-1.36,1.36Z" class="cls-1"/>
   <path d="M36,81.55a3.21,3.21,0,0,0,2.35,3,3,3,0,0,0,2.11-.17,2.72,2.72,0,0,0,1.27-1.5,3.14,3.14,0,0,0-.64-3.47,3.36,3.36,0,0,0-3.75-.48c-1.2.65-1.33,2.06-1.34,3.27a1,1,0,0,0,1.93,0c0-.2,0-.4,0-.61s0-.16,0-.24a.68.68,0,0,0,0-.14c0,.33,0,.11,0,0a3.47,3.47,0,0,1,.13-.46c-.1.31,0,.06,0,0s.14-.15,0,.06l.09-.11.08-.07c.12-.12-.21.13-.06,0l.12-.07c.09-.05.18,0-.06,0a2.29,2.29,0,0,0,.28-.09l.14,0c.17,0-.23,0,0,0a1.82,1.82,0,0,1,.33,0c.1,0,.2.06,0,0l.1,0a1.92,1.92,0,0,1,.32.09c.09,0,.16.11,0,0l.19.09c.08,0,.14.1.22.14-.21-.1-.11-.08,0,0l.11.11c.07.08.07.17,0,0l.08.13L40,81c.12.23,0-.15,0,0s0,.23.08.33c-.08-.18,0-.17,0-.05v.1c0,.1,0,.2,0,.3s-.07.21,0,0c0,.06,0,.14,0,.2a2.5,2.5,0,0,1-.07.26.58.58,0,0,0,0,.14c.06-.24,0-.12,0,0a2.4,2.4,0,0,1-.16.27c-.08.12.05-.07.06-.08a1,1,0,0,0-.14.15c-.09.08-.14,0,0,0l-.13.08c-.1.07-.15,0,0,0l-.13,0-.13,0c-.2,0,.23,0,0,0H39c-.2,0,.24,0,0,0l-.16,0-.16-.05-.1,0,.08,0-.33-.2c-.08-.05,0-.08.07,0,0,0-.12-.09-.17-.14l-.11-.12-.07-.08c.1.13.12.15.06.07L38,81.9c-.09-.17.08.22,0,0a1.52,1.52,0,0,1-.06-.2c0-.06,0-.11,0-.16,0,.16,0,.19,0,.09v-.11a1,1,0,0,0-1.93,0Z" class="cls-1"/>
   <path d="M122.68,81.55a3.21,3.21,0,0,0,2.35,3,3,3,0,0,0,2.11-.17,2.72,2.72,0,0,0,1.27-1.5,3.14,3.14,0,0,0-.64-3.47,3.36,3.36,0,0,0-3.75-.48c-1.2.65-1.34,2.06-1.34,3.27a1,1,0,0,0,1.93,0c0-.2,0-.4,0-.61s0-.16,0-.24a.68.68,0,0,0,0-.14c0,.33,0,.11,0,0a3.47,3.47,0,0,1,.13-.46c-.1.31,0,.06,0,0s.14-.15,0,.06l.09-.11.08-.07c.12-.12-.21.13-.06,0l.12-.07c.09-.05.18,0-.06,0,.1,0,.18-.06.28-.09l.14,0c.17,0-.23,0,0,0a1.82,1.82,0,0,1,.33,0c.1,0,.2.06,0,0l.1,0a1.58,1.58,0,0,1,.31.09c.1,0,.17.11,0,0l.19.09c.07,0,.14.1.22.14-.21-.1-.11-.08,0,0a1.14,1.14,0,0,1,.11.11c.08.08.08.17,0,0l.08.13.06.09c.12.23,0-.15,0,0a2,2,0,0,0,.08.33c-.08-.18,0-.17,0-.05a.34.34,0,0,1,0,.1c0,.1,0,.2,0,.3s-.07.21,0,0a1.42,1.42,0,0,0,0,.2,2.5,2.5,0,0,1-.07.26l-.06.14c.06-.24.06-.12,0,0s-.11.18-.16.27,0-.07.06-.08a1,1,0,0,0-.14.15c-.09.08-.14,0,0,0l-.13.08c-.11.07-.15,0,0,0l-.13,0-.13,0c-.2,0,.23,0,0,0h-.39c-.2,0,.23,0,0,0l-.16,0-.16-.05-.1,0,.08,0-.33-.2c-.08-.05,0-.08.06,0,0,0-.11-.09-.16-.14l-.11-.12-.07-.08c.1.13.11.15.06.07l-.17-.28c-.09-.17.07.22,0,0a1.52,1.52,0,0,1-.06-.2c0-.06,0-.11,0-.16,0,.16,0,.19,0,.09v-.11a1,1,0,0,0-1.93,0Z" class="cls-1"/>
   <path d="M84.88,26.56a2,2,0,0,0,1.59-1.25,1.32,1.32,0,0,0-.22-1.51,1.61,1.61,0,0,0,1.06-1.44c.06-1.52-1.48-1.53-3-1.3-1-2.71.67-5.84,1.56-8.38A14.35,14.35,0,0,0,87,6.19C86.61,3.57,84.68.27,81.65.32s-5.05,3.5-5.29,6.22c-.44,4.83,4.09,9.74,2.73,14.4-1.61-.2-3.35-.17-3.34,1.36A1.65,1.65,0,0,0,77,23.86a1.23,1.23,0,0,0-.25,1.35,1.93,1.93,0,0,0,1.6,1.28c-1.9,1.13-2.63,3.9-2.33,6.1,0,.33.62.32.67,0A15.72,15.72,0,0,1,77.27,29a4.14,4.14,0,0,1,2.38-2.35,7.54,7.54,0,0,1,3.86,0A3.93,3.93,0,0,1,85.82,29a15.72,15.72,0,0,1,.62,3.55c0,.32.62.33.66,0C87.4,30.43,86.7,27.72,84.88,26.56ZM79,13.72c-.75-2.18-1.71-4.48-1.59-6.83S79,1.41,81.71,1.39s4.22,3.12,4.36,5.51-.82,4.65-1.58,6.84-2.1,5.22-.78,7.42a8.2,8.2,0,0,1-1.87.31,4.38,4.38,0,0,1-2-.42C81.19,18.9,79.78,15.9,79,13.72Zm-1.91,7.91c.56-.48,3.61.36,4.87.44s3.51-.82,4.07-.49c1.08.62.24,1.53-.87,1.7-.34,0-.92.13-1.26.14a23.43,23.43,0,0,1-2.37,0c-.83,0-2.88-.09-3.06-.11C77.39,23.49,75.85,22.71,77.11,21.63Zm2.12,4.16c-.62,0-1.47,0-1.82-.64a.79.79,0,0,1,.24-1.08,17.61,17.61,0,0,0,3.89.17,18.7,18.7,0,0,0,3.75-.14c.92.65-.18,1.53-1.18,1.63a23.87,23.87,0,0,1-2.54-.07C80.79,25.67,80,25.81,79.23,25.79Z" class="cls-2"/>
   <path d="M78.19,136.51a2,2,0,0,0-1.6,1.24,1.35,1.35,0,0,0,.22,1.52,1.61,1.61,0,0,0-1.06,1.43c0,1.53,1.48,1.54,3,1.31,1,2.7-.68,5.84-1.56,8.38a14.34,14.34,0,0,0-1.1,6.49c.35,2.62,2.29,5.92,5.32,5.87s5-3.5,5.29-6.23c.43-4.82-4.09-9.74-2.73-14.4,1.61.2,3.34.17,3.33-1.36a1.66,1.66,0,0,0-1.21-1.56,1.19,1.19,0,0,0,.25-1.34,2,2,0,0,0-1.6-1.29c1.9-1.12,2.64-3.9,2.33-6.09a.34.34,0,0,0-.66,0,15.75,15.75,0,0,1-.63,3.54,4.16,4.16,0,0,1-2.38,2.36,7.4,7.4,0,0,1-3.85,0A4,4,0,0,1,77.24,134a16.31,16.31,0,0,1-.62-3.54.34.34,0,0,0-.66,0C75.66,132.63,76.36,135.34,78.19,136.51ZM84,149.35c.76,2.17,1.72,4.47,1.59,6.82s-1.56,5.49-4.28,5.5-4.21-3.11-4.36-5.5.82-4.66,1.58-6.85,2.1-5.21.78-7.41a7.84,7.84,0,0,1,1.87-.31,4.35,4.35,0,0,1,2,.41C81.88,144.16,83.28,147.17,84,149.35ZM86,141.43c-.57.49-3.61-.36-4.88-.44s-3.51.82-4.07.5c-1.08-.63-.24-1.53.88-1.71.33-.05.91-.13,1.25-.14.83-.07,1.54,0,2.37,0s2.89.09,3.07.1C85.68,139.58,87.21,140.35,86,141.43Zm-2.13-4.15c.63,0,1.48,0,1.82.64a.76.76,0,0,1-.24,1.07,17.59,17.59,0,0,0-3.89-.17,19.61,19.61,0,0,0-3.75.15c-.92-.66.18-1.53,1.18-1.64s1.69.08,2.55.07S83.05,137.26,83.83,137.28Z" class="cls-2"/>
   <path d="M26.56,78.19a2,2,0,0,0-1.25-1.6,1.33,1.33,0,0,0-1.51.22,1.62,1.62,0,0,0-1.44-1.06c-1.52,0-1.53,1.48-1.3,3-2.71,1-5.84-.68-8.38-1.56a14.36,14.36,0,0,0-6.49-1.1C3.57,76.45.27,78.39.32,81.42s3.5,5,6.22,5.29c4.83.43,9.74-4.09,14.4-2.73-.2,1.61-.17,3.34,1.36,3.33a1.65,1.65,0,0,0,1.56-1.21,1.21,1.21,0,0,0,1.35.25,1.93,1.93,0,0,0,1.28-1.6c1.13,1.9,3.9,2.64,6.1,2.33a.35.35,0,0,0,0-.66A15.73,15.73,0,0,1,29,85.79a4.14,4.14,0,0,1-2.35-2.38,7.51,7.51,0,0,1,0-3.85A4,4,0,0,1,29,77.24a16.3,16.3,0,0,1,3.55-.62.35.35,0,0,0,0-.66C30.43,75.66,27.72,76.36,26.56,78.19ZM13.72,84c-2.18.76-4.48,1.72-6.83,1.59s-5.48-1.56-5.5-4.28S4.51,77.14,6.9,77s4.65.82,6.84,1.58,5.22,2.1,7.42.78a8.38,8.38,0,0,1,.31,1.87,4.35,4.35,0,0,1-.42,2C18.9,81.88,15.9,83.28,13.72,84ZM21.63,86c-.48-.57.36-3.61.44-4.88s-.82-3.51-.49-4.07c.62-1.08,1.53-.24,1.7.88,0,.33.13.91.14,1.25a23.43,23.43,0,0,1,0,2.37c0,.83-.09,2.89-.11,3.07C23.49,85.68,22.71,87.21,21.63,86Zm4.16-2.13c0,.63,0,1.48-.64,1.82a.78.78,0,0,1-1.08-.24,17.59,17.59,0,0,0,.17-3.89,18.7,18.7,0,0,0-.14-3.75c.65-.92,1.53.18,1.63,1.18a24.05,24.05,0,0,1-.07,2.55C25.67,82.27,25.81,83.05,25.79,83.83Z" class="cls-1"/>
   <path d="M137.62,84.88a2,2,0,0,0,1.25,1.59,1.32,1.32,0,0,0,1.51-.22,1.6,1.6,0,0,0,1.44,1.06c1.52.06,1.53-1.48,1.3-3,2.71-1,5.84.67,8.38,1.56A14.35,14.35,0,0,0,158,87c2.62-.35,5.92-2.28,5.87-5.31s-3.5-5.05-6.22-5.29c-4.83-.44-9.74,4.09-14.4,2.73.2-1.61.17-3.35-1.37-3.34A1.65,1.65,0,0,0,140.32,77a1.23,1.23,0,0,0-1.35-.25,1.93,1.93,0,0,0-1.28,1.6c-1.13-1.9-3.9-2.63-6.1-2.33-.33,0-.32.62,0,.67a15.72,15.72,0,0,1,3.55.62,4.14,4.14,0,0,1,2.35,2.38,7.54,7.54,0,0,1,0,3.86,3.93,3.93,0,0,1-2.31,2.31,15.72,15.72,0,0,1-3.55.62c-.32,0-.33.62,0,.66C133.75,87.4,136.46,86.7,137.62,84.88ZM150.46,79c2.18-.75,4.48-1.71,6.82-1.59s5.49,1.56,5.51,4.28-3.12,4.22-5.51,4.36-4.65-.82-6.84-1.58-5.22-2.1-7.42-.78a7.68,7.68,0,0,1-.31-1.87,4.38,4.38,0,0,1,.42-2C145.27,81.19,148.28,79.78,150.46,79Zm-7.91-1.91c.48.56-.36,3.61-.45,4.87s.83,3.51.5,4.07c-.63,1.08-1.53.24-1.7-.87a9,9,0,0,1-.14-1.26,23.43,23.43,0,0,1,0-2.37c0-.83.09-2.88.11-3.06C140.69,77.39,141.47,75.85,142.55,77.11Zm-4.16,2.12c0-.62,0-1.47.64-1.82a.79.79,0,0,1,1.08.24,17.61,17.61,0,0,0-.17,3.89,18.7,18.7,0,0,0,.14,3.75c-.65.92-1.53-.18-1.63-1.18a21.49,21.49,0,0,1,.07-2.54C138.51,80.79,138.37,80,138.39,79.23Z" class="cls-1"/>
   <path d="M26.56,78.19a2,2,0,0,0-1.25-1.6,1.33,1.33,0,0,0-1.51.22,1.62,1.62,0,0,0-1.44-1.06c-1.52,0-1.53,1.48-1.3,3-2.71,1-5.84-.68-8.38-1.56a14.36,14.36,0,0,0-6.49-1.1C3.57,76.45.27,78.39.32,81.42s3.5,5,6.22,5.29c4.83.43,9.74-4.09,14.4-2.73-.2,1.61-.17,3.34,1.36,3.33a1.65,1.65,0,0,0,1.56-1.21,1.21,1.21,0,0,0,1.35.25,1.93,1.93,0,0,0,1.28-1.6c1.13,1.9,3.9,2.64,6.1,2.33a.35.35,0,0,0,0-.66A15.73,15.73,0,0,1,29,85.79a4.14,4.14,0,0,1-2.35-2.38,7.51,7.51,0,0,1,0-3.85A4,4,0,0,1,29,77.24a16.3,16.3,0,0,1,3.55-.62.35.35,0,0,0,0-.66C30.43,75.66,27.72,76.36,26.56,78.19ZM13.72,84c-2.18.76-4.48,1.72-6.83,1.59s-5.48-1.56-5.5-4.28S4.51,77.14,6.9,77s4.65.82,6.84,1.58,5.22,2.1,7.42.78a8.38,8.38,0,0,1,.31,1.87,4.35,4.35,0,0,1-.42,2C18.9,81.88,15.9,83.28,13.72,84ZM21.63,86c-.48-.57.36-3.61.44-4.88s-.82-3.51-.49-4.07c.62-1.08,1.53-.24,1.7.88,0,.33.13.91.14,1.25a23.43,23.43,0,0,1,0,2.37c0,.83-.09,2.89-.11,3.07C23.49,85.68,22.71,87.21,21.63,86Zm4.16-2.13c0,.63,0,1.48-.64,1.82a.78.78,0,0,1-1.08-.24,17.59,17.59,0,0,0,.17-3.89,18.7,18.7,0,0,0-.14-3.75c.65-.92,1.53.18,1.63,1.18a24.05,24.05,0,0,1-.07,2.55C25.67,82.27,25.81,83.05,25.79,83.83Z" class="cls-1"/>
   <path d="M137.62,84.88a2,2,0,0,0,1.25,1.59,1.32,1.32,0,0,0,1.51-.22,1.6,1.6,0,0,0,1.44,1.06c1.52.06,1.53-1.48,1.3-3,2.71-1,5.84.67,8.38,1.56A14.35,14.35,0,0,0,158,87c2.62-.35,5.92-2.28,5.87-5.31s-3.5-5.05-6.22-5.29c-4.83-.44-9.74,4.09-14.4,2.73.2-1.61.17-3.35-1.37-3.34A1.65,1.65,0,0,0,140.32,77a1.23,1.23,0,0,0-1.35-.25,1.93,1.93,0,0,0-1.28,1.6c-1.13-1.9-3.9-2.63-6.1-2.33-.33,0-.32.62,0,.67a15.72,15.72,0,0,1,3.55.62,4.14,4.14,0,0,1,2.35,2.38,7.54,7.54,0,0,1,0,3.86,3.93,3.93,0,0,1-2.31,2.31,15.72,15.72,0,0,1-3.55.62c-.32,0-.33.62,0,.66C133.75,87.4,136.46,86.7,137.62,84.88ZM150.46,79c2.18-.75,4.48-1.71,6.82-1.59s5.49,1.56,5.51,4.28-3.12,4.22-5.51,4.36-4.65-.82-6.84-1.58-5.22-2.1-7.42-.78a7.68,7.68,0,0,1-.31-1.87,4.38,4.38,0,0,1,.42-2C145.27,81.19,148.28,79.78,150.46,79Zm-7.91-1.91c.48.56-.36,3.61-.45,4.87s.83,3.51.5,4.07c-.63,1.08-1.53.24-1.7-.87a9,9,0,0,1-.14-1.26,23.43,23.43,0,0,1,0-2.37c0-.83.09-2.88.11-3.06C140.69,77.39,141.47,75.85,142.55,77.11Zm-4.16,2.12c0-.62,0-1.47.64-1.82a.79.79,0,0,1,1.08.24,17.61,17.61,0,0,0-.17,3.89,18.7,18.7,0,0,0,.14,3.75c-.65.92-1.53-.18-1.63-1.18a21.49,21.49,0,0,1,.07-2.54C138.51,80.79,138.37,80,138.39,79.23Z" class="cls-1"/>
   <path d="M26.56,78.19a2,2,0,0,0-1.25-1.6,1.33,1.33,0,0,0-1.51.22,1.62,1.62,0,0,0-1.44-1.06c-1.52,0-1.53,1.48-1.3,3-2.71,1-5.84-.68-8.38-1.56a14.36,14.36,0,0,0-6.49-1.1C3.57,76.45.27,78.39.32,81.42s3.5,5,6.22,5.29c4.83.43,9.74-4.09,14.4-2.73-.2,1.61-.17,3.34,1.36,3.33a1.65,1.65,0,0,0,1.56-1.21,1.21,1.21,0,0,0,1.35.25,1.93,1.93,0,0,0,1.28-1.6c1.13,1.9,3.9,2.64,6.1,2.33a.35.35,0,0,0,0-.66A15.73,15.73,0,0,1,29,85.79a4.14,4.14,0,0,1-2.35-2.38,7.51,7.51,0,0,1,0-3.85A4,4,0,0,1,29,77.24a16.3,16.3,0,0,1,3.55-.62.35.35,0,0,0,0-.66C30.43,75.66,27.72,76.36,26.56,78.19ZM13.72,84c-2.18.76-4.48,1.72-6.83,1.59s-5.48-1.56-5.5-4.28S4.51,77.14,6.9,77s4.65.82,6.84,1.58,5.22,2.1,7.42.78a8.38,8.38,0,0,1,.31,1.87,4.35,4.35,0,0,1-.42,2C18.9,81.88,15.9,83.28,13.72,84ZM21.63,86c-.48-.57.36-3.61.44-4.88s-.82-3.51-.49-4.07c.62-1.08,1.53-.24,1.7.88,0,.33.13.91.14,1.25a23.43,23.43,0,0,1,0,2.37c0,.83-.09,2.89-.11,3.07C23.49,85.68,22.71,87.21,21.63,86Zm4.16-2.13c0,.63,0,1.48-.64,1.82a.78.78,0,0,1-1.08-.24,17.59,17.59,0,0,0,.17-3.89,18.7,18.7,0,0,0-.14-3.75c.65-.92,1.53.18,1.63,1.18a24.05,24.05,0,0,1-.07,2.55C25.67,82.27,25.81,83.05,25.79,83.83Z" class="cls-3"/>
   <path d="M137.62,84.88a2,2,0,0,0,1.25,1.59,1.32,1.32,0,0,0,1.51-.22,1.6,1.6,0,0,0,1.44,1.06c1.52.06,1.53-1.48,1.3-3,2.71-1,5.84.67,8.38,1.56A14.35,14.35,0,0,0,158,87c2.62-.35,5.92-2.28,5.87-5.31s-3.5-5.05-6.22-5.29c-4.83-.44-9.74,4.09-14.4,2.73.2-1.61.17-3.35-1.37-3.34A1.65,1.65,0,0,0,140.32,77a1.23,1.23,0,0,0-1.35-.25,1.93,1.93,0,0,0-1.28,1.6c-1.13-1.9-3.9-2.63-6.1-2.33-.33,0-.32.62,0,.67a15.72,15.72,0,0,1,3.55.62,4.14,4.14,0,0,1,2.35,2.38,7.54,7.54,0,0,1,0,3.86,3.93,3.93,0,0,1-2.31,2.31,15.72,15.72,0,0,1-3.55.62c-.32,0-.33.62,0,.66C133.75,87.4,136.46,86.7,137.62,84.88ZM150.46,79c2.18-.75,4.48-1.71,6.82-1.59s5.49,1.56,5.51,4.28-3.12,4.22-5.51,4.36-4.65-.82-6.84-1.58-5.22-2.1-7.42-.78a7.68,7.68,0,0,1-.31-1.87,4.38,4.38,0,0,1,.42-2C145.27,81.19,148.28,79.78,150.46,79Zm-7.91-1.91c.48.56-.36,3.61-.45,4.87s.83,3.51.5,4.07c-.63,1.08-1.53.24-1.7-.87a9,9,0,0,1-.14-1.26,23.43,23.43,0,0,1,0-2.37c0-.83.09-2.88.11-3.06C140.69,77.39,141.47,75.85,142.55,77.11Zm-4.16,2.12c0-.62,0-1.47.64-1.82a.79.79,0,0,1,1.08.24,17.61,17.61,0,0,0-.17,3.89,18.7,18.7,0,0,0,.14,3.75c-.65.92-1.53-.18-1.63-1.18a21.49,21.49,0,0,1,.07-2.54C138.51,80.79,138.37,80,138.39,79.23Z" class="cls-3"/>
   <path d="M122.93,44.63a2,2,0,0,0,2,.25,1.34,1.34,0,0,0,.92-1.23,1.6,1.6,0,0,0,1.76-.26c1.12-1,0-2.14-1.2-3,1.18-2.65,4.61-3.65,7-4.83a14.3,14.3,0,0,0,5.36-3.81c1.61-2.1,2.57-5.8.4-7.91s-6.05-1.09-8.15.66c-3.72,3.1-4,9.78-8.25,12.12-1-1.29-2.24-2.49-3.32-1.4a1.66,1.66,0,0,0-.25,1.95,1.23,1.23,0,0,0-1.13.78,1.94,1.94,0,0,0,.23,2c-2.14-.55-4.62.9-6,2.66-.2.27.2.67.47.47a15.77,15.77,0,0,1,3-2.06,4.2,4.2,0,0,1,3.35,0,7.61,7.61,0,0,1,2.69,2.77,3.87,3.87,0,0,1,0,3.26,15.77,15.77,0,0,1-2.06,3c-.2.27.2.67.47.47C122,49.16,123.4,46.74,122.93,44.63Zm4.94-13.22c1-2.07,1.95-4.38,3.7-5.95s5-2.78,6.92-.86.78,5.18-.81,7-3.87,2.71-6,3.73-5.17,2.2-5.79,4.69a7.43,7.43,0,0,1-1.54-1.11,4.48,4.48,0,0,1-1.11-1.68C125.74,36.61,126.87,33.49,127.87,31.41Zm-7,4.24c.75.06,2.3,2.81,3.14,3.76s3.06,1.9,3.23,2.53c.31,1.2-.92,1.25-1.83.59a12.53,12.53,0,0,1-1-.79c-.64-.54-1.12-1.06-1.7-1.65s-2-2.11-2.1-2.24C119.81,37.16,119.27,35.53,120.92,35.65Zm-1.43,4.45c-.44-.46-1-1.05-.84-1.75a.78.78,0,0,1,.93-.59,17.1,17.1,0,0,0,2.64,2.87A18.27,18.27,0,0,0,125,43.19c.18,1.11-1.21,1-2,.32s-1.14-1.25-1.76-1.85S120,40.66,119.49,40.1Z" class="cls-2"/>
   <path d="M40.46,117.65a2,2,0,0,0-2-.25,1.33,1.33,0,0,0-.92,1.22,1.61,1.61,0,0,0-1.76.27c-1.12,1,0,2.13,1.2,3-1.18,2.64-4.61,3.65-7,4.82a14.41,14.41,0,0,0-5.36,3.81c-1.61,2.11-2.57,5.81-.4,7.91s6.05,1.1,8.15-.65c3.72-3.11,4-9.79,8.25-12.12,1,1.28,2.24,2.48,3.32,1.4a1.67,1.67,0,0,0,.25-2,1.23,1.23,0,0,0,1.13-.78,1.94,1.94,0,0,0-.23-2c2.15.55,4.62-.89,6-2.66.2-.27-.2-.66-.47-.47a15.83,15.83,0,0,1-2.95,2.07,4.16,4.16,0,0,1-3.35,0,7.5,7.5,0,0,1-2.69-2.76,3.89,3.89,0,0,1,0-3.27,15.84,15.84,0,0,1,2.06-2.94c.2-.27-.2-.67-.47-.47C41.41,113.12,40,115.53,40.46,117.65Zm-4.94,13.21c-1,2.08-2,4.38-3.7,6s-5,2.77-6.92.86-.78-5.18.81-7,3.87-2.71,6-3.72,5.17-2.2,5.79-4.69a7.51,7.51,0,0,1,1.54,1.1,4.51,4.51,0,0,1,1.11,1.69C37.66,125.67,36.52,128.78,35.52,130.86Zm6.95-4.24c-.75-.05-2.3-2.81-3.14-3.76s-3.06-1.9-3.22-2.52c-.32-1.21.91-1.26,1.82-.59a10.58,10.58,0,0,1,1,.79,20.39,20.39,0,0,1,1.7,1.65c.59.58,2,2.1,2.1,2.24C43.58,125.11,44.12,126.75,42.47,126.62Zm1.43-4.44c.44.45,1,1,.84,1.74a.77.77,0,0,1-.93.59,17.93,17.93,0,0,0-2.64-2.87,18.82,18.82,0,0,0-2.75-2.55c-.18-1.11,1.21-1,2-.32a25.53,25.53,0,0,1,1.76,1.85C42.72,121.16,43.36,121.62,43.9,122.18Z" class="cls-2"/>
   <path d="M45.19,39.9a2,2,0,0,0,.24-2A1.31,1.31,0,0,0,44.21,37a1.62,1.62,0,0,0-.27-1.77c-1-1.12-2.13,0-3,1.2-2.65-1.18-3.65-4.6-4.83-7A14.3,14.3,0,0,0,32.26,24c-2.1-1.6-5.81-2.57-7.91-.39s-1.09,6,.66,8.14c3.1,3.72,9.78,4,12.11,8.25-1.28,1-2.48,2.25-1.39,3.32a1.64,1.64,0,0,0,2,.25,1.23,1.23,0,0,0,.78,1.13,2,2,0,0,0,2-.22c-.55,2.14.89,4.61,2.66,6,.27.2.66-.2.47-.47A16.59,16.59,0,0,1,41.56,47a4.2,4.2,0,0,1,0-3.35A7.53,7.53,0,0,1,44.34,41a3.93,3.93,0,0,1,3.27,0,15.83,15.83,0,0,1,3,2.07c.26.19.67-.21.47-.47C49.71,40.85,47.3,39.43,45.19,39.9ZM32,35c-2.07-1-4.38-2-5.95-3.7s-2.78-5-.86-6.92,5.18-.78,7,.81,2.71,3.88,3.73,6,2.2,5.18,4.69,5.8a8.13,8.13,0,0,1-1.11,1.54,4.41,4.41,0,0,1-1.69,1.1C37.17,37.1,34.05,36,32,35Zm4.24,6.95c.06-.74,2.81-2.3,3.76-3.13s1.9-3.07,2.52-3.23c1.21-.32,1.26.91.59,1.82a12.58,12.58,0,0,1-.78,1c-.54.64-1.07,1.11-1.65,1.7s-2.11,2-2.25,2.09C37.72,43,36.08,43.56,36.21,41.91Zm4.44,1.44c-.45.43-1,1-1.74.83a.78.78,0,0,1-.59-.93,17.54,17.54,0,0,0,2.87-2.63,19,19,0,0,0,2.55-2.76c1.12-.18.95,1.22.32,2a21.86,21.86,0,0,1-1.85,1.75C41.67,42.16,41.22,42.81,40.65,43.35Z" class="cls-1"/>
   <path d="M119,123.16a2,2,0,0,0-.25,2,1.35,1.35,0,0,0,1.23.92,1.6,1.6,0,0,0,.27,1.76c1,1.12,2.13,0,3-1.2,2.65,1.18,3.65,4.61,4.83,7a14.3,14.3,0,0,0,3.81,5.36c2.1,1.61,5.81,2.57,7.91.4s1.09-6.05-.66-8.15c-3.1-3.72-9.78-4-12.11-8.25,1.28-1,2.48-2.24,1.39-3.32a1.66,1.66,0,0,0-1.95-.25,1.23,1.23,0,0,0-.78-1.13,1.94,1.94,0,0,0-2,.23c.55-2.14-.9-4.62-2.66-6-.27-.2-.67.21-.47.47a16.31,16.31,0,0,1,2.07,3,4.2,4.2,0,0,1,0,3.35,7.58,7.58,0,0,1-2.76,2.69,3.89,3.89,0,0,1-3.27,0,15.77,15.77,0,0,1-2.95-2.06c-.26-.2-.67.2-.47.47C114.47,122.21,116.88,123.64,119,123.16Zm13.22,5c2.07,1,4.38,1.94,5.95,3.69s2.78,5,.86,6.92-5.18.78-7-.81-2.71-3.87-3.73-6-2.2-5.17-4.69-5.79a8.13,8.13,0,0,1,1.11-1.54,4.33,4.33,0,0,1,1.68-1.1C127,126,130.13,127.1,132.21,128.11Zm-4.24-7c-.06.75-2.81,2.3-3.76,3.14s-1.9,3.06-2.52,3.23c-1.21.31-1.26-.92-.6-1.83a12.53,12.53,0,0,1,.79-1c.54-.64,1.07-1.12,1.65-1.7s2.11-2,2.25-2.1C126.46,120,128.1,119.5,128,121.15Zm-4.44-1.43c.45-.43,1-1,1.74-.84a.78.78,0,0,1,.59.93,17.1,17.1,0,0,0-2.87,2.64,17.78,17.78,0,0,0-2.55,2.75c-1.12.18-1-1.21-.33-2s1.25-1.14,1.85-1.76S123,120.26,123.53,119.72Z" class="cls-1"/>
   <path d="M45.19,39.9a2,2,0,0,0,.24-2A1.31,1.31,0,0,0,44.21,37a1.62,1.62,0,0,0-.27-1.77c-1-1.12-2.13,0-3,1.2-2.65-1.18-3.65-4.6-4.83-7A14.3,14.3,0,0,0,32.26,24c-2.1-1.6-5.81-2.57-7.91-.39s-1.09,6,.66,8.14c3.1,3.72,9.78,4,12.11,8.25-1.28,1-2.48,2.25-1.39,3.32a1.64,1.64,0,0,0,2,.25,1.23,1.23,0,0,0,.78,1.13,2,2,0,0,0,2-.22c-.55,2.14.89,4.61,2.66,6,.27.2.66-.2.47-.47A16.59,16.59,0,0,1,41.56,47a4.2,4.2,0,0,1,0-3.35A7.53,7.53,0,0,1,44.34,41a3.93,3.93,0,0,1,3.27,0,15.83,15.83,0,0,1,3,2.07c.26.19.67-.21.47-.47C49.71,40.85,47.3,39.43,45.19,39.9ZM32,35c-2.07-1-4.38-2-5.95-3.7s-2.78-5-.86-6.92,5.18-.78,7,.81,2.71,3.88,3.73,6,2.2,5.18,4.69,5.8a8.13,8.13,0,0,1-1.11,1.54,4.41,4.41,0,0,1-1.69,1.1C37.17,37.1,34.05,36,32,35Zm4.24,6.95c.06-.74,2.81-2.3,3.76-3.13s1.9-3.07,2.52-3.23c1.21-.32,1.26.91.59,1.82a12.58,12.58,0,0,1-.78,1c-.54.64-1.07,1.11-1.65,1.7s-2.11,2-2.25,2.09C37.72,43,36.08,43.56,36.21,41.91Zm4.44,1.44c-.45.43-1,1-1.74.83a.78.78,0,0,1-.59-.93,17.54,17.54,0,0,0,2.87-2.63,19,19,0,0,0,2.55-2.76c1.12-.18.95,1.22.32,2a21.86,21.86,0,0,1-1.85,1.75C41.67,42.16,41.22,42.81,40.65,43.35Z" class="cls-1"/>
   <path d="M119,123.16a2,2,0,0,0-.25,2,1.35,1.35,0,0,0,1.23.92,1.6,1.6,0,0,0,.27,1.76c1,1.12,2.13,0,3-1.2,2.65,1.18,3.65,4.61,4.83,7a14.3,14.3,0,0,0,3.81,5.36c2.1,1.61,5.81,2.57,7.91.4s1.09-6.05-.66-8.15c-3.1-3.72-9.78-4-12.11-8.25,1.28-1,2.48-2.24,1.39-3.32a1.66,1.66,0,0,0-1.95-.25,1.23,1.23,0,0,0-.78-1.13,1.94,1.94,0,0,0-2,.23c.55-2.14-.9-4.62-2.66-6-.27-.2-.67.21-.47.47a16.31,16.31,0,0,1,2.07,3,4.2,4.2,0,0,1,0,3.35,7.58,7.58,0,0,1-2.76,2.69,3.89,3.89,0,0,1-3.27,0,15.77,15.77,0,0,1-2.95-2.06c-.26-.2-.67.2-.47.47C114.47,122.21,116.88,123.64,119,123.16Zm13.22,5c2.07,1,4.38,1.94,5.95,3.69s2.78,5,.86,6.92-5.18.78-7-.81-2.71-3.87-3.73-6-2.2-5.17-4.69-5.79a8.13,8.13,0,0,1,1.11-1.54,4.33,4.33,0,0,1,1.68-1.1C127,126,130.13,127.1,132.21,128.11Zm-4.24-7c-.06.75-2.81,2.3-3.76,3.14s-1.9,3.06-2.52,3.23c-1.21.31-1.26-.92-.6-1.83a12.53,12.53,0,0,1,.79-1c.54-.64,1.07-1.12,1.65-1.7s2.11-2,2.25-2.1C126.46,120,128.1,119.5,128,121.15Zm-4.44-1.43c.45-.43,1-1,1.74-.84a.78.78,0,0,1,.59.93,17.1,17.1,0,0,0-2.87,2.64,17.78,17.78,0,0,0-2.55,2.75c-1.12.18-1-1.21-.33-2s1.25-1.14,1.85-1.76S123,120.26,123.53,119.72Z" class="cls-1"/>
   <path d="M45.19,39.9a2,2,0,0,0,.24-2A1.31,1.31,0,0,0,44.21,37a1.62,1.62,0,0,0-.27-1.77c-1-1.12-2.13,0-3,1.2-2.65-1.18-3.65-4.6-4.83-7A14.3,14.3,0,0,0,32.26,24c-2.1-1.6-5.81-2.57-7.91-.39s-1.09,6,.66,8.14c3.1,3.72,9.78,4,12.11,8.25-1.28,1-2.48,2.25-1.39,3.32a1.64,1.64,0,0,0,2,.25,1.23,1.23,0,0,0,.78,1.13,2,2,0,0,0,2-.22c-.55,2.14.89,4.61,2.66,6,.27.2.66-.2.47-.47A16.59,16.59,0,0,1,41.56,47a4.2,4.2,0,0,1,0-3.35A7.53,7.53,0,0,1,44.34,41a3.93,3.93,0,0,1,3.27,0,15.83,15.83,0,0,1,3,2.07c.26.19.67-.21.47-.47C49.71,40.85,47.3,39.43,45.19,39.9ZM32,35c-2.07-1-4.38-2-5.95-3.7s-2.78-5-.86-6.92,5.18-.78,7,.81,2.71,3.88,3.73,6,2.2,5.18,4.69,5.8a8.13,8.13,0,0,1-1.11,1.54,4.41,4.41,0,0,1-1.69,1.1C37.17,37.1,34.05,36,32,35Zm4.24,6.95c.06-.74,2.81-2.3,3.76-3.13s1.9-3.07,2.52-3.23c1.21-.32,1.26.91.59,1.82a12.58,12.58,0,0,1-.78,1c-.54.64-1.07,1.11-1.65,1.7s-2.11,2-2.25,2.09C37.72,43,36.08,43.56,36.21,41.91Zm4.44,1.44c-.45.43-1,1-1.74.83a.78.78,0,0,1-.59-.93,17.54,17.54,0,0,0,2.87-2.63,19,19,0,0,0,2.55-2.76c1.12-.18.95,1.22.32,2a21.86,21.86,0,0,1-1.85,1.75C41.67,42.16,41.22,42.81,40.65,43.35Z" class="cls-3"/>
   <path d="M119,123.16a2,2,0,0,0-.25,2,1.35,1.35,0,0,0,1.23.92,1.6,1.6,0,0,0,.27,1.76c1,1.12,2.13,0,3-1.2,2.65,1.18,3.65,4.61,4.83,7a14.3,14.3,0,0,0,3.81,5.36c2.1,1.61,5.81,2.57,7.91.4s1.09-6.05-.66-8.15c-3.1-3.72-9.78-4-12.11-8.25,1.28-1,2.48-2.24,1.39-3.32a1.66,1.66,0,0,0-1.95-.25,1.23,1.23,0,0,0-.78-1.13,1.94,1.94,0,0,0-2,.23c.55-2.14-.9-4.62-2.66-6-.27-.2-.67.21-.47.47a16.31,16.31,0,0,1,2.07,3,4.2,4.2,0,0,1,0,3.35,7.58,7.58,0,0,1-2.76,2.69,3.89,3.89,0,0,1-3.27,0,15.77,15.77,0,0,1-2.95-2.06c-.26-.2-.67.2-.47.47C114.47,122.21,116.88,123.64,119,123.16Zm13.22,5c2.07,1,4.38,1.94,5.95,3.69s2.78,5,.86,6.92-5.18.78-7-.81-2.71-3.87-3.73-6-2.2-5.17-4.69-5.79a8.13,8.13,0,0,1,1.11-1.54,4.33,4.33,0,0,1,1.68-1.1C127,126,130.13,127.1,132.21,128.11Zm-4.24-7c-.06.75-2.81,2.3-3.76,3.14s-1.9,3.06-2.52,3.23c-1.21.31-1.26-.92-.6-1.83a12.53,12.53,0,0,1,.79-1c.54-.64,1.07-1.12,1.65-1.7s2.11-2,2.25-2.1C126.46,120,128.1,119.5,128,121.15Zm-4.44-1.43c.45-.43,1-1,1.74-.84a.78.78,0,0,1,.59.93,17.1,17.1,0,0,0-2.87,2.64,17.78,17.78,0,0,0-2.55,2.75c-1.12.18-1-1.21-.33-2s1.25-1.14,1.85-1.76S123,120.26,123.53,119.72Z" class="cls-3"/>
   <path d="M123.73,77.68a40.65,40.65,0,0,0-3.86-13.26C116,56.61,108.48,47.91,99.68,45.57a2,2,0,0,0-2-1.12l-.37.06c0-.07-.09-.16-.26-.29l0,0a2.71,2.71,0,0,0-1-1.2c-1.45-1-3.92-1.12-5.58-1.41-4.25-.74-8.75-1.16-12.93.13-1.18,0-2.41.24-3.49.25a8.49,8.49,0,0,0-5.26,1.59,1.77,1.77,0,0,0-.46-.07,6.4,6.4,0,0,0-3.33.73A5.58,5.58,0,0,0,64,45a.31.31,0,0,0-.12.05,15.43,15.43,0,0,0-1.65,1.12,3.16,3.16,0,0,0-1.08.81.73.73,0,0,0-.17.38.66.66,0,0,0-.92.05l-2.16,2a.69.69,0,0,0-.79.14,39.89,39.89,0,0,0-4,4.18.73.73,0,0,0-.17.43l-.21.27c-.08.06-.17.11-.25.18-5,4.08-7.6,10.15-9,16.51a25.87,25.87,0,0,0-1.8,9,2.62,2.62,0,0,0-.09.33,18,18,0,0,0,.07,5.81,19.08,19.08,0,0,0,1.06,5.2l0,.16h0c.06.17.12.35.19.51a1.89,1.89,0,0,0,.43.64c.68,3.43,2.81,6.93,4.53,9.73a37.49,37.49,0,0,0,3.69,4.91,1.89,1.89,0,0,0,.71,1.79c2.83,2.49,5.62,5.55,8.92,7.4a98.51,98.51,0,0,0,10.93,4.82,1.71,1.71,0,0,0,1.37,0c7.1,1.54,15.94.3,22.62-2.06a33.28,33.28,0,0,0,8-4.67c.94-.6,1.86-1.23,2.74-1.89,2.17-1.39,4.7-2.89,5.7-5.18a27.59,27.59,0,0,0,2-2A31.45,31.45,0,0,0,121,94.78a1.27,1.27,0,0,0,0-.94c.28-.68.53-1.36.74-2a1,1,0,0,0,.84-.55C124.6,87.36,124.24,81.88,123.73,77.68ZM45.88,84.91c0-.2-.05-.4-.08-.6s0-.19,0-.28.1-.15.14-.23a8.55,8.55,0,0,0,.06,1Zm59.73-27,.1,0a7,7,0,0,0,.59,1,1.82,1.82,0,0,0-.09.56l-.17,0c-.56-.52-1.14-1-1.74-1.49A1.66,1.66,0,0,0,105.61,57.86ZM63.39,56.8h0a.7.7,0,0,0,.2.08l-.81.9ZM61.19,48a.81.81,0,0,0,.21.1l.2,0-.37.34-.16-.1A.85.85,0,0,0,61.19,48Zm-1,5.78a.51.51,0,0,0,.42-.11,1,1,0,0,0,0,.17l-.7.66a.5.5,0,0,0,0-.18C60,54.11,60.12,53.93,60.22,53.75Zm-4.28,47.13a4.66,4.66,0,0,0-.23-.75,1.33,1.33,0,0,0,.66,0,.7.7,0,0,0,.07.19A1.31,1.31,0,0,0,55.94,100.88Zm4.55,9.17-.7-.74a7.45,7.45,0,0,0,.71.43A1.09,1.09,0,0,0,60.49,110.05Zm13.45,4.71-1.08-.56s0-.07,0-.1a1.2,1.2,0,0,0,.63-.14,1.82,1.82,0,0,0,.3.23l.41.21Zm11.66,3.78a2.59,2.59,0,0,0,.19-.33,1.68,1.68,0,0,0,.16-.64,1.25,1.25,0,0,0,1.16.73l.44,0C86.9,118.38,86.25,118.47,85.6,118.54Zm12.71-9.17-1.51,1a1.06,1.06,0,0,0-.53,0l.15-.07c.66-.32,1.31-.67,1.94-1A1.17,1.17,0,0,1,98.31,109.37Zm4.54,2.36a1.31,1.31,0,0,0-.76-.23,1,1,0,0,0,0-.42,1.48,1.48,0,0,0,.78.61Zm-7.69-5.06a2.08,2.08,0,0,1-.88,1c-3.17,2-7.08,1.88-10.66,2.19-4,.35-8,.47-11.78-1-7.11-2.69-11.7-8.94-15.63-15.12-7.86-12.35-1.82-29.54,10.45-36.6a2.2,2.2,0,0,1,1.27-.3c.61-.29,1.22-.56,1.84-.82l.74-.62a2.53,2.53,0,0,0,.37.18,38.26,38.26,0,0,1,9.54-2.18A38.91,38.91,0,0,1,86,53.12l0,0,0,0a11.47,11.47,0,0,1,4.11.88,2.35,2.35,0,0,1,.47,0c5.58.11,10.88,5.56,14,9.72,3.61,4.76,6.53,10.21,7,16.26C112.4,90.85,105.18,102.45,95.16,106.67Zm18.23-34c-.1-.37-.2-.75-.31-1.13l.42,1Zm2-6.08c-.18-.4-.36-.79-.52-1.2h0l-.15-.35a1.27,1.27,0,0,0-.4-.5c0-.09,0-.19,0-.29a1.6,1.6,0,0,0,.18-.61q.26.45.48.9c.24.54.46,1.08.68,1.63A1.51,1.51,0,0,0,115.4,66.55ZM117.7,83v0a1.32,1.32,0,0,0-.18-.4,1.33,1.33,0,0,0,.24-.4,2.89,2.89,0,0,0,.13.77Z" class="cls-1"/>
   <path d="M52.88,81.85a28.8,28.8,0,0,0,19.76,27.94c12.16,3.91,25.86-.9,33.65-10.83a28,28,0,0,0,1.79-32.39A30.61,30.61,0,0,0,76.34,52.49,29.22,29.22,0,0,0,52.55,81.85a.75.75,0,0,0,1.5,0C54.27,70,61,59.32,72.37,55.23a28.78,28.78,0,0,1,31.9,8.68,26.66,26.66,0,0,1,3,30.73A30.21,30.21,0,0,1,78.44,109.5C64.26,108,54.9,95.44,53.72,81.85A.42.42,0,0,0,52.88,81.85Z" class="cls-1"/>
   <circle cy="81.19" class="cls-1" r="40.5" cx="82.28"/>
   <g id="HmINMv.tif">
    <path d="M62.3,82.06a11.38,11.38,0,0,1-.54,1.47c-.09.18-.4.28-.63.36-1.72.55-3.46,1-5.17,1.65a6.54,6.54,0,0,0-1.79,1.07c-1.21,1-1.22,2.11,0,3A11.54,11.54,0,0,0,56.67,91,36.51,36.51,0,0,0,65,93.08,94.69,94.69,0,0,0,78.17,94.2h.54V90.75l.17-.09,6.6,5.47-6.7,5.56v-4c-.31,0-.56,0-.81,0a83,83,0,0,1-21.49-3.06A18.8,18.8,0,0,1,50.72,92c-2.58-1.87-2.6-4,0-5.84a22.43,22.43,0,0,1,7.46-3.13C59.5,82.69,60.84,82.41,62.3,82.06Z" class="cls-4"/>
    <path d="M101.79,83.58l.54-1.52c2.19.61,4.39,1.11,6.5,1.86a22.82,22.82,0,0,1,4.64,2.24c2.69,1.73,2.68,4,.08,5.85a20.77,20.77,0,0,1-6.7,2.92,76.27,76.27,0,0,1-15.23,2.51c-1.31.1-2.62.17-3.93.25-.24,0-.47,0-.74,0V94.23c1.58-.1,3.12-.18,4.66-.3a66.39,66.39,0,0,0,14.08-2.27A33,33,0,0,0,109,90.37a3.61,3.61,0,0,0,.83-.52c1.56-1.12,1.57-2.33,0-3.45a16,16,0,0,0-5.44-2.2C103.55,84,102.7,83.79,101.79,83.58Z" class="cls-4"/>
    <path d="M101.06,77.37a12.92,12.92,0,0,1-1.22,6,5.36,5.36,0,0,1-8.32,1.76,7.46,7.46,0,0,1-2.16-4.1,14.21,14.21,0,0,1,.65-9,5.42,5.42,0,0,1,6.29-3.43c2.15.43,3.32,2,4,3.89A13.48,13.48,0,0,1,101.06,77.37Zm-3.15.11-.06,0a12.78,12.78,0,0,0-.92-4.9,2,2,0,0,0-3.65-.15A6.28,6.28,0,0,0,92.63,74a14.76,14.76,0,0,0-.33,5.46,7,7,0,0,0,1,3.22,2,2,0,0,0,3.47,0,5.37,5.37,0,0,0,.72-1.81C97.69,79.73,97.78,78.6,97.91,77.48Z" class="cls-4"/>
    <path d="M86.58,68.54v2.81c-3-.07-5.42.84-6.8,3.7a15.61,15.61,0,0,1,2.46-.63,5.39,5.39,0,0,1,6,6,6,6,0,0,1-4.58,5.84,5.84,5.84,0,0,1-7.12-4.06,10.71,10.71,0,0,1,2.28-10.88C80.86,69.13,83.6,68.54,86.58,68.54ZM85.42,80.05a3.16,3.16,0,0,0-3.62-3.37,3.28,3.28,0,0,0-2.46,3.23,3.33,3.33,0,0,0,2.32,3.41A3.14,3.14,0,0,0,85.42,80.05Z" class="cls-4"/>
    <path d="M64.15,82.35a6.66,6.66,0,0,0,3.6,1.25,5.85,5.85,0,0,0,1.86-.26,2.25,2.25,0,0,0,1.6-2.18A2.17,2.17,0,0,0,70,78.84a12.26,12.26,0,0,0-2.71-.61,8.7,8.7,0,0,0-1.45,0V75.54a10.42,10.42,0,0,0,1.48,0A9.11,9.11,0,0,0,69.48,75a1.84,1.84,0,0,0,1.11-2.2,1.87,1.87,0,0,0-1.8-1.46,5,5,0,0,0-3.3.84l-.73.49c-.29-.81-.58-1.57-.82-2.35a.55.55,0,0,1,.21-.47c1.78-1.27,5.25-2,7.66-.61a4.29,4.29,0,0,1,.56,7l-.54.44a.9.9,0,0,0,.23.21c3.29,1.72,3.18,6.31.36,8.33a8.76,8.76,0,0,1-8.9,0c-.12-.08-.26-.33-.22-.44C63.55,84,63.85,83.19,64.15,82.35Z" class="cls-4"/>
    <path d="M105.18,73.33a3.45,3.45,0,1,1,3.44-3.46A3.45,3.45,0,0,1,105.18,73.33Zm1.7-3.41a1.7,1.7,0,1,0-1.73,1.68A1.7,1.7,0,0,0,106.88,69.92Z" class="cls-4"/>
   </g>
  </g>
 </g>
</svg>
