<svg xmlns="http://www.w3.org/2000/svg" viewBox="0 0 128.42 174">
 <defs>
  <style>.cls-1{fill:#fff;}.cls-2{fill:#273a53;}</style>
 </defs>
 <g id="Capa_2" data-name="Capa 2">
  <g id="Capa_1-2" data-name="Capa 1">
   <polygon points="93.58 116 35.58 116 39.58 101 88.58 101 93.58 116" class="cls-1"/>
   <polygon points="84.58 100 44.58 99 53.58 16 74.58 15 84.58 100" class="cls-1"/>
   <path d="M21.18,7.45c4.16,2.65,8.45,5.17,12.73,7.61,3.65,2.08,7.43,4,11.68,4.41.63.07.66-.84.14-1a82.6,82.6,0,0,1-13-6.41C29.19,9.89,25.62,7.58,21.5,6.7A.41.41,0,0,0,21.18,7.45Z" class="cls-2"/>
   <path d="M44.58,21.71c-6.54.86-13.24-.56-19.79.55a.48.48,0,0,0,0,.92,55.06,55.06,0,0,0,10.89.48c3-.07,6.16.16,9-.95C45.2,22.52,45.19,21.63,44.58,21.71Z" class="cls-2"/>
   <path d="M34.13,30.05a45.6,45.6,0,0,0-10.24,7c-.34.32.08.8.47.61,6.54-3.3,12.54-8,19.32-10.79.37-.15.39-.83-.11-.79C40.16,26.41,37.08,28.45,34.13,30.05Z" class="cls-2"/>
   <path d="M128.33,157.93q0-16.69,0-33.4c0-6,1.23-15.09-6.5-16.51-4.57-.84-9.69-.23-14.31-.23-5.34,0-10.8-.3-16.12.11l-.15-.59c-.6-2.42-.88-5.28-2-7.51-.17-.33-.53-.18-.64.09-1.13-.16-2.28-.28-3.43-.37a22.27,22.27,0,0,0-.48-5.15c-.45-3.14-.8-6.29-1-9.45-.39-5.86-1-11.63-1.74-17.46C80.71,57.28,80.26,47,78.62,36.87a.66.66,0,0,0-.08-.53c0-.25-.08-.5-.13-.74a29.19,29.19,0,0,0,3.43-.5.29.29,0,0,0,.16-.42,8.9,8.9,0,0,0,.26-3.42,20.78,20.78,0,0,0-.24-4.1.4.4,0,0,0-.65-.19,13.39,13.39,0,0,0-4.29-.57c-.4-1.7-.89-3.4-1.16-5s-.25-3.79-1-5.4a26.92,26.92,0,0,0,3.51-.42.27.27,0,0,0,0-.53h0s0,0,0,0c.09.18.38.18.37-.06C78.65,8.1,71.52,0,64.37,0,57.71,0,48.58,7.89,49.21,14.91a.58.58,0,0,0,.41.49.33.33,0,0,0,.27.27c1.17.17,2.35.26,3.54.32-.74,1.61-.72,3.76-1,5.38s-.76,3.32-1.16,5c-1.45.06-2.89.17-4.31.36a.44.44,0,0,0-.28.14.36.36,0,0,0-.35.28,20,20,0,0,0-.24,4.1,8.76,8.76,0,0,0,.27,3.47.25.25,0,0,0,.22.36c1.13.1,2.27.17,3.4.22-1.86,10.63-2.28,21.45-3.6,32.15-.71,5.83-1.34,11.6-1.74,17.46-.18,2.75-.48,5.48-.83,8.21-.28,2.15-.84,4.25-.65,6.38-1.16.08-2.31.19-3.46.34-.12-.24-.46-.36-.61,0-1.09,2.23-1.37,5.09-2,7.51-.05.2-.11.4-.16.6-.76,0-1.53-.08-2.3-.1h-.23c-4.52-.15-9.07,0-13.58,0s-9.11-.42-13.52.11c-8.44,1-7.28,10.21-7.27,16.63v1.56a.67.67,0,0,0,0,.6l0,23.08v8.64a.73.73,0,0,0,0,.44v2c0,4.34-.22,10.1,4.51,12.16,3.76,1.64,8.62.79,12.68.79H29.91l34.37-.06c8.87,0,17.73,0,26.59-.24,6.45.23,12.9.22,19.34.24,4.15,0,9.82,1,13.74-.81C129.4,170.43,128.33,162.9,128.33,157.93ZM1.4,155.28v-.16l0,.09Zm0-4.57v-.24a.29.29,0,0,0,.1,0C1.46,150.53,1.43,150.62,1.39,150.71Zm0-13.28v-.07h0Zm0,14.4v-.53a.59.59,0,0,0,.19.22Zm87.43-1.42a3.1,3.1,0,0,0,1,1.62c0,.08-.05.15-.07.22a2,2,0,0,0-1.89,0C88.19,151.65,88.52,151,88.83,150.41Zm.79-33.6-.16-.08.28,0ZM63.48,165.14a2.86,2.86,0,0,0-.19.61h-.77Zm1.23-9.83a3.05,3.05,0,0,0-.34,1.56l-.06,0a2.76,2.76,0,0,0-.61-.57l.2-.17A11,11,0,0,0,64.71,155.31Zm-16.48,3.27-.84,1.71c0,.08-.06.16-.1.25a2.9,2.9,0,0,0-.59.09C47.23,160,47.73,159.28,48.23,158.58ZM35.5,113.77c0-.06,0-.12,0-.17l.06-.06C35.53,113.62,35.52,113.69,35.5,113.77ZM19,133.55c-.31.23-.62.45-.91.7l.81-1.13A3,3,0,0,0,19,133.55ZM4.83,126.89a11.14,11.14,0,0,1-1.14.94c.28-.56.56-1.13.85-1.69a.56.56,0,0,0,.61-.15.74.74,0,0,0,.12-.13l.1,0c-.07.15-.15.29-.23.44a.59.59,0,0,0,0,.19Zm4.63,39.74a2.28,2.28,0,0,0-.8.19,1.74,1.74,0,0,0-.47.24l-.08,0a5.93,5.93,0,0,0,2.45-1.74l0,.06-.18.15h0l0,.05a3.38,3.38,0,0,0-.48.53C9.74,166.26,9.6,166.45,9.46,166.63Zm-.22-49.9c-.79.76-1.61,1.5-2.45,2.2.29-.33.58-.65.88-1,.52-.5,1-1,1.52-1.57a.74.74,0,0,0,.19-.36c.51-.46,1-.94,1.48-1.41C10.3,115.29,9.77,116,9.24,116.73Zm-5,12.6a.52.52,0,0,0,.51,0c-.08.13-.17.25-.26.37a.73.73,0,0,0-.49.15.78.78,0,0,0-.59.19.76.76,0,0,0-.16-.11A6.11,6.11,0,0,0,4.26,129.33Zm22.42,43s0,0,.06.07H26ZM44.8,116.85l.87,0a3.09,3.09,0,0,0-.5.52A2.52,2.52,0,0,0,44.8,116.85Zm15.33-.12h2.1a13.66,13.66,0,0,0-1.5.29,1.06,1.06,0,0,0-.19.06A3.44,3.44,0,0,0,60.13,116.73Zm22.46.31,1,0-.79.4A2.88,2.88,0,0,0,82.59,117Zm13.67-7.83.59,0a2.58,2.58,0,0,0-.44.22C96.37,109.37,96.31,109.29,96.26,109.21Zm10.65.08a.39.39,0,0,0-.08-.1h.27Zm20,39.3v0Zm-8.37,12.79c-.06.25-.14.5-.2.76s-.17.79-.24,1.2a2.9,2.9,0,0,0-.51,0l.75-1.52C118.44,161.66,118.51,161.52,118.57,161.38Zm-2-52.32h.32l-.08,0Zm4.23.16.54.09a2.13,2.13,0,0,0-.33.11A1.31,1.31,0,0,0,120.84,109.22Zm-5-.16a3.16,3.16,0,0,0-1.93,1s0,0,0,0a3.36,3.36,0,0,0-.73-.91l2.44,0Zm-15.07.21a2.3,2.3,0,0,0-.43.25l-.1,0a5.71,5.71,0,0,0-.58-.21ZM91.89,109a1.77,1.77,0,0,0-.17.24l-.06-.25ZM76.68,46.17l-.05.07c.18-.51.35-1,.5-1.53l.06-.13A2.11,2.11,0,0,1,76.68,46.17Zm-3.6-2.09a0,0,0,0,1,0,0,11.3,11.3,0,0,0-.66,1.09.8.8,0,0,0-.35-.19.5.5,0,0,0,.27-.17c.21-.25.4-.51.6-.77Zm-.61-2.4a1.59,1.59,0,0,0-.42.19c.07-.2.14-.4.2-.62,0,0,0,0,0-.07a.54.54,0,0,0,.26.16v.16A1.16,1.16,0,0,1,72.47,41.68Zm-9.21,8.21.06-.13.12-.14a.66.66,0,0,0,.37.13,6.45,6.45,0,0,1-.49.65l0,0a.14.14,0,0,0,0-.06A.69.69,0,0,0,63.26,49.89Zm3.93,1.86a1.14,1.14,0,0,0-.52.09c.15-.25.3-.51.43-.78a.78.78,0,0,0,.5,0Zm-10.56-.42c-.12.19-.23.37-.36.56a.7.7,0,0,0-.12.45.72.72,0,0,0-.24-.22c.18-.39.35-.78.52-1.16h0A.61.61,0,0,0,56.63,51.33Zm-5.26,6a4.87,4.87,0,0,0-.35.42h0a.64.64,0,0,0-.1-.13,8.74,8.74,0,0,0,.58-1h0A1.68,1.68,0,0,0,51.37,57.36ZM49.2,54.8c0,.09-.07.18-.11.27,0-.1,0-.2,0-.3ZM60.88,57h0l0,0,0,0Zm8.85-4.26s0,0,0,.06l-.18.08Zm3-13.28-.08.1a.76.76,0,0,0,.06-.16s0,0,0,0l.1,0Zm-5.28,2.06-.09.05-.06,0v0l.17-.07ZM53.65,47.71l0,0,0,0ZM47.81,67.46c.14-1.14.27-2.28.4-3.43,5.71-2.54,11.43-5.07,17.1-7.69,2.82-1.3,5.6-2.66,8.41-4,1.64-.76,3.79-1.35,5.23-2.56,0,.32.06.65.08,1,.23,4.21.6,8.41,1,12.6-2.29,1.56-5,2.52-7.42,3.77-2.84,1.44-5.61,3-8.52,4.33-5.89,2.65-11.66,5.83-17.61,8.34C46.87,75.7,47.33,71.6,47.81,67.46Zm6.08,22a.77.77,0,0,0-.25-.1l0-.06a.67.67,0,0,0,.06-.77l.39-.27a.65.65,0,0,0,.58-.16l.17-.16c-.35.38-.67.71-.84.91A.77.77,0,0,0,53.89,89.43Zm5-6.14a.43.43,0,0,0-.13.28.45.45,0,0,0-.26.17,5.44,5.44,0,0,0-.41.42c.31-.42.62-.84.94-1.25l.23-.29a.63.63,0,0,0,.1.2C59.21,83,59.05,83.13,58.89,83.29Zm.32,2.86c-.7.61-1.4,1.22-2.11,1.82L59,85.88A.64.64,0,0,0,59.21,86.15Zm-3.85-7L54.6,80l0,0,.25-.45c.13-.17.27-.33.41-.5A.62.62,0,0,0,55.36,79.15ZM51.77,83.1l-.23.38c-.26.32-.54.64-.82,1,.28-.48.56-.92.66-1.09a3.72,3.72,0,0,1,.19-.34A.75.75,0,0,0,51.77,83.1Zm10.47-1.55a.69.69,0,0,0,.65-.15l.23-.2-.26.37a.41.41,0,0,0-.25.08l-.91.72A6.45,6.45,0,0,0,62.24,81.55Zm.66,6.94c.59-.62,1.15-1.25,1.69-1.9l.09,0a.78.78,0,0,0,.5.67l-.09.1a.66.66,0,0,0-.51.07c-.73.47-1.43,1-2.13,1.48a.7.7,0,0,0-.13-.17A.64.64,0,0,0,62.9,88.49ZM49.71,89.91l-.35.44c-.28.32-.55.65-.81,1l-.07-.06a2.26,2.26,0,0,0,.16-.26,13.74,13.74,0,0,0,1.06-1.33A.59.59,0,0,0,49.71,89.91Zm-3.27-9,.4-.11a.64.64,0,0,0-.15.14,3.87,3.87,0,0,0-.28.47Zm3.69-1.52.09,0-.07.08A.08.08,0,0,0,50.13,79.4Zm15.58-6.82a1.36,1.36,0,0,0-.4-.18l1.22-.56a8.28,8.28,0,0,0-.73.62A.94.94,0,0,0,65.71,72.58ZM80.48,67a.67.67,0,0,0-.2,0l.17-.3Zm-5,5.61.9-.85a.5.5,0,0,0,.12-.65l.56-.55a.8.8,0,0,0,.35.28c-.14.15-.27.31-.39.46-.28.32-.55.65-.82,1Zm.32,3.6c-.15.19-.3.38-.44.58,0,0,0,0,0,0a.79.79,0,0,0-.73-.63L74.54,76l0,0A.66.66,0,0,0,75,76a.72.72,0,0,0,.38.07A.8.8,0,0,0,75.8,76.16Zm-3.59.89a.14.14,0,0,0,0,.06c-.35.23-.68.47-1,.73a.84.84,0,0,0-.25-.46c.26-.29.5-.59.74-.9a.51.51,0,0,0,.24.17A.68.68,0,0,0,72.21,77.05ZM71,70.1l-.15.09a.68.68,0,0,0-.35-.4l.3-.15A.56.56,0,0,0,71,70.1ZM69.35,80.86l.48-.62a.86.86,0,0,0,.49.43,5,5,0,0,0-.67,1l-.34.37c.06-.1.13-.2.18-.3A.72.72,0,0,0,69.35,80.86ZM68.7,74.8h0c-.3.36-.62.7-.93,1.06a.74.74,0,0,0,.06-.28l.81-1A1.29,1.29,0,0,0,68.7,74.8Zm-.21-3.9h-.07l.22-.11Zm11.7-1.56.47-.85.09.76A.69.69,0,0,0,80.19,69.34Zm-26.09,24s0,0,0,0l-.13,0Zm12.85-6,0,.07-.19.08ZM81.87,80s0,.07,0,.1l-.11.06h0ZM61.13,18.61h0c1,.12,1.93.23,2.94.26h0a13.93,13.93,0,0,0,3.16-.15,30.76,30.76,0,0,1,2.26,4.87c.35.84.68,1.94,1.16,2.86H64.24c-2.18,0-4.4-.06-6.63-.1.5-1,.85-2.13,1.23-3A30.34,30.34,0,0,1,61.13,18.61Zm4.39,9.22h.07l0,0Zm4.6,2-.05,0a.8.8,0,0,0-.52-.68h0a2.45,2.45,0,0,0,.49-.23c0,.11,0,.22,0,.32a.67.67,0,0,0,.11.37Zm-3.08-2Zm9.13.92h0Zm-3.11,2,.09,0c0,.16-.05.33-.07.49a.4.4,0,0,0,0,.11l-.23.39a.43.43,0,0,0-.25-.05A9.62,9.62,0,0,0,73.06,30.76Zm4.85.2h0a.37.37,0,0,0-.59.1v0c0-.11,0-.22,0-.34a.22.22,0,0,0,.4-.11c0-.08,0-.16,0-.24h0A.65.65,0,0,0,77.91,31ZM55.18,29.1l-.11.13L55,29.14A3.18,3.18,0,0,0,55.12,28h.18A1.82,1.82,0,0,0,55.18,29.1ZM51,27.87V28h0s0-.05,0-.08Zm-.38,3.6-.3.28.06-.12a.71.71,0,0,0-.07-.71l.12-.2,0,0a.66.66,0,0,0,.18.23h0A.65.65,0,0,0,50.58,31.47ZM47.34,30.2h0ZM47.24,28c0-.16-.05-.33-.08-.49l.57.06-.1.11-.06,0A2.86,2.86,0,0,0,47.24,28Zm0,6,.06,0a.55.55,0,0,0-.08.44h-.11A3.36,3.36,0,0,0,47.29,34Zm12.2.09A11.07,11.07,0,0,0,60.38,33l.1,0v0l-.22.33a.67.67,0,0,0,.05.72h-.9Zm11.57-.18h0Zm6.35-6h0ZM67.64,5.71c.11-.23.21-.46.31-.7a.86.86,0,0,0,.17,0,.6.6,0,0,0,.06.19,6.77,6.77,0,0,1-.33.66A.91.91,0,0,0,67.64,5.71Zm1.46,6.52c.09-.12.17-.25.25-.38a1,1,0,0,0,.27.17c-.06.09-.11.18-.18.27a.68.68,0,0,0-.11.25l-.21,0A.68.68,0,0,0,69.1,12.23Zm1.63-3,0,0,.3-.9a.57.57,0,0,0,.18.12,1.57,1.57,0,0,0-.13.4.27.27,0,0,0,0,.09l0,0ZM58.86,11.89c.17-.22.35-.43.52-.64a.72.72,0,0,0,.36.23l-.05.1h0Zm3.6-7.11a5.78,5.78,0,0,0,.24-.7,1.09,1.09,0,0,0,.25.23l-.22.52s0,.06,0,.09h0A1,1,0,0,0,62.46,4.78Zm-2.2-2.47-.13.06-.24.12a.78.78,0,0,0-.24.09l-.09,0-.06,0A13.29,13.29,0,0,1,61,2C60.76,2.1,60.51,2.19,60.26,2.31ZM56.52,4.6c-.09.06-.16.13-.24.19l.28-.25A.21.21,0,0,0,56.52,4.6Zm-2.35,9.93,0,0h-.06Zm-3.83.32h0v0Zm15.38-.25v0h0ZM54.55,16c3.27.09,6.59-.07,9.82-.09,3.08,0,6.29.2,9.43.08.93,3.27.84,7,1.63,10.39l-1.9,0H72c-.49-1.32-1.29-2.65-1.83-3.89a16.46,16.46,0,0,0-2.27-4.16.3.3,0,0,0-.2-.38,12.15,12.15,0,0,0-3.61-.25h0a32,32,0,0,0-3.37.31.24.24,0,0,0-.22.24,17.28,17.28,0,0,0-2.43,4.29c-.54,1.19-1.31,2.45-1.82,3.71-1.1,0-2.2,0-3.29,0C53.72,23,53.63,19.26,54.55,16Zm9.18,19.43c4.37,0,9.18.48,13.71.21,0,.22,0,.44,0,.66-5,1.67-9.9,4-14.89,5.76-4.56,1.65-8.59,4.47-13,6.35.46-4.36,1.35-8.69,1.38-13.08C55.19,35.54,59.47,35.47,63.73,35.46ZM44.7,98c8-2.21,15.28-5.48,22.81-8.91,4.8-2.19,10-4.23,14.5-7.1,0,.74.11,1.47.15,2.22.25,4.8,1.77,10.33,1.46,15.19-6.44-.36-13.1.13-19.46.14s-13-.47-19.42-.15C44.71,99,44.7,98.49,44.7,98Zm-5.07,2.84c8,1.06,16.48.31,24.53.3s16.58.8,24.55-.34c.41,2.68,1,5.25,1.54,7.93A26.85,26.85,0,0,0,92,115.26a2.1,2.1,0,0,0-.53.19c-9-1-18.65-.19-27.71-.21H49.57c-4.3,0-9-.53-13.31.23a25.05,25.05,0,0,0,1.84-6.73C38.63,106.09,39.23,103.53,39.63,100.86ZM36.7,109l0,0h0Zm-34,2.9v.1l-.13.09C2.63,112,2.68,111.94,2.72,111.87Z" class="cls-2"/>
   <path d="M82.77,19.47c4.24-.41,8-2.33,11.68-4.41,4.28-2.44,8.57-5,12.72-7.61a.41.41,0,0,0-.31-.75c-4.13.88-7.69,3.19-11.28,5.32a82.07,82.07,0,0,1-13,6.41C82.11,18.62,82.13,19.54,82.77,19.47Z" class="cls-2"/>
   <path d="M103.57,23.18a.48.48,0,0,0,0-.92c-6.55-1.11-13.25.31-19.79-.55-.61-.08-.63.81-.14,1,2.88,1.11,6,.88,9,.95A55.17,55.17,0,0,0,103.57,23.18Z" class="cls-2"/>
   <path d="M84.68,26.89c6.78,2.79,12.77,7.49,19.32,10.79.38.19.8-.29.47-.61a45.83,45.83,0,0,0-10.24-7c-3-1.6-6-3.64-9.44-3.95C84.29,26.06,84.3,26.73,84.68,26.89Z" class="cls-2"/>
   <path d="M15.86,158.09,7.29,131.37h6.63l3.25,11.3c.91,3.17,1.74,6.22,2.37,9.55h.12c.68-3.21,1.51-6.38,2.42-9.43l3.41-11.42h6.42l-9,26.72Z" class="cls-1"/>
   <path d="M40.83,131.37v26.72H34.77V131.37Z" class="cls-1"/>
   <path d="M46.06,131.73a53.53,53.53,0,0,1,8.17-.56c5.07,0,8.37.91,10.94,2.86,2.78,2.06,4.52,5.35,4.52,10.07,0,5.11-1.86,8.64-4.44,10.82-2.81,2.34-7.1,3.45-12.33,3.45a52,52,0,0,1-6.86-.4Zm6.07,21.8a11,11,0,0,0,2.1.12c5.47,0,9-3,9-9.36,0-5.55-3.21-8.48-8.41-8.48a12.41,12.41,0,0,0-2.73.24Z" class="cls-1"/>
   <path d="M89.55,146.79H79.72v6.34h11v5h-17V131.37H90.15v5H79.72v5.55h9.83Z" class="cls-1"/>
   <path d="M119.28,144.45c0,8.76-5.31,14.08-13.12,14.08s-12.56-6-12.56-13.6c0-8,5.11-14,13-14C114.8,130.93,119.28,137.08,119.28,144.45Zm-19.3.36c0,5.23,2.46,8.92,6.5,8.92s6.42-3.89,6.42-9.08c0-4.8-2.3-8.92-6.46-8.92S100,139.62,100,144.81Z" class="cls-1"/>
  </g>
 </g>
</svg>
